<?xml version="1.0" standalone="no"?>
<!DOCTYPE svg PUBLIC "-//W3C//DTD SVG 1.1//EN" "http://www.w3.org/Graphics/SVG/1.1/DTD/svg11.dtd" >
<svg xmlns="http://www.w3.org/2000/svg" xmlns:xlink="http://www.w3.org/1999/xlink" version="1.1">
<metadata>
Created by FontForge 20170731 at Thu Nov  7 23:35:58 2019
 By Aleksey,,,
Copyright (c) 2019 by Rick Banks. All rights reserved.
</metadata>
<defs>
<font id="F37GingerPro-Regular" horiz-adv-x="600" >
  <font-face 
    font-family="F37 Ginger Pro"
    font-weight="400"
    font-stretch="normal"
    units-per-em="1000"
    panose-1="0 0 5 0 0 0 0 0 0 0"
    ascent="800"
    descent="-200"
    x-height="475"
    cap-height="740"
    bbox="-824 -263 1246 996"
    underline-thickness="50"
    underline-position="-200"
    unicode-range="U+0020-FB02"
  />
<missing-glyph horiz-adv-x="729" 
d="M100 740h529v-740h-529v740zM183 656v-572h363v572h-363z" />
    <glyph glyph-name="fi" unicode="fi" horiz-adv-x="543" 
d="M473 475v-475h-80v399h-218v-399h-80v399h-70v76h70v114q0 161 144 161q47 0 78 -12v-71q-19 7 -59 7q-41 0 -61.5 -20t-21.5 -74v-105h298zM433 688q25 0 42 -16.5t17 -41.5t-17 -42t-42 -17t-42 16.5t-17 42.5q0 25 17 41.5t42 16.5z" />
    <glyph glyph-name="fl" unicode="fl" horiz-adv-x="580" 
d="M539 64q18 0 34 6v-72q-30 -9 -56 -9q-120 0 -120 137v273h-222v-399h-80v399h-70v76h70v114q0 161 144 161q47 0 78 -12v-71q-19 7 -59 7q-41 0 -61.5 -20t-21.5 -74v-105h222v265h80v-596q0 -42 13.5 -61t48.5 -19z" />
    <glyph glyph-name="f_f" unicode="ff" horiz-adv-x="594" 
d="M545 674q-41 0 -61.5 -20t-21.5 -74v-105h132v-76h-132v-399h-80v399h-207v-399h-80v399h-70v76h70v114q0 161 144 161q47 0 78 -12v-71q-19 7 -59 7q-41 0 -61.5 -20t-21.5 -74v-105h207v114q0 161 144 161q46 0 78 -12v-71q-19 7 -59 7z" />
    <glyph glyph-name="f_f_i" unicode="ffi" horiz-adv-x="837" 
d="M760 475v-475h-80v399h-218v-399h-80v399h-207v-399h-80v399h-70v76h70v114q0 161 144 161q47 0 78 -12v-71q-19 7 -59 7q-41 0 -61.5 -20t-21.5 -74v-105h207v114q0 161 144 161q46 0 78 -12v-71q-19 7 -59 7q-41 0 -61.5 -20t-21.5 -74v-105h298zM720 688
q25 0 42 -16.5t17 -41.5t-17 -42t-42 -17q-26 0 -42.5 16.5t-16.5 42.5q0 25 17 41.5t42 16.5z" />
    <glyph glyph-name="f_f_l" unicode="ffl" horiz-adv-x="868" 
d="M827 64q18 0 34 6v-72q-30 -9 -56 -9q-120 0 -120 137v273h-222v-399h-80v399h-208v-399h-80v399h-70v76h70v114q0 161 144 161q47 0 78 -12v-71q-19 7 -59 7q-41 0 -61.5 -20t-21.5 -74v-105h208v114q0 161 144 161q47 0 78 -12v-71q-19 7 -59 7q-41 0 -61.5 -20
t-21.5 -74v-105h222v265h80v-596q0 -42 13.5 -61t48.5 -19z" />
    <glyph glyph-name=".notdef" horiz-adv-x="729" 
d="M100 740h529v-740h-529v740zM183 656v-572h363v572h-363z" />
    <glyph glyph-name=".null" horiz-adv-x="0" 
 />
    <glyph glyph-name="nonmarkingreturn" horiz-adv-x="333" 
 />
    <glyph glyph-name="space" unicode=" " horiz-adv-x="267" 
 />
    <glyph glyph-name="exclam" unicode="!" horiz-adv-x="259" 
d="M87 480v260h86v-260l-19 -279h-48zM130 -6q-23 0 -38.5 15.5t-15.5 38.5t15.5 38t38.5 15q22 0 37.5 -15.5t15.5 -37.5q0 -23 -15 -38.5t-38 -15.5z" />
    <glyph glyph-name="quotedbl" unicode="&#x22;" horiz-adv-x="370" 
d="M57 740h96l-16 -256h-65zM218 740h97l-17 -256h-65z" />
    <glyph glyph-name="numbersign" unicode="#" horiz-adv-x="630" 
d="M592 459h-124l-24 -166h116v-62h-124l-26 -184h-63l26 184h-156l-26 -184h-62l26 184h-117v62h125l24 166h-117v61h125l25 178h62l-25 -178h156l25 178h63l-25 -178h116v-61zM381 293l24 166h-156l-24 -166h156z" />
    <glyph glyph-name="dollar" unicode="$" horiz-adv-x="555" 
d="M511 198q0 -88 -50 -142.5t-139 -65.5v-73h-71v71q-136 11 -218 125l54 57q63 -90 164 -102v284q-41 18 -66 32t-54 38t-43 57.5t-14 76.5q0 79 48.5 130t128.5 63v74h71v-71q96 -5 176 -69l-46 -67q-50 48 -130 57v-258q44 -18 70 -32t57.5 -39.5t46.5 -61.5t15 -84z
M160 563q0 -41 23.5 -68t67.5 -49v223q-91 -22 -91 -106zM322 70q48 10 75.5 42t27.5 81q0 46 -26.5 75t-76.5 53v-251z" />
    <glyph glyph-name="percent" unicode="%" horiz-adv-x="861" 
d="M409 570q0 -77 -56 -132t-133 -55t-133 55t-56 132t56 132t133 55t133 -55t56 -132zM599 740h72l-406 -740h-72zM220 455q49 0 82 33.5t33 81.5t-33 81.5t-82 33.5q-48 0 -81 -33.5t-33 -81.5t33 -81.5t81 -33.5zM830 173q0 -77 -56 -132t-133 -55t-133 55t-56 132
t56 132t133 55t133 -55t56 -132zM641 57q48 0 81 34t33 82t-33 81.5t-81 33.5q-49 0 -82 -33.5t-33 -81.5t33.5 -82t81.5 -34z" />
    <glyph glyph-name="ampersand" unicode="&#x26;" horiz-adv-x="625" 
d="M586 359h-86v-281h86v-78h-301q-99 0 -166 61.5t-67 154.5q0 132 119 182q-101 46 -101 163q0 83 54 137.5t150 54.5q92 0 146 -51l-52 -60q-36 33 -90 33q-57 0 -89.5 -33.5t-32.5 -84.5t30 -85.5t86 -34.5h148v119h80v-119h86v-78zM420 78v281h-151q-59 0 -95 -42
t-36 -97q0 -59 41 -100.5t107 -41.5h134z" />
    <glyph glyph-name="quotesingle" unicode="'" horiz-adv-x="209" 
d="M57 740h96l-16 -256h-65z" />
    <glyph glyph-name="parenleft" unicode="(" horiz-adv-x="344" 
d="M304 -199q-117 69 -190.5 192.5t-73.5 283.5q0 161 73 284t191 191l37 -60q-95 -61 -155 -172t-60 -243q0 -131 60 -242t155 -174z" />
    <glyph glyph-name="parenright" unicode=")" horiz-adv-x="345" 
d="M4 -139q94 63 154.5 174t60.5 242q0 132 -60 243t-155 172l36 60q118 -68 191 -191t73 -284q0 -160 -73.5 -283.5t-190.5 -192.5z" />
    <glyph glyph-name="asterisk" unicode="*" horiz-adv-x="401" 
d="M350 636l-101 -53l101 -52l-29 -51l-97 61l6 -113h-59l5 113l-96 -61l-30 51l101 52l-101 53l30 51l96 -62l-5 115h59l-6 -115l97 62z" />
    <glyph glyph-name="plus" unicode="+" horiz-adv-x="668" 
d="M293 307h-225v78h225v238h80v-238h227v-78h-227v-238h-80v238z" />
    <glyph glyph-name="comma" unicode="," horiz-adv-x="217" 
d="M110 101q27 0 42 -20t15 -54q0 -57 -33 -99t-75 -44v41q22 0 40 19t22 54q-4 -2 -14 -2q-22 0 -36 14.5t-14 36.5q0 23 15 38.5t38 15.5z" />
    <glyph glyph-name="hyphen" unicode="-" horiz-adv-x="411" 
d="M61 310h289v-77h-289v77z" />
    <glyph glyph-name="period" unicode="." horiz-adv-x="218" 
d="M109 -6q-23 0 -38.5 15t-15.5 39q0 22 15.5 37.5t38.5 15.5t38.5 -15.5t15.5 -37.5q0 -24 -15.5 -39t-38.5 -15z" />
    <glyph glyph-name="slash" unicode="/" horiz-adv-x="539" 
d="M432 740h82l-406 -740h-82z" />
    <glyph glyph-name="zero" unicode="0" horiz-adv-x="614" 
d="M307 -13q-104 0 -171 69.5t-67 182.5v262q0 113 67 182.5t171 69.5q103 0 170.5 -68t67.5 -184v-262q0 -116 -67.5 -184t-170.5 -68zM307 65q66 0 110.5 47.5t44.5 132.5v250q0 85 -44.5 132.5t-110.5 47.5t-110.5 -47t-44.5 -133v-250q0 -86 44.5 -133t110.5 -47z" />
    <glyph glyph-name="one" unicode="1" horiz-adv-x="345" 
d="M162 659h-143v81h228v-740h-85v659z" />
    <glyph glyph-name="two" unicode="2" horiz-adv-x="551" 
d="M374 297l-217 -216h337v-81h-450v82l242 242q68 68 98 118t30 99q0 60 -37 97t-98 37q-58 0 -98.5 -34.5t-50.5 -103.5h-82q14 109 77.5 162.5t156.5 53.5q94 0 156 -57t62 -153q0 -121 -126 -246z" />
    <glyph glyph-name="three" unicode="3" horiz-adv-x="566" 
d="M391 398q120 -49 120 -188q0 -98 -66.5 -160.5t-167.5 -62.5q-103 0 -168 63t-70 164h82q5 -66 48 -107.5t108 -41.5q67 0 107.5 42.5t40.5 106.5q0 59 -36 102t-95 43h-49v79h46q56 0 86 34.5t30 85.5t-31 84t-88 33q-62 0 -97 -39t-37 -99h-82q2 97 60 156.5t157 59.5
q95 0 149.5 -54.5t54.5 -137.5q0 -117 -102 -163z" />
    <glyph glyph-name="four" unicode="4" horiz-adv-x="578" 
d="M539 215v-76h-85v-139h-83v139h-350v73l349 528h84v-525h85zM114 215h257v390z" />
    <glyph glyph-name="five" unicode="5" horiz-adv-x="580" 
d="M304 495q100 0 167.5 -71.5t67.5 -181.5q0 -109 -71.5 -182t-180.5 -73q-104 0 -172 64t-81 164h82q9 -62 51.5 -106t118.5 -44t123 50.5t47 126.5q0 80 -48 129t-117 49q-83 0 -149 -54l-58 45l56 329h350l-5 -78h-276l-36 -202q57 35 131 35z" />
    <glyph glyph-name="six" unicode="6" horiz-adv-x="572" 
d="M298 467q100 0 169.5 -70t69.5 -168q0 -99 -70.5 -170.5t-175.5 -71.5q-104 0 -174.5 71.5t-70.5 170.5q0 62 41 143l194 368h93l-154 -290q37 17 78 17zM291 64q72 0 119.5 49t47.5 116t-47.5 116t-119.5 49t-119 -49t-47 -116t47 -116t119 -49z" />
    <glyph glyph-name="seven" unicode="7" horiz-adv-x="504" 
d="M22 740h458v-81l-314 -659h-93l317 659h-368v81z" />
    <glyph glyph-name="eight" unicode="8" horiz-adv-x="613" 
d="M459 451q49 -36 77.5 -90.5t28.5 -116.5q0 -107 -75 -182t-184 -75t-184 75t-75 182q0 63 28.5 117.5t78.5 90.5q-40 46 -40 110q0 79 54.5 135t137.5 56t137.5 -55.5t54.5 -135.5q0 -63 -39 -111zM306 676q-48 0 -79.5 -34t-31.5 -80t30 -77q40 16 81 16q39 0 81 -16
q31 33 31 77q0 47 -32 80.5t-80 33.5zM306 64q76 0 127.5 54t51.5 126q0 73 -52.5 126.5t-126.5 53.5t-126 -54t-52 -126q0 -73 52 -126.5t126 -53.5z" />
    <glyph glyph-name="nine" unicode="9" horiz-adv-x="572" 
d="M280 753q105 0 175.5 -71.5t70.5 -170.5q0 -63 -42 -143l-194 -368h-93l154 290q-35 -17 -78 -17q-100 0 -169.5 70t-69.5 168q0 99 70.5 170.5t175.5 71.5zM280 346q72 0 119 49t47 116t-47 116t-119 49t-119 -49t-47 -116t47 -116t119 -49z" />
    <glyph glyph-name="colon" unicode=":" horiz-adv-x="225" 
d="M113 353q-23 0 -38.5 15.5t-15.5 38.5t15.5 38t38.5 15t38.5 -15.5t15.5 -37.5q0 -23 -15.5 -38.5t-38.5 -15.5zM113 -6q-23 0 -38.5 15t-15.5 39q0 23 15.5 38t38.5 15t38.5 -15.5t15.5 -37.5q0 -24 -15.5 -39t-38.5 -15z" />
    <glyph glyph-name="semicolon" unicode=";" horiz-adv-x="234" 
d="M115 353q-23 0 -38 15.5t-15 38.5t15 38t38 15t38.5 -15.5t15.5 -37.5q0 -23 -15.5 -38.5t-38.5 -15.5zM116 101q27 0 42 -20t15 -54q0 -57 -33 -99t-75 -44v41q22 0 40 19t22 54q-4 -2 -14 -2q-22 0 -36 14.5t-14 36.5q0 23 15 38.5t38 15.5z" />
    <glyph glyph-name="less" unicode="&#x3c;" horiz-adv-x="652" 
d="M149 346l289 294l54 -54l-240 -240l241 -240l-55 -55z" />
    <glyph glyph-name="equal" unicode="=" horiz-adv-x="656" 
d="M68 432v77h520v-77h-520zM68 183v77h520v-77h-520z" />
    <glyph glyph-name="greater" unicode="&#x3e;" horiz-adv-x="652" 
d="M159 106l241 240l-241 240l55 54l289 -294l-290 -295z" />
    <glyph glyph-name="question" unicode="?" horiz-adv-x="493" 
d="M156 258q0 38 12 67.5t31 48t42 33.5t46.5 28.5t42.5 29t31 39t12 53.5q0 53 -34.5 85t-91.5 32q-61 0 -98 -39.5t-37 -103.5h-79q0 99 60.5 161t156.5 62q94 0 151 -53.5t57 -141.5q0 -46 -16 -81.5t-40 -55t-52.5 -38.5t-52.5 -33.5t-40 -39.5t-16 -57v-53h-85v57z
M198 -6q-23 0 -38.5 15.5t-15.5 38.5t15.5 38t38.5 15q22 0 37.5 -15.5t15.5 -37.5q0 -23 -15 -38.5t-38 -15.5z" />
    <glyph glyph-name="at" unicode="@" horiz-adv-x="951" 
d="M447 -14q-86 0 -140.5 59.5t-54.5 147.5t55 147t145 59t145 -72v65h74v-265q0 -78 59 -78q41 0 71 51t30 145q0 135 -97.5 228t-251.5 93q-67 0 -130 -22.5t-117 -66.5t-86.5 -119t-32.5 -171q0 -182 106.5 -280.5t268.5 -98.5q125 0 219 66l40 -61q-110 -75 -267 -75
q-189 0 -316 121t-127 328q0 108 38 196t101 143.5t140 85t158 29.5t156.5 -25.5t136.5 -73t98 -124.5t37 -171q0 -128 -51 -200t-128 -72q-47 0 -77.5 28t-35.5 74q-27 -47 -73.5 -69t-92.5 -22zM458 50q62 0 101 41t39 102q0 60 -38.5 101t-100.5 41t-100.5 -40.5
t-38.5 -102.5t38 -102t100 -40z" />
    <glyph glyph-name="A" unicode="A" horiz-adv-x="715" 
d="M614 0l-75 189h-363l-75 -189h-91l302 740h91l303 -740h-92zM358 636l-149 -366h297z" />
    <glyph glyph-name="B" unicode="B" horiz-adv-x="624" 
d="M95 0v740h188q261 0 261 -190q0 -59 -30 -102.5t-90 -60.5q74 -15 111.5 -63.5t37.5 -120.5q0 -102 -75 -152.5t-215 -50.5h-188zM180 427h150q62 0 96 28t34 84q0 120 -161 120h-119v-232zM180 81h120q94 0 141.5 35.5t47.5 98.5q0 62 -43 96.5t-122 34.5h-144v-265z
" />
    <glyph glyph-name="C" unicode="C" horiz-adv-x="723" 
d="M429 -13q-161 0 -273.5 111t-112.5 271q0 159 111.5 271.5t274.5 112.5t277 -117l-57 -58q-87 96 -220 96q-127 0 -213.5 -90.5t-86.5 -215.5q0 -124 87 -213t213 -89q124 0 214 88l53 -59q-113 -108 -267 -108z" />
    <glyph glyph-name="D" unicode="D" horiz-adv-x="741" 
d="M95 0v740h204q176 0 286.5 -100t110.5 -270t-110.5 -270t-286.5 -100h-204zM180 82h118q137 0 225 74.5t88 213.5t-88 213.5t-225 74.5h-118v-576z" />
    <glyph glyph-name="E" unicode="E" horiz-adv-x="574" 
d="M95 0v740h436v-82h-351v-231h293v-82h-293v-263h351v-82h-436z" />
    <glyph glyph-name="F" unicode="F" horiz-adv-x="555" 
d="M95 0v740h437v-82h-352v-231h294v-82h-294v-345h-85z" />
    <glyph glyph-name="G" unicode="G" horiz-adv-x="815" 
d="M430 -13q-166 0 -276.5 110t-110.5 271q0 160 111.5 272.5t274.5 112.5q170 0 284 -121l-53 -59q-88 101 -228 101q-130 0 -216.5 -90t-86.5 -216q0 -127 85 -214.5t217 -87.5q118 0 189 71.5t71 191.5v4h-277v82h363v-58q0 -163 -92 -266.5t-255 -103.5z" />
    <glyph glyph-name="H" unicode="H" horiz-adv-x="787" 
d="M607 740h85v-740h-85v347h-427v-347h-85v740h85v-311h427v311z" />
    <glyph glyph-name="I" unicode="I" horiz-adv-x="276" 
d="M95 0v740h85v-740h-85z" />
    <glyph glyph-name="J" unicode="J" horiz-adv-x="274" 
d="M-35 -218v78q72 11 100 55.5t28 149.5v675h85v-675q0 -138 -47 -204t-166 -79z" />
    <glyph glyph-name="K" unicode="K" horiz-adv-x="619" 
d="M261 369l371 -369h-114l-338 336v-336h-85v740h85v-340l317 340h109z" />
    <glyph glyph-name="L" unicode="L" horiz-adv-x="560" 
d="M95 0v740h85v-658h368v-82h-453z" />
    <glyph glyph-name="M" unicode="M" horiz-adv-x="924" 
d="M715 740h114v-740h-86v630l-240 -344h-84l-239 345v-631h-85v740h114l253 -366z" />
    <glyph glyph-name="N" unicode="N" horiz-adv-x="830" 
d="M650 740h84v-740h-92l-462 634v-634h-85v740h111l444 -608v608z" />
    <glyph glyph-name="O" unicode="O" horiz-adv-x="859" 
d="M429 -13q-161 0 -273.5 111t-112.5 271q0 159 111.5 271.5t274.5 112.5q164 0 275.5 -112t111.5 -272t-112.5 -271t-274.5 -111zM429 66q127 0 214 89t87 213q0 125 -86.5 215.5t-214.5 90.5q-127 0 -213.5 -90.5t-86.5 -215.5q0 -124 87 -213t213 -89z" />
    <glyph glyph-name="P" unicode="P" horiz-adv-x="615" 
d="M95 0v740h214q138 0 208 -63t70 -172q0 -108 -70.5 -171.5t-207.5 -63.5h-129v-270h-85zM180 352h129q96 0 144.5 40.5t48.5 112.5t-48.5 112.5t-144.5 40.5h-129v-306z" />
    <glyph glyph-name="Q" unicode="Q" horiz-adv-x="863" 
d="M829 82v-82h-373h-27q-163 0 -274.5 106t-111.5 266t111 270.5t275 110.5t275.5 -110.5t111.5 -270.5q0 -95 -44.5 -170.5t-130.5 -119.5h188zM129 372q0 -125 86 -209t214 -84q131 0 216 83.5t85 209.5q0 125 -86.5 213.5t-214.5 88.5q-127 0 -213.5 -88.5t-86.5 -213.5
z" />
    <glyph glyph-name="R" unicode="R" horiz-adv-x="662" 
d="M626 0h-98l-190 325h-158v-325h-85v740h261q255 0 255 -207q0 -174 -180 -202zM180 658v-252h182q164 0 164 126t-164 126h-182z" />
    <glyph glyph-name="S" unicode="S" horiz-adv-x="557" 
d="M86 170q77 -104 193 -104q67 0 106.5 33.5t39.5 93.5q0 43 -26 74t-65 48t-84.5 38t-84.5 42.5t-65 63t-26 97.5q0 92 63.5 144.5t164.5 52.5q108 0 196 -70l-46 -67q-59 58 -154 58q-61 0 -99.5 -29t-38.5 -82q0 -36 19.5 -62.5t50.5 -43t68 -31.5t74.5 -33t68.5 -41.5
t50.5 -62.5t19.5 -91q0 -99 -62 -155t-171 -56q-157 0 -245 126z" />
    <glyph glyph-name="T" unicode="T" horiz-adv-x="601" 
d="M259 0v658h-247v82h577v-82h-245v-658h-85z" />
    <glyph glyph-name="U" unicode="U" horiz-adv-x="767" 
d="M384 -13q-141 0 -220.5 87t-79.5 258v408h85v-384q0 -149 52.5 -219.5t162.5 -70.5q109 0 162 70.5t53 219.5v384h85v-408q0 -170 -80 -257.5t-220 -87.5z" />
    <glyph glyph-name="V" unicode="V" horiz-adv-x="712" 
d="M611 740h92l-303 -740h-87l-304 740h92l255 -627z" />
    <glyph glyph-name="W" unicode="W" horiz-adv-x="1027" 
d="M922 740h92l-239 -740h-83l-179 601l-179 -601h-82l-239 740h92l187 -606l179 606h85l178 -608z" />
    <glyph glyph-name="X" unicode="X" horiz-adv-x="633" 
d="M628 0h-102l-212 304l-211 -304h-102l262 377l-253 363h102l206 -296l206 296h101l-255 -369z" />
    <glyph glyph-name="Y" unicode="Y" horiz-adv-x="669" 
d="M552 740h99l-274 -409v-331h-85v331l-273 409h99l217 -328z" />
    <glyph glyph-name="Z" unicode="Z" horiz-adv-x="627" 
d="M599 740v-75l-461 -583h460v-82h-575v75l462 583h-451v82h565z" />
    <glyph glyph-name="bracketleft" unicode="[" horiz-adv-x="341" 
d="M90 740h235v-72h-149v-798h149v-72h-235v942z" />
    <glyph glyph-name="backslash" unicode="\" horiz-adv-x="539" 
d="M25 740h82l406 -740h-82z" />
    <glyph glyph-name="bracketright" unicode="]" horiz-adv-x="341" 
d="M15 -130h150v798h-150v72h235v-942h-235v72z" />
    <glyph glyph-name="asciicircum" unicode="^" horiz-adv-x="657" 
d="M328 669l-162 -333h-85l200 404h94l201 -404h-85z" />
    <glyph glyph-name="underscore" unicode="_" horiz-adv-x="619" 
d="M48 0h523v-74h-523v74z" />
    <glyph glyph-name="grave" unicode="`" horiz-adv-x="372" 
d="M60 652l33 69l219 -117l-31 -63z" />
    <glyph glyph-name="a" unicode="a" horiz-adv-x="607" 
d="M454 475h80v-475h-80v68q-69 -77 -173 -77q-99 0 -171.5 72t-72.5 175t72.5 174.5t171.5 71.5q104 0 173 -77v68zM285 66q71 0 120 50t49 122q0 71 -49 121t-120 50q-68 0 -117 -50t-49 -121t49 -121.5t117 -50.5z" />
    <glyph glyph-name="b" unicode="b" horiz-adv-x="607" 
d="M326 484q99 0 171.5 -71.5t72.5 -174.5t-72.5 -175t-171.5 -72q-104 0 -173 77v-68h-80v740h80v-333q69 77 173 77zM322 66q68 0 117 50.5t49 121.5t-49 121t-117 50q-71 0 -120 -50t-49 -121q0 -72 49 -122t120 -50z" />
    <glyph glyph-name="c" unicode="c" horiz-adv-x="522" 
d="M287 -11q-104 0 -177 72t-73 175t73 175.5t177 72.5q65 0 119.5 -29t89.5 -82l-67 -39q-50 74 -142 74q-72 0 -120 -50t-48 -122t48 -121.5t120 -49.5q93 0 145 77l66 -40q-35 -53 -90 -83t-121 -30z" />
    <glyph glyph-name="d" unicode="d" horiz-adv-x="607" 
d="M454 740h80v-740h-80v68q-69 -77 -173 -77q-99 0 -171.5 72t-72.5 175t72.5 174.5t171.5 71.5q104 0 173 -77v333zM285 66q71 0 120 50t49 122q0 71 -49 121t-120 50q-68 0 -117 -50t-49 -121t49 -121.5t117 -50.5z" />
    <glyph glyph-name="e" unicode="e" horiz-adv-x="551" 
d="M278 484q105 0 172.5 -70.5t67.5 -176.5q0 -17 -1 -26h-400q8 -66 54.5 -108t115.5 -42q95 0 145 68l55 -43q-70 -97 -198 -97q-112 0 -182 73t-70 176q0 101 69.5 173.5t171.5 72.5zM118 273h320q-8 63 -50.5 100.5t-108.5 37.5q-61 0 -106 -38t-55 -100z" />
    <glyph glyph-name="f" unicode="f" horiz-adv-x="307" 
d="M258 674q-41 0 -61.5 -20t-21.5 -74v-105h132v-76h-132v-399h-80v399h-70v76h70v114q0 161 144 161q47 0 78 -12v-71q-19 7 -59 7z" />
    <glyph glyph-name="g" unicode="g" horiz-adv-x="606" 
d="M454 475h80v-473q0 -60 -14.5 -106.5t-38.5 -76t-56.5 -48.5t-66 -26.5t-69.5 -7.5q-75 0 -131.5 31.5t-88.5 87.5l72 32q50 -75 148 -75q76 0 120.5 44t44.5 132v79q-69 -77 -173 -77q-99 0 -171.5 72t-72.5 175t72.5 174.5t171.5 71.5q104 0 173 -77v68zM285 66
q71 0 120 50t49 122q0 71 -49 121t-120 50q-68 0 -117 -50t-49 -121t49 -121.5t117 -50.5z" />
    <glyph glyph-name="h" unicode="h" horiz-adv-x="569" 
d="M309 484q86 0 140 -52.5t54 -164.5v-267h-80v260q0 74 -34.5 111t-95.5 37q-140 0 -140 -162v-246h-80v740h80v-328q51 72 156 72z" />
    <glyph glyph-name="i" unicode="i" horiz-adv-x="226" 
d="M114 582q-23 0 -39 16t-16 40q0 23 16 38.5t39 15.5t39 -15.5t16 -38.5q0 -24 -16 -40t-39 -16zM73 475h80v-475h-80v475z" />
    <glyph glyph-name="j" unicode="j" horiz-adv-x="226" 
d="M114 582q-23 0 -39 16t-16 40q0 23 16 38.5t39 15.5t39 -15.5t16 -38.5q0 -24 -16 -40t-39 -16zM73 475h80v-728h-80v728z" />
    <glyph glyph-name="k" unicode="k" horiz-adv-x="482" 
d="M489 0h-109l-227 225v-225h-80v740h80v-457l211 192h109l-240 -220z" />
    <glyph glyph-name="l" unicode="l" horiz-adv-x="254" 
d="M195 -11q-123 0 -123 137v614h80v-596q0 -43 13 -61.5t49 -18.5q18 0 34 6v-72q-26 -9 -53 -9z" />
    <glyph glyph-name="m" unicode="m" horiz-adv-x="851" 
d="M611 484q76 0 125 -49.5t49 -160.5v-274h-80v265q0 143 -110 143q-58 0 -92 -41.5t-34 -120.5v-246h-80v265q0 143 -110 143q-58 0 -92 -41.5t-34 -120.5v-246h-80v475h80v-62q49 71 142 71q110 0 152 -91q58 91 164 91z" />
    <glyph glyph-name="n" unicode="n" horiz-adv-x="569" 
d="M309 484q86 0 140 -52.5t54 -164.5v-267h-80v260q0 74 -34.5 111t-95.5 37q-140 0 -140 -162v-246h-80v475h80v-63q51 72 156 72z" />
    <glyph glyph-name="o" unicode="o" horiz-adv-x="574" 
d="M287 -11q-105 0 -177.5 73t-72.5 175t72 174.5t178 72.5t178 -72.5t72 -174.5t-72.5 -175t-177.5 -73zM287 65q73 0 120.5 50.5t47.5 121.5t-47.5 121t-120.5 50t-120.5 -50t-47.5 -121t47.5 -121.5t120.5 -50.5z" />
    <glyph glyph-name="p" unicode="p" horiz-adv-x="608" 
d="M326 484q99 0 171.5 -71.5t72.5 -174.5t-72.5 -175t-171.5 -72q-104 0 -173 77v-321h-80v728h80v-68q69 77 173 77zM322 66q68 0 117 50.5t49 121.5t-49 121t-117 50q-71 0 -120 -50t-49 -121q0 -72 49 -122t120 -50z" />
    <glyph glyph-name="q" unicode="q" horiz-adv-x="606" 
d="M454 475h80v-728h-80v321q-69 -77 -173 -77q-99 0 -171.5 72t-72.5 175t72.5 174.5t171.5 71.5q104 0 173 -77v68zM285 66q71 0 120 50t49 122q0 71 -49 121t-120 50q-68 0 -117 -50t-49 -121t49 -121.5t117 -50.5z" />
    <glyph glyph-name="r" unicode="r" horiz-adv-x="345" 
d="M316 484h25v-77h-19q-83 0 -126 -37t-43 -107v-263h-80v475h80v-71q44 80 163 80z" />
    <glyph glyph-name="s" unicode="s" horiz-adv-x="425" 
d="M73 116q65 -54 143 -54q45 0 68 18t23 45q0 30 -26.5 48t-63.5 28.5t-74.5 23.5t-64 44t-26.5 79q0 59 43 97.5t120 38.5q100 0 167 -55l-42 -58q-54 40 -126 40q-43 0 -63.5 -16t-20.5 -41q0 -29 26 -46.5t63.5 -29t75 -25.5t63.5 -46t26 -80q0 -61 -45 -99.5
t-127 -38.5q-96 0 -182 65z" />
    <glyph glyph-name="t" unicode="t" horiz-adv-x="332" 
d="M316 399h-140v-256q1 -42 16.5 -60.5t53.5 -18.5q41 0 60 8v-72q-26 -11 -79 -11q-131 0 -131 139v271h-75v76h75v158h80v-158h140v-76z" />
    <glyph glyph-name="u" unicode="u" horiz-adv-x="562" 
d="M281 -11q-97 0 -156.5 54t-59.5 161v271h80v-256q0 -154 136 -154t136 154v256h80v-271q0 -107 -59.5 -161t-156.5 -54z" />
    <glyph glyph-name="v" unicode="v" horiz-adv-x="514" 
d="M413 475h87l-200 -475h-86l-200 475h87l156 -382z" />
    <glyph glyph-name="w" unicode="w" horiz-adv-x="805" 
d="M705 475h87l-175 -475h-87l-127 376l-128 -376h-86l-176 475h87l132 -380l128 380h85l128 -379z" />
    <glyph glyph-name="x" unicode="x" horiz-adv-x="457" 
d="M450 0h-94l-128 184l-128 -184h-94l174 252l-155 223h94l113 -163l113 163h93l-159 -230z" />
    <glyph glyph-name="y" unicode="y" horiz-adv-x="514" 
d="M413 475h87l-307 -728h-80l102 246l-202 482h87l156 -381z" />
    <glyph glyph-name="z" unicode="z" horiz-adv-x="440" 
d="M408 475v-74l-272 -325h272v-76h-376v74l272 325h-272v76h376z" />
    <glyph glyph-name="braceleft" unicode="{" horiz-adv-x="345" 
d="M18 306q59 2 86.5 31t27.5 88v192q0 59 28.5 90.5t81.5 31.5h77v-72h-46q-30 0 -42.5 -18.5t-12.5 -56.5v-178q0 -120 -113 -146q113 -26 113 -145v-179q0 -38 12.5 -56.5t42.5 -18.5h46v-72h-77q-53 0 -81.5 32t-28.5 91v192q0 59 -27.5 87.5t-86.5 30.5v76z" />
    <glyph glyph-name="bar" unicode="|" horiz-adv-x="263" 
d="M90 740h82v-880h-82v880z" />
    <glyph glyph-name="braceright" unicode="}" horiz-adv-x="345" 
d="M327 230q-59 -2 -87 -30.5t-28 -87.5v-192q0 -59 -28 -91t-81 -32h-78v72h46q31 0 43.5 18.5t12.5 56.5v179q0 119 113 145q-113 26 -113 146v178q0 38 -12.5 56.5t-43.5 18.5h-46v72h78q53 0 81 -31.5t28 -90.5v-192q0 -59 28 -88t87 -31v-76z" />
    <glyph glyph-name="asciitilde" unicode="~" horiz-adv-x="658" 
d="M89 267q0 67 37 104.5t102 37.5q49 0 110.5 -26.5t91.5 -26.5q75 0 75 70h68q0 -66 -37 -103.5t-101 -37.5q-49 0 -111 26t-92 26q-74 0 -74 -70h-69z" />
    <glyph glyph-name="uni00A0" unicode="&#xa0;" horiz-adv-x="267" 
 />
    <glyph glyph-name="exclamdown" unicode="&#xa1;" horiz-adv-x="256" 
d="M128 447q-23 0 -38.5 15t-15.5 38t15.5 38.5t38.5 15.5t38.5 -15.5t15.5 -38.5q0 -22 -15.5 -37.5t-38.5 -15.5zM85 68l19 279h48l19 -279v-260h-86v260z" />
    <glyph glyph-name="cent" unicode="&#xa2;" horiz-adv-x="541" 
d="M504 238q-63 -95 -178 -111v-127h-71v128q-91 13 -151.5 82.5t-60.5 162.5t60.5 162t151.5 82v123h71v-122q114 -14 175 -109l-67 -39q-50 74 -142 74q-72 0 -120 -49.5t-48 -121.5t48 -122t120 -50q95 0 145 77z" />
    <glyph glyph-name="sterling" unicode="&#xa3;" horiz-adv-x="593" 
d="M255 270q0 -104 -99 -189h389v-81h-505v71q69 49 99 93.5t30 102.5q0 20 -3 38h-112v74h91q-3 7 -12 30t-13 33.5t-9.5 30t-8 37t-2.5 35.5q0 92 62 150t161 58q95 0 156 -57t74 -159h-82q-10 65 -49 101.5t-100 36.5t-98.5 -36.5t-37.5 -96.5q0 -20 5 -43t10 -37.5
t16 -43.5t15 -39h229v-74h-209q3 -17 3 -35z" />
    <glyph glyph-name="currency" unicode="&#xa4;" horiz-adv-x="655" 
d="M556 357q0 -78 -45 -139l83 -83l-48 -48l-81 82q-63 -49 -145 -49q-74 0 -135 43l-77 -76l-48 48l76 76q-50 63 -50 146q0 80 47 143l-73 73l48 49l74 -74q61 45 138 45q83 0 147 -51l79 80l48 -49l-80 -80q42 -61 42 -136zM320 196q67 0 111 47t44 114q0 66 -44 112.5
t-111 46.5q-66 0 -109.5 -46.5t-43.5 -112.5t43.5 -113.5t109.5 -47.5z" />
    <glyph glyph-name="yen" unicode="&#xa5;" horiz-adv-x="691" 
d="M662 740l-218 -325h154v-63h-196l-14 -21v-79h210v-64h-210v-188h-85v188h-219v64h219v79l-14 21h-205v63h163l-217 325h99l217 -328l217 328h99z" />
    <glyph glyph-name="brokenbar" unicode="&#xa6;" horiz-adv-x="263" 
d="M90 740h83v-350h-83v350zM90 210h83v-350h-83v350z" />
    <glyph glyph-name="section" unicode="&#xa7;" horiz-adv-x="555" 
d="M505 266q0 -98 -90 -146q68 -47 68 -127q0 -73 -54 -120.5t-144 -47.5q-103 0 -162 58.5t-59 147.5h82q0 -55 37 -90.5t99 -35.5q58 0 88.5 24t30.5 67q0 34 -21 59.5t-73 50.5l-141 66q-119 55 -119 164q0 99 92 147q-44 36 -44 108q0 68 51 113.5t134 45.5
q89 0 145 -50t56 -131h-81q-3 51 -35 76t-82 25q-51 0 -79.5 -22.5t-28.5 -62.5q0 -56 61 -86l156 -74q58 -28 85.5 -65.5t27.5 -93.5zM423 262q0 63 -59 91l-174 83q-61 -35 -61 -96q0 -66 67 -97l165 -77q62 30 62 96z" />
    <glyph glyph-name="dieresis" unicode="&#xa8;" horiz-adv-x="440" 
d="M119 578q-24 0 -40 16t-16 40q0 23 16 39t40 16t40 -16t16 -39q0 -24 -16 -40t-40 -16zM321 578q-24 0 -40 16t-16 40q0 23 16 39t40 16q23 0 39 -16t16 -39q0 -24 -16 -40t-39 -16z" />
    <glyph glyph-name="copyright" unicode="&#xa9;" horiz-adv-x="856" 
d="M428 -13q-161 0 -271.5 110.5t-110.5 271.5q0 160 109.5 272t272.5 112t272.5 -112t109.5 -272q0 -161 -110.5 -271.5t-271.5 -110.5zM428 46q137 0 228.5 93.5t91.5 228.5t-91 230.5t-229 95.5t-229.5 -95.5t-91.5 -230.5t92 -228.5t229 -93.5zM432 147
q-95 0 -160.5 65.5t-65.5 158.5t65.5 157.5t160.5 64.5q122 0 188 -98l-52 -35q-48 70 -134 70q-67 0 -112.5 -46.5t-45.5 -112.5q0 -67 45.5 -113.5t112.5 -46.5q88 0 137 73l51 -36q-32 -48 -81.5 -74.5t-108.5 -26.5z" />
    <glyph glyph-name="ordfeminine" unicode="&#xaa;" horiz-adv-x="455" 
d="M327 456q-38 -58 -118 -58q-74 0 -122.5 49.5t-48.5 120.5t48.5 121t122.5 50q80 0 118 -58v51h62v-325h-62v49zM213 458q49 0 79.5 32t30.5 78q0 50 -30 80.5t-81 30.5q-49 0 -78 -31.5t-29 -79.5q0 -47 29.5 -78.5t78.5 -31.5z" />
    <glyph glyph-name="guillemotleft" unicode="&#xab;" horiz-adv-x="491" 
d="M41 242l127 187h86l-124 -187l126 -189h-88zM228 242l127 187h86l-124 -187l126 -189h-88z" />
    <glyph glyph-name="logicalnot" unicode="&#xac;" horiz-adv-x="668" 
d="M595 385v-269h-79v191h-453v78h532z" />
    <glyph glyph-name="uni00AD" unicode="&#xad;" horiz-adv-x="411" 
d="M61 310h289v-77h-289v77z" />
    <glyph glyph-name="registered" unicode="&#xae;" horiz-adv-x="856" 
d="M428 753q163 0 272.5 -112t109.5 -272q0 -161 -110.5 -271.5t-271.5 -110.5t-271.5 110.5t-110.5 271.5q0 160 109.5 272t272.5 112zM428 46q137 0 228.5 93.5t91.5 228.5t-91 230.5t-229 95.5t-229.5 -95.5t-91.5 -230.5t92 -228.5t229 -93.5zM596 460q0 -93 -92 -119
l102 -178h-72l-95 171h-82v-171h-68v422h156q73 0 112 -33.5t39 -91.5zM357 524v-135h86q84 0 84 67q0 68 -84 68h-86z" />
    <glyph glyph-name="macron" unicode="&#xaf;" horiz-adv-x="439" 
d="M60 670h319v-73h-319v73z" />
    <glyph glyph-name="degree" unicode="&#xb0;" horiz-adv-x="376" 
d="M338 600q0 -62 -44 -106t-106 -44t-106 44t-44 106t44 106t106 44t106 -44t44 -106zM280 600q0 39 -27 66t-65 27t-65 -27t-27 -66t27 -66t65 -27t65 27t27 66z" />
    <glyph glyph-name="plusminus" unicode="&#xb1;" horiz-adv-x="668" 
d="M293 375h-225v77h225v205h80v-205h227v-77h-227v-205h-80v205zM68 112h532v-77h-532v77z" />
    <glyph glyph-name="uni00B2" unicode="&#xb2;" horiz-adv-x="410" 
d="M56 350l166 157q60 57 60 108q0 31 -19.5 53t-57.5 22q-39 0 -61 -24t-23 -63h-64q0 65 41.5 104.5t108.5 39.5q64 0 103 -36.5t39 -92.5q0 -72 -80 -148l-122 -116h202v-58h-293v54z" />
    <glyph glyph-name="uni00B3" unicode="&#xb3;" horiz-adv-x="392" 
d="M194 284q-71 0 -114 42.5t-44 112.5h63q0 -43 25.5 -68.5t67.5 -25.5q39 0 62 22t23 59t-24.5 58.5t-66.5 21.5h-14v55h14q35 0 57.5 19.5t22.5 49.5q0 27 -18.5 44t-47.5 17q-31 0 -49 -18t-19 -48h-64q0 55 37 88.5t97 33.5q58 0 94.5 -31.5t36.5 -80.5
q0 -35 -20.5 -63t-54.5 -39q41 -11 64 -41.5t23 -72.5q0 -58 -43 -96.5t-108 -38.5z" />
    <glyph glyph-name="acute" unicode="&#xb4;" horiz-adv-x="371" 
d="M59 605l219 117l33 -69l-221 -112z" />
    <glyph glyph-name="paragraph" unicode="&#xb6;" horiz-adv-x="699" 
d="M478 673h-129v-866h-72v463q-114 11 -180.5 74.5t-66.5 159.5q0 97 66.5 166.5t188.5 69.5h379v-67h-114v-866h-72v866zM277 674q-89 0 -133.5 -49t-44.5 -116t44.5 -117.5t133.5 -56.5v339z" />
    <glyph glyph-name="periodcentered" unicode="&#xb7;" horiz-adv-x="219" 
d="M110 201q-23 0 -38.5 15t-15.5 39q0 23 15.5 38t38.5 15q22 0 37.5 -15t15.5 -38q0 -24 -15 -39t-38 -15z" />
    <glyph glyph-name="cedilla" unicode="&#xb8;" horiz-adv-x="339" 
d="M163 -248q-64 0 -103 45l38 42q20 -33 62 -33q55 0 55 46q0 21 -14 34.5t-38 13.5h-69l39 112h56l-22 -61h15q42 0 69.5 -27t27.5 -70q0 -44 -31.5 -73t-84.5 -29z" />
    <glyph glyph-name="uni00B9" unicode="&#xb9;" horiz-adv-x="245" 
d="M111 681h-95v59h160v-444h-65v385z" />
    <glyph glyph-name="ordmasculine" unicode="&#xba;" horiz-adv-x="424" 
d="M386 570q0 -71 -50.5 -121t-123.5 -50q-72 0 -123 49t-51 120t50.5 122t123.5 51q72 0 123 -49.5t51 -121.5zM213 462q46 0 76 31.5t30 76.5t-30.5 76.5t-76.5 31.5q-47 0 -77.5 -31.5t-30.5 -77.5q0 -45 31 -76t78 -31z" />
    <glyph glyph-name="guillemotright" unicode="&#xbb;" horiz-adv-x="491" 
d="M174 242l-124 187h86l127 -187l-127 -189h-88zM361 242l-124 187h86l127 -187l-127 -189h-88z" />
    <glyph glyph-name="onequarter" unicode="&#xbc;" horiz-adv-x="744" 
d="M125 681h-95v59h160v-444h-65v385zM529 740h66l-406 -740h-66zM583 75h-216v52l208 307h70v-302h58v-57h-58v-75h-62v75zM438 132h145v220z" />
    <glyph glyph-name="onehalf" unicode="&#xbd;" horiz-adv-x="805" 
d="M125 681h-95v59h160v-444h-65v385zM526 740h67l-406 -740h-67zM467 54l165 157q61 57 61 108q0 31 -19.5 53t-57.5 22q-40 0 -62 -24t-22 -63h-65q0 65 41.5 104.5t109.5 39.5q64 0 103 -36.5t39 -92.5q0 -72 -80 -148l-123 -116h202v-58h-292v54z" />
    <glyph glyph-name="threequarters" unicode="&#xbe;" horiz-adv-x="844" 
d="M191 284q-71 0 -114 42.5t-44 112.5h63q0 -43 25.5 -68.5t66.5 -25.5q40 0 63 22t23 59t-24.5 58.5t-66.5 21.5h-14v55h14q35 0 57.5 19.5t22.5 49.5q0 27 -18.5 44t-47.5 17q-31 0 -49.5 -18t-18.5 -48h-64q0 55 37 88.5t97 33.5q58 0 94 -31t36 -81q0 -36 -20 -63.5
t-54 -38.5q41 -11 64 -41.5t23 -72.5q0 -58 -43 -96.5t-108 -38.5zM632 740h67l-406 -740h-67zM689 75h-216v52l208 307h70v-302h58v-57h-58v-75h-62v75zM544 132h145v220z" />
    <glyph glyph-name="questiondown" unicode="&#xbf;" horiz-adv-x="493" 
d="M295 446q-23 0 -38.5 15.5t-15.5 37.5q0 23 15.5 38.5t38.5 15.5t38.5 -15.5t15.5 -38.5q0 -22 -15.5 -37.5t-38.5 -15.5zM242 -205q-94 0 -150.5 53.5t-56.5 141.5q0 46 16 81t40 54.5t52 38.5t52 34t40 40t16 57v52h86v-57q0 -51 -22.5 -87t-54.5 -56t-63.5 -38.5
t-54 -47t-22.5 -69.5q0 -53 34.5 -85.5t91.5 -32.5q61 0 98 39.5t37 104.5h79q0 -99 -61 -161t-157 -62z" />
    <glyph glyph-name="Agrave" unicode="&#xc0;" horiz-adv-x="715" 
d="M480 878l-31 -63l-221 111l33 70zM614 0l-75 189h-363l-75 -189h-91l302 740h91l303 -740h-92zM358 636l-149 -366h297z" />
    <glyph glyph-name="Aacute" unicode="&#xc1;" horiz-adv-x="715" 
d="M480 926l-221 -111l-31 63l219 118zM614 0l-75 189h-363l-75 -189h-91l302 740h91l303 -740h-92zM358 636l-149 -366h297z" />
    <glyph glyph-name="Acircumflex" unicode="&#xc2;" horiz-adv-x="715" 
d="M355 914l-138 -99l-39 57l163 124h27l163 -124l-39 -57zM614 0l-75 189h-363l-75 -189h-91l302 740h91l303 -740h-92zM358 636l-149 -366h297z" />
    <glyph glyph-name="Atilde" unicode="&#xc3;" horiz-adv-x="715" 
d="M283 901q-48 0 -48 -52h-62q0 55 28 87.5t78 32.5q37 0 83 -27t65 -27q47 0 47 51h62q0 -54 -28 -86.5t-76 -32.5q-38 0 -84.5 27t-64.5 27zM614 0l-75 189h-363l-75 -189h-91l302 740h91l303 -740h-92zM358 636l-149 -366h297z" />
    <glyph glyph-name="Adieresis" unicode="&#xc4;" horiz-adv-x="715" 
d="M247 846q-25 0 -42.5 17.5t-17.5 43.5q0 25 17.5 42.5t42.5 17.5q26 0 44 -17.5t18 -42.5q0 -26 -18 -43.5t-44 -17.5zM460 846q-26 0 -43.5 18t-17.5 43t17.5 42.5t43.5 17.5t44 -17.5t18 -42.5q0 -26 -18 -43.5t-44 -17.5zM614 0l-75 189h-363l-75 -189h-91l302 740h91
l303 -740h-92zM358 636l-149 -366h297z" />
    <glyph glyph-name="Aring" unicode="&#xc5;" horiz-adv-x="715" 
d="M354 781q-48 0 -80 31t-32 76t32 76.5t80 31.5q49 0 80.5 -31.5t31.5 -76.5t-31.5 -76t-80.5 -31zM354 943q-24 0 -39.5 -16t-15.5 -39q0 -22 15.5 -38t39.5 -16q25 0 40.5 16t15.5 38q0 23 -15.5 39t-40.5 16zM614 0l-75 189h-363l-75 -189h-91l302 740h91l303 -740h-92
zM358 636l-149 -366h297z" />
    <glyph glyph-name="AE" unicode="&#xc6;" horiz-adv-x="974" 
d="M931 658h-350v-231h292v-82h-292v-263h350v-82h-435v193h-292l-120 -193h-96l461 740h482v-82zM254 274h242v392z" />
    <glyph glyph-name="Ccedilla" unicode="&#xc7;" horiz-adv-x="723" 
d="M429 -13h-6l-13 -36h16q42 0 69.5 -27t27.5 -70q0 -44 -32 -73t-85 -29q-64 0 -102 45l37 42q20 -33 63 -33q55 0 55 46q0 22 -14 35t-39 13h-69l32 91q-141 21 -233.5 127.5t-92.5 250.5q0 159 111.5 271.5t274.5 112.5t277 -117l-57 -58q-87 96 -220 96
q-127 0 -213.5 -90.5t-86.5 -215.5q0 -124 87 -213t213 -89q124 0 214 88l53 -59q-113 -108 -267 -108z" />
    <glyph glyph-name="Egrave" unicode="&#xc8;" horiz-adv-x="574" 
d="M195 926l33 70l219 -118l-31 -63zM95 0v740h436v-82h-351v-231h293v-82h-293v-263h351v-82h-436z" />
    <glyph glyph-name="Eacute" unicode="&#xc9;" horiz-adv-x="574" 
d="M226 815l-31 63l218 118l34 -70zM95 0v740h436v-82h-351v-231h293v-82h-293v-263h351v-82h-436z" />
    <glyph glyph-name="Ecircumflex" unicode="&#xca;" horiz-adv-x="574" 
d="M321 914l-137 -99l-40 57l164 124h26l164 -124l-40 -57zM531 658h-351v-231h293v-82h-293v-263h351v-82h-436v740h436v-82z" />
    <glyph glyph-name="Edieresis" unicode="&#xcb;" horiz-adv-x="574" 
d="M214 846q-26 0 -43.5 18t-17.5 43t17.5 42.5t43.5 17.5t44 -17.5t18 -42.5q0 -26 -18 -43.5t-44 -17.5zM427 846q-25 0 -43 18t-18 43t17.5 42.5t43.5 17.5t43.5 -17t17.5 -43t-17.5 -43.5t-43.5 -17.5zM95 0v740h436v-82h-351v-231h293v-82h-293v-263h351v-82h-436z" />
    <glyph glyph-name="Igrave" unicode="&#xcc;" horiz-adv-x="277" 
d="M12 926l34 70l218 -118l-31 -63zM97 0v740h85v-740h-85z" />
    <glyph glyph-name="Iacute" unicode="&#xcd;" horiz-adv-x="277" 
d="M43 815l-31 63l219 118l33 -70zM97 0v740h85v-740h-85z" />
    <glyph glyph-name="Icircumflex" unicode="&#xce;" horiz-adv-x="276" 
d="M151 996l164 -124l-40 -57l-137 99l-137 -99l-40 57l164 124h26zM96 0v740h86v-740h-86z" />
    <glyph glyph-name="Idieresis" unicode="&#xcf;" horiz-adv-x="280" 
d="M33 846q-26 0 -43.5 17.5t-17.5 43.5t17.5 43t43.5 17t43.5 -17t17.5 -43t-17.5 -43.5t-43.5 -17.5zM246 846q-26 0 -43.5 17.5t-17.5 43.5t17.5 43t43.5 17t43.5 -17.5t17.5 -42.5t-17.5 -43t-43.5 -18zM98 0v740h85v-740h-85z" />
    <glyph glyph-name="Eth" unicode="&#xd0;" horiz-adv-x="750" 
d="M309 740q176 0 286.5 -100t110.5 -270t-110.5 -270t-286.5 -100h-204v336h-88v73h88v331h204zM308 82q137 0 224.5 74.5t87.5 213.5t-87.5 213.5t-224.5 74.5h-118v-249h192v-73h-192v-254h118z" />
    <glyph glyph-name="Ntilde" unicode="&#xd1;" horiz-adv-x="830" 
d="M367 901q-48 0 -48 -52h-62q0 55 28 87.5t78 32.5q36 0 83 -27t66 -27q46 0 46 51h62q0 -54 -28 -86.5t-76 -32.5q-38 0 -84.5 27t-64.5 27zM650 740h84v-740h-92l-462 634v-634h-85v740h111l444 -608v608z" />
    <glyph glyph-name="Ograve" unicode="&#xd2;" horiz-adv-x="859" 
d="M300 926l33 70l219 -118l-31 -63zM429 -13q-161 0 -273.5 111t-112.5 271q0 159 111.5 271.5t274.5 112.5q164 0 275.5 -112t111.5 -272t-112.5 -271t-274.5 -111zM429 66q127 0 214 89t87 213q0 125 -86.5 215.5t-214.5 90.5q-127 0 -213.5 -90.5t-86.5 -215.5
q0 -124 87 -213t213 -89z" />
    <glyph glyph-name="Oacute" unicode="&#xd3;" horiz-adv-x="859" 
d="M331 815l-31 63l218 118l34 -70zM429 -13q-161 0 -273.5 111t-112.5 271q0 159 111.5 271.5t274.5 112.5q164 0 275.5 -112t111.5 -272t-112.5 -271t-274.5 -111zM429 66q127 0 214 89t87 213q0 125 -86.5 215.5t-214.5 90.5q-127 0 -213.5 -90.5t-86.5 -215.5
q0 -124 87 -213t213 -89z" />
    <glyph glyph-name="Ocircumflex" unicode="&#xd4;" horiz-adv-x="859" 
d="M426 914l-137 -99l-40 57l164 124h26l164 -124l-40 -57zM429 753q164 0 275.5 -112t111.5 -272t-112.5 -271t-274.5 -111q-161 0 -273.5 111t-112.5 271q0 159 111.5 271.5t274.5 112.5zM429 66q127 0 214 89t87 213q0 125 -86.5 215.5t-214.5 90.5q-127 0 -213.5 -90.5
t-86.5 -215.5q0 -124 87 -213t213 -89z" />
    <glyph glyph-name="Otilde" unicode="&#xd5;" horiz-adv-x="859" 
d="M245 849q0 55 28 87.5t78 32.5q37 0 83 -27t65 -27q47 0 47 51h62q0 -54 -28 -86.5t-76 -32.5q-38 0 -84.5 27t-64.5 27q-49 0 -49 -52h-61zM429 -13q-161 0 -273.5 111t-112.5 271q0 159 111.5 271.5t274.5 112.5q164 0 275.5 -112t111.5 -272t-112.5 -271t-274.5 -111z
M429 66q127 0 214 89t87 213q0 125 -86.5 215.5t-214.5 90.5q-127 0 -213.5 -90.5t-86.5 -215.5q0 -124 87 -213t213 -89z" />
    <glyph glyph-name="Odieresis" unicode="&#xd6;" horiz-adv-x="859" 
d="M319 846q-25 0 -43 18t-18 43t17.5 42.5t43.5 17.5t44 -17.5t18 -42.5q0 -26 -18 -43.5t-44 -17.5zM532 846q-26 0 -43.5 18t-17.5 43t17.5 42.5t43.5 17.5t43.5 -17t17.5 -43t-17.5 -43.5t-43.5 -17.5zM429 -13q-161 0 -273.5 111t-112.5 271q0 159 111.5 271.5
t274.5 112.5q164 0 275.5 -112t111.5 -272t-112.5 -271t-274.5 -111zM429 66q127 0 214 89t87 213q0 125 -86.5 215.5t-214.5 90.5q-127 0 -213.5 -90.5t-86.5 -215.5q0 -124 87 -213t213 -89z" />
    <glyph glyph-name="multiply" unicode="&#xd7;" horiz-adv-x="661" 
d="M100 170l176 176l-176 175l55 55l175 -176l176 176l55 -54l-176 -176l175 -175l-54 -55l-176 176l-176 -176z" />
    <glyph glyph-name="Oslash" unicode="&#xd8;" horiz-adv-x="877" 
d="M741 615q88 -107 88 -246q0 -160 -112.5 -271t-274.5 -111q-138 0 -244 85l-83 -83l-57 58l82 82q-84 103 -84 240q0 160 111 272t275 112q136 0 241 -81l79 79l57 -58zM142 368q0 -101 58 -179l424 424q-80 61 -182 61q-128 0 -214 -90.5t-86 -215.5zM442 66
q127 0 213.5 89t86.5 213q0 103 -62 186l-424 -424q82 -64 186 -64z" />
    <glyph glyph-name="Ugrave" unicode="&#xd9;" horiz-adv-x="767" 
d="M267 926l33 70l219 -118l-31 -63zM384 -13q-141 0 -220.5 87t-79.5 258v408h85v-384q0 -149 52.5 -219.5t162.5 -70.5q109 0 162 70.5t53 219.5v384h85v-408q0 -170 -80 -257.5t-220 -87.5z" />
    <glyph glyph-name="Uacute" unicode="&#xda;" horiz-adv-x="767" 
d="M298 815l-31 63l219 118l33 -70zM384 -13q-141 0 -220.5 87t-79.5 258v408h85v-384q0 -149 52.5 -219.5t162.5 -70.5q109 0 162 70.5t53 219.5v384h85v-408q0 -170 -80 -257.5t-220 -87.5z" />
    <glyph glyph-name="Ucircumflex" unicode="&#xdb;" horiz-adv-x="767" 
d="M394 914l-138 -99l-40 57l164 124h26l164 -124l-39 -57zM599 740h85v-408q0 -170 -80 -257.5t-220 -87.5q-141 0 -220.5 87t-79.5 258v408h85v-384q0 -149 52.5 -219.5t162.5 -70.5q109 0 162 70.5t53 219.5v384z" />
    <glyph glyph-name="Udieresis" unicode="&#xdc;" horiz-adv-x="767" 
d="M286 846q-26 0 -43.5 18t-17.5 43t17.5 42.5t43.5 17.5t44 -17.5t18 -42.5q0 -26 -18 -43.5t-44 -17.5zM499 846q-25 0 -43 18t-18 43t17.5 42.5t43.5 17.5t44 -17.5t18 -42.5q0 -26 -18 -43.5t-44 -17.5zM384 -13q-141 0 -220.5 87t-79.5 258v408h85v-384
q0 -149 52.5 -219.5t162.5 -70.5q109 0 162 70.5t53 219.5v384h85v-408q0 -170 -80 -257.5t-220 -87.5z" />
    <glyph glyph-name="Yacute" unicode="&#xdd;" horiz-adv-x="669" 
d="M456 926l-221 -111l-31 63l218 118zM552 740h99l-274 -409v-331h-85v331l-273 409h99l217 -328z" />
    <glyph glyph-name="Thorn" unicode="&#xde;" horiz-adv-x="627" 
d="M309 608q138 0 208 -63t70 -172q0 -108 -70.5 -171.5t-207.5 -63.5h-129v-138h-85v740h85v-132h129zM309 220q96 0 144.5 40.5t48.5 112.5t-48.5 112.5t-144.5 40.5h-129v-306h129z" />
    <glyph glyph-name="germandbls" unicode="&#xdf;" horiz-adv-x="565" 
d="M384 403q69 -20 106.5 -69.5t37.5 -124.5q0 -106 -73.5 -157.5t-208.5 -51.5h-18v76h28q192 0 192 144q0 69 -44.5 106.5t-117.5 37.5h-58v73h48q64 0 97.5 33t33.5 84q0 55 -31.5 88t-88.5 33q-64 0 -99 -38t-35 -103v-534h-80v533q0 98 56.5 157.5t157.5 59.5
q90 0 144.5 -51t54.5 -136q0 -53 -27.5 -96.5t-74.5 -63.5z" />
    <glyph glyph-name="agrave" unicode="&#xe0;" horiz-adv-x="607" 
d="M429 604l-31 -63l-221 111l33 69zM454 475h80v-475h-80v68q-69 -77 -173 -77q-99 0 -171.5 72t-72.5 175t72.5 174.5t171.5 71.5q104 0 173 -77v68zM285 66q71 0 120 50t49 122q0 71 -49 121t-120 50q-68 0 -117 -50t-49 -121t49 -121.5t117 -50.5z" />
    <glyph glyph-name="aacute" unicode="&#xe1;" horiz-adv-x="607" 
d="M428 653l-221 -112l-31 64l219 117zM454 475h80v-475h-80v68q-69 -77 -173 -77q-99 0 -171.5 72t-72.5 175t72.5 174.5t171.5 71.5q104 0 173 -77v68zM285 66q71 0 120 50t49 122q0 71 -49 121t-120 50q-68 0 -117 -50t-49 -121t49 -121.5t117 -50.5z" />
    <glyph glyph-name="acircumflex" unicode="&#xe2;" horiz-adv-x="607" 
d="M303 641l-137 -100l-40 58l164 123h26l164 -123l-40 -58zM454 475h80v-475h-80v68q-69 -77 -173 -77q-99 0 -171.5 72t-72.5 175t72.5 174.5t171.5 71.5q104 0 173 -77v68zM285 66q71 0 120 50t49 122q0 71 -49 121t-120 50q-68 0 -117 -50t-49 -121t49 -121.5t117 -50.5
z" />
    <glyph glyph-name="atilde" unicode="&#xe3;" horiz-adv-x="607" 
d="M231 626q-48 0 -48 -52h-62q0 55 28 87t79 32q36 0 82.5 -27t65.5 -27q47 0 47 52h61q0 -54 -28 -86.5t-76 -32.5q-38 0 -84.5 27t-64.5 27zM454 475h80v-475h-80v68q-69 -77 -173 -77q-99 0 -171.5 72t-72.5 175t72.5 174.5t171.5 71.5q104 0 173 -77v68zM285 66
q71 0 120 50t49 122q0 71 -49 121t-120 50q-68 0 -117 -50t-49 -121t49 -121.5t117 -50.5z" />
    <glyph glyph-name="adieresis" unicode="&#xe4;" horiz-adv-x="607" 
d="M199 578q-23 0 -39 16t-16 40q0 23 16 39t39 16q24 0 40 -16t16 -39q0 -24 -16 -40t-40 -16zM401 578q-23 0 -39 16t-16 40q0 23 16 39t39 16q24 0 40 -16t16 -39q0 -24 -16 -40t-40 -16zM454 475h80v-475h-80v68q-69 -77 -173 -77q-99 0 -171.5 72t-72.5 175t72.5 174.5
t171.5 71.5q104 0 173 -77v68zM285 66q71 0 120 50t49 122q0 71 -49 121t-120 50q-68 0 -117 -50t-49 -121t49 -121.5t117 -50.5z" />
    <glyph glyph-name="aring" unicode="&#xe5;" horiz-adv-x="607" 
d="M288 507q-49 0 -80.5 31t-31.5 77q0 45 31.5 76t80.5 31q48 0 80 -31t32 -76t-32 -76.5t-80 -31.5zM288 669q-25 0 -40.5 -16t-15.5 -39q0 -22 15.5 -38t40.5 -16q24 0 39.5 16t15.5 38q0 23 -15.5 39t-39.5 16zM454 475h80v-475h-80v68q-69 -77 -173 -77
q-99 0 -171.5 72t-72.5 175t72.5 174.5t171.5 71.5q104 0 173 -77v68zM285 66q71 0 120 50t49 122q0 71 -49 121t-120 50q-68 0 -117 -50t-49 -121t49 -121.5t117 -50.5z" />
    <glyph glyph-name="ae" unicode="&#xe6;" horiz-adv-x="971" 
d="M697 484q103 0 172 -71t69 -176q0 -3 -0.5 -12t-0.5 -14h-401q8 -66 54.5 -108t115.5 -42q96 0 145 68l56 -43q-71 -97 -199 -97q-111 0 -182 74v-63h-72v68q-69 -77 -173 -77q-99 0 -171.5 72t-72.5 175t72.5 174.5t171.5 71.5q104 0 173 -77v68h72v-65q69 74 171 74z
M537 273h321q-8 62 -52 100t-107 38q-61 0 -106 -38t-56 -100zM285 66q71 0 120 50t49 122q0 71 -49 121t-120 50q-68 0 -117 -50t-49 -121t49 -121.5t117 -50.5z" />
    <glyph glyph-name="ccedilla" unicode="&#xe7;" horiz-adv-x="522" 
d="M498 102q-34 -53 -88.5 -82.5t-118.5 -30.5l-14 -38h15q42 0 70 -27.5t28 -69.5q0 -44 -32 -73t-85 -29q-64 0 -103 45l38 42q20 -33 63 -33q54 0 54 46q0 21 -14 34.5t-38 13.5h-69l33 94q-87 17 -143.5 85t-56.5 157q0 103 73 175.5t177 72.5q65 0 119.5 -29t89.5 -82
l-67 -39q-50 74 -142 74q-72 0 -120 -50t-48 -122t48 -121.5t120 -49.5q93 0 145 77z" />
    <glyph glyph-name="egrave" unicode="&#xe8;" horiz-adv-x="551" 
d="M409 604l-31 -63l-221 111l34 69zM278 484q105 0 172.5 -70.5t67.5 -176.5q0 -17 -1 -26h-400q8 -66 54.5 -108t115.5 -42q95 0 145 68l55 -43q-70 -97 -198 -97q-112 0 -182 73t-70 176q0 101 69.5 173.5t171.5 72.5zM118 273h320q-8 63 -50.5 100.5t-108.5 37.5
q-61 0 -106 -38t-55 -100z" />
    <glyph glyph-name="eacute" unicode="&#xe9;" horiz-adv-x="551" 
d="M409 653l-221 -112l-31 64l218 117zM278 484q105 0 172.5 -70.5t67.5 -176.5q0 -17 -1 -26h-400q8 -66 54.5 -108t115.5 -42q95 0 145 68l55 -43q-70 -97 -198 -97q-112 0 -182 73t-70 176q0 101 69.5 173.5t171.5 72.5zM118 273h320q-8 63 -50.5 100.5t-108.5 37.5
q-61 0 -106 -38t-55 -100z" />
    <glyph glyph-name="ecircumflex" unicode="&#xea;" horiz-adv-x="551" 
d="M284 641l-138 -100l-39 58l163 123h27l163 -123l-39 -58zM278 484q105 0 172.5 -70.5t67.5 -176.5q0 -17 -1 -26h-400q8 -66 54.5 -108t115.5 -42q95 0 145 68l55 -43q-70 -97 -198 -97q-112 0 -182 73t-70 176q0 101 69.5 173.5t171.5 72.5zM118 273h320
q-8 63 -50.5 100.5t-108.5 37.5q-61 0 -106 -38t-55 -100z" />
    <glyph glyph-name="edieresis" unicode="&#xeb;" horiz-adv-x="551" 
d="M180 578q-23 0 -39 16t-16 40q0 23 16 39t39 16q24 0 40 -16t16 -39q0 -24 -16 -40t-40 -16zM382 578q-23 0 -39 16t-16 40q0 23 16 39t39 16q24 0 40 -16t16 -39q0 -24 -16 -40t-40 -16zM278 484q105 0 172.5 -70.5t67.5 -176.5q0 -17 -1 -26h-400q8 -66 54.5 -108
t115.5 -42q95 0 145 68l55 -43q-70 -97 -198 -97q-112 0 -182 73t-70 176q0 101 69.5 173.5t171.5 72.5zM118 273h320q-8 63 -50.5 100.5t-108.5 37.5q-61 0 -106 -38t-55 -100z" />
    <glyph glyph-name="igrave" unicode="&#xec;" horiz-adv-x="231" 
d="M-10 652l34 69l218 -117l-31 -63zM70 475h80v-475h-80v475z" />
    <glyph glyph-name="iacute" unicode="&#xed;" horiz-adv-x="230" 
d="M-11 605l219 117l33 -69l-221 -112zM69 475h80v-475h-80v475z" />
    <glyph glyph-name="icircumflex" unicode="&#xee;" horiz-adv-x="230" 
d="M129 722l164 -123l-40 -58l-137 100l-137 -100l-40 58l164 123h26zM69 0v475h80v-475h-80z" />
    <glyph glyph-name="idieresis" unicode="&#xef;" horiz-adv-x="224" 
d="M10 578q-24 0 -40 16t-16 40q0 23 16 39t40 16q23 0 39 -16t16 -39q0 -24 -16 -40t-39 -16zM212 578q-24 0 -40 16t-16 40q0 23 16 39t40 16q23 0 39 -16t16 -39q0 -24 -16 -40t-39 -16zM66 475h80v-475h-80v475z" />
    <glyph glyph-name="eth" unicode="&#xf0;" horiz-adv-x="574" 
d="M495 387q42 -74 42 -150q0 -102 -72.5 -175t-177.5 -73t-177.5 73t-72.5 175q0 101 71 173t172 72q45 0 83 -19l-65 112l-120 -32l-17 66l101 27l-60 104h91l47 -83l115 31l17 -66l-97 -26zM287 65q73 0 120.5 50.5t47.5 121.5t-47.5 121t-120.5 50t-120.5 -50
t-47.5 -121t47.5 -121.5t120.5 -50.5z" />
    <glyph glyph-name="ntilde" unicode="&#xf1;" horiz-adv-x="569" 
d="M231 626q-48 0 -48 -52h-62q0 55 28 87t78 32q37 0 83 -27t65 -27q47 0 47 52h62q0 -54 -28 -86.5t-76 -32.5q-38 0 -84.5 27t-64.5 27zM309 484q86 0 140 -52.5t54 -164.5v-267h-80v260q0 74 -34.5 111t-95.5 37q-140 0 -140 -162v-246h-80v475h80v-63q51 72 156 72z
" />
    <glyph glyph-name="ograve" unicode="&#xf2;" horiz-adv-x="574" 
d="M163 652l33 69l219 -117l-31 -63zM287 -11q-105 0 -177.5 73t-72.5 175t72 174.5t178 72.5t178 -72.5t72 -174.5t-72.5 -175t-177.5 -73zM287 65q73 0 120.5 50.5t47.5 121.5t-47.5 121t-120.5 50t-120.5 -50t-47.5 -121t47.5 -121.5t120.5 -50.5z" />
    <glyph glyph-name="oacute" unicode="&#xf3;" horiz-adv-x="574" 
d="M162 605l219 117l33 -69l-221 -112zM287 -11q-105 0 -177.5 73t-72.5 175t72 174.5t178 72.5t178 -72.5t72 -174.5t-72.5 -175t-177.5 -73zM287 65q73 0 120.5 50.5t47.5 121.5t-47.5 121t-120.5 50t-120.5 -50t-47.5 -121t47.5 -121.5t120.5 -50.5z" />
    <glyph glyph-name="ocircumflex" unicode="&#xf4;" horiz-adv-x="574" 
d="M289 641l-137 -100l-40 58l164 123h26l164 -123l-40 -58zM287 484q106 0 178 -72.5t72 -174.5t-72.5 -175t-177.5 -73t-177.5 73t-72.5 175t72 174.5t178 72.5zM287 65q73 0 120.5 50.5t47.5 121.5t-47.5 121t-120.5 50t-120.5 -50t-47.5 -121t47.5 -121.5t120.5 -50.5z
" />
    <glyph glyph-name="otilde" unicode="&#xf5;" horiz-adv-x="574" 
d="M107 574q0 55 28 87t79 32q36 0 82.5 -27t65.5 -27q47 0 47 52h61q0 -54 -28 -86.5t-76 -32.5q-38 0 -84.5 27t-64.5 27q-48 0 -48 -52h-62zM287 -11q-105 0 -177.5 73t-72.5 175t72 174.5t178 72.5t178 -72.5t72 -174.5t-72.5 -175t-177.5 -73zM287 65q73 0 120.5 50.5
t47.5 121.5t-47.5 121t-120.5 50t-120.5 -50t-47.5 -121t47.5 -121.5t120.5 -50.5z" />
    <glyph glyph-name="odieresis" unicode="&#xf6;" horiz-adv-x="574" 
d="M185 578q-23 0 -39 16t-16 40q0 23 16 39t39 16q24 0 40 -16t16 -39q0 -24 -16 -40t-40 -16zM387 578q-23 0 -39 16t-16 40q0 23 16 39t39 16q24 0 40 -16t16 -39q0 -24 -16 -40t-40 -16zM287 -11q-105 0 -177.5 73t-72.5 175t72 174.5t178 72.5t178 -72.5t72 -174.5
t-72.5 -175t-177.5 -73zM287 65q73 0 120.5 50.5t47.5 121.5t-47.5 121t-120.5 50t-120.5 -50t-47.5 -121t47.5 -121.5t120.5 -50.5z" />
    <glyph glyph-name="divide" unicode="&#xf7;" horiz-adv-x="668" 
d="M334 511q-23 0 -38 15.5t-15 38.5t15 38.5t38 15.5t38.5 -15.5t15.5 -38.5t-15.5 -38.5t-38.5 -15.5zM68 385h532v-78h-532v78zM334 73q-23 0 -38 15t-15 39q0 23 15.5 38t37.5 15q23 0 38.5 -15.5t15.5 -37.5q0 -24 -15.5 -39t-38.5 -15z" />
    <glyph glyph-name="oslash" unicode="&#xf8;" 
d="M560 449l-63 -63q50 -66 50 -149q0 -102 -72.5 -175t-177.5 -73q-83 0 -149 48l-62 -62l-50 51l62 62q-50 66 -50 149q0 102 72 174.5t177 72.5q83 0 149 -48l64 64zM129 237q0 -51 25 -93l237 237q-43 27 -94 27q-72 0 -120 -50.5t-48 -120.5zM466 237q0 51 -26 92
l-236 -236q40 -28 93 -28q73 0 121 50.5t48 121.5z" />
    <glyph glyph-name="ugrave" unicode="&#xf9;" horiz-adv-x="562" 
d="M160 652l33 69l219 -117l-31 -63zM281 -11q-97 0 -156.5 54t-59.5 161v271h80v-256q0 -154 136 -154t136 154v256h80v-271q0 -107 -59.5 -161t-156.5 -54z" />
    <glyph glyph-name="uacute" unicode="&#xfa;" horiz-adv-x="562" 
d="M159 605l219 117l33 -69l-221 -112zM281 -11q-97 0 -156.5 54t-59.5 161v271h80v-256q0 -154 136 -154t136 154v256h80v-271q0 -107 -59.5 -161t-156.5 -54z" />
    <glyph glyph-name="ucircumflex" unicode="&#xfb;" horiz-adv-x="562" 
d="M287 641l-138 -100l-40 58l164 123h26l164 -123l-39 -58zM417 475h80v-271q0 -107 -59.5 -161t-156.5 -54t-156.5 54t-59.5 161v271h80v-256q0 -154 136 -154t136 154v256z" />
    <glyph glyph-name="udieresis" unicode="&#xfc;" horiz-adv-x="562" 
d="M183 578q-24 0 -40 16t-16 40q0 23 16 39t40 16q23 0 39 -16t16 -39q0 -24 -16 -40t-39 -16zM384 578q-23 0 -39 16t-16 40q0 23 16 39t39 16q24 0 40 -16t16 -39q0 -24 -16 -40t-40 -16zM281 -11q-97 0 -156.5 54t-59.5 161v271h80v-256q0 -154 136 -154t136 154v256h80
v-271q0 -107 -59.5 -161t-156.5 -54z" />
    <glyph glyph-name="yacute" unicode="&#xfd;" horiz-adv-x="514" 
d="M383 653l-222 -112l-30 64l218 117zM413 475h87l-307 -728h-80l102 246l-202 482h87l156 -381z" />
    <glyph glyph-name="thorn" unicode="&#xfe;" horiz-adv-x="608" 
d="M326 484q99 0 171.5 -71.5t72.5 -174.5t-72.5 -175t-171.5 -72q-104 0 -173 77v-321h-80v993h80v-333q69 77 173 77zM322 66q68 0 117 50.5t49 121.5t-49 121t-117 50q-71 0 -120 -50t-49 -121q0 -72 49 -122t120 -50z" />
    <glyph glyph-name="ydieresis" unicode="&#xff;" horiz-adv-x="514" 
d="M154 578q-24 0 -40 16t-16 40q0 23 16 39t40 16t40 -16t16 -39q0 -24 -16 -40t-40 -16zM356 578q-24 0 -40 16t-16 40q0 23 16 39t40 16q23 0 39.5 -16t16.5 -39q0 -24 -16.5 -40t-39.5 -16zM413 475h87l-307 -728h-80l102 246l-202 482h87l156 -381z" />
    <glyph glyph-name="Amacron" unicode="&#x100;" horiz-adv-x="715" 
d="M514 942v-73h-319v73h319zM614 0l-75 189h-363l-75 -189h-91l302 740h91l303 -740h-92zM358 636l-149 -366h297z" />
    <glyph glyph-name="amacron" unicode="&#x101;" horiz-adv-x="607" 
d="M462 670v-73h-319v73h319zM454 475h80v-475h-80v68q-69 -77 -173 -77q-99 0 -171.5 72t-72.5 175t72.5 174.5t171.5 71.5q104 0 173 -77v68zM285 66q71 0 120 50t49 122q0 71 -49 121t-120 50q-68 0 -117 -50t-49 -121t49 -121.5t117 -50.5z" />
    <glyph glyph-name="Abreve" unicode="&#x102;" horiz-adv-x="715" 
d="M351 815q-73 0 -119.5 49t-46.5 126h68q0 -49 26.5 -76.5t71.5 -27.5t71.5 27.5t26.5 76.5h68q0 -77 -46.5 -126t-119.5 -49zM614 0l-75 189h-363l-75 -189h-91l302 740h91l303 -740h-92zM358 636l-149 -366h297z" />
    <glyph glyph-name="abreve" unicode="&#x103;" horiz-adv-x="607" 
d="M303 541q-73 0 -119.5 49t-46.5 126h68q0 -48 26.5 -76t71.5 -28t71 28t26 76h69q0 -77 -46.5 -126t-119.5 -49zM454 475h80v-475h-80v68q-69 -77 -173 -77q-99 0 -171.5 72t-72.5 175t72.5 174.5t171.5 71.5q104 0 173 -77v68zM285 66q71 0 120 50t49 122q0 71 -49 121
t-120 50q-68 0 -117 -50t-49 -121t49 -121.5t117 -50.5z" />
    <glyph glyph-name="Aogonek" unicode="&#x104;" horiz-adv-x="722" 
d="M636 -98q0 -47 46 -47q13 0 24 4v-56q-16 -6 -43 -6q-41 0 -66.5 22t-25.5 62q0 35 18.5 67.5t48.5 51.5h-24l-75 189h-363l-75 -189h-91l302 740h91l303 -740h-11q-59 -42 -59 -98zM358 636l-149 -366h297z" />
    <glyph glyph-name="aogonek" unicode="&#x105;" horiz-adv-x="609" 
d="M510 -145q13 0 25 4v-56q-18 -6 -43 -6q-41 0 -66.5 22t-25.5 62q0 35 18 67.5t48 51.5h-12v68q-69 -77 -173 -77q-99 0 -171.5 72t-72.5 175t72.5 174.5t171.5 71.5q104 0 173 -77v68h80v-475h-10q-59 -41 -59 -98q0 -47 45 -47zM285 66q71 0 120 50t49 122
q0 71 -49 121t-120 50q-68 0 -117 -50t-49 -121t49 -121.5t117 -50.5z" />
    <glyph glyph-name="Cacute" unicode="&#x106;" horiz-adv-x="723" 
d="M333 815l-31 63l219 118l33 -70zM429 -13q-161 0 -273.5 111t-112.5 271q0 159 111.5 271.5t274.5 112.5t277 -117l-57 -58q-87 96 -220 96q-127 0 -213.5 -90.5t-86.5 -215.5q0 -124 87 -213t213 -89q124 0 214 88l53 -59q-113 -108 -267 -108z" />
    <glyph glyph-name="cacute" unicode="&#x107;" horiz-adv-x="522" 
d="M161 605l218 117l34 -69l-222 -112zM287 -11q-104 0 -177 72t-73 175t73 175.5t177 72.5q65 0 119.5 -29t89.5 -82l-67 -39q-50 74 -142 74q-72 0 -120 -50t-48 -122t48 -121.5t120 -49.5q93 0 145 77l66 -40q-35 -53 -90 -83t-121 -30z" />
    <glyph glyph-name="Cdotaccent" unicode="&#x10a;" horiz-adv-x="723" 
d="M428 845q-27 0 -45 17.5t-18 44.5q0 26 18.5 44t44.5 18q27 0 45 -18t18 -44q0 -27 -18 -44.5t-45 -17.5zM429 -13q-161 0 -273.5 111t-112.5 271q0 159 111.5 271.5t274.5 112.5t277 -117l-57 -58q-87 96 -220 96q-127 0 -213.5 -90.5t-86.5 -215.5q0 -124 87 -213
t213 -89q124 0 214 88l53 -59q-113 -108 -267 -108z" />
    <glyph glyph-name="cdotaccent" unicode="&#x10b;" horiz-adv-x="522" 
d="M290 582q-23 0 -39 16t-16 40q0 23 16 38.5t39 15.5q22 0 38 -16t16 -38q0 -24 -15.5 -40t-38.5 -16zM287 -11q-104 0 -177 72t-73 175t73 175.5t177 72.5q65 0 119.5 -29t89.5 -82l-67 -39q-50 74 -142 74q-72 0 -120 -50t-48 -122t48 -121.5t120 -49.5q93 0 145 77
l66 -40q-35 -53 -90 -83t-121 -30z" />
    <glyph glyph-name="Ccaron" unicode="&#x10c;" horiz-adv-x="723" 
d="M442 815h-27l-163 123l39 58l138 -100l137 100l39 -58zM429 66q124 0 214 88l53 -59q-113 -108 -267 -108q-161 0 -273.5 111t-112.5 271q0 159 111.5 271.5t274.5 112.5t277 -117l-57 -58q-87 96 -220 96q-127 0 -213.5 -90.5t-86.5 -215.5q0 -124 87 -213t213 -89z" />
    <glyph glyph-name="ccaron" unicode="&#x10d;" horiz-adv-x="522" 
d="M301 541h-27l-163 123l39 58l138 -100l137 100l39 -58zM432 142l66 -40q-35 -53 -90 -83t-121 -30q-104 0 -177 72t-73 175t73 175.5t177 72.5q65 0 119.5 -29t89.5 -82l-67 -39q-50 74 -142 74q-72 0 -120 -50t-48 -122t48 -121.5t120 -49.5q93 0 145 77z" />
    <glyph glyph-name="Dcaron" unicode="&#x10e;" horiz-adv-x="741" 
d="M366 815h-27l-163 123l39 58l138 -100l137 100l39 -58zM299 740q176 0 286.5 -100t110.5 -270t-110.5 -270t-286.5 -100h-204v740h204zM298 82q137 0 225 74.5t88 213.5t-88 213.5t-225 74.5h-118v-576h118z" />
    <glyph glyph-name="dcaron" unicode="&#x10f;" horiz-adv-x="622" 
d="M454 407v333h80v-740h-80v68q-69 -77 -173 -77q-99 0 -171.5 72t-72.5 175t72.5 174.5t171.5 71.5q104 0 173 -77zM617 740h74l-35 -231h-69zM285 66q71 0 120 50t49 122q0 71 -49 121t-120 50q-68 0 -117 -50t-49 -121t49 -121.5t117 -50.5z" />
    <glyph glyph-name="Dcroat" unicode="&#x110;" horiz-adv-x="750" 
d="M309 740q176 0 286.5 -100t110.5 -270t-110.5 -270t-286.5 -100h-204v336h-88v73h88v331h204zM308 82q137 0 224.5 74.5t87.5 213.5t-87.5 213.5t-224.5 74.5h-118v-249h192v-73h-192v-254h118z" />
    <glyph glyph-name="dcroat" unicode="&#x111;" horiz-adv-x="617" 
d="M627 648v-73h-93v-575h-80v68q-69 -77 -173 -77q-99 0 -171.5 72t-72.5 175t72.5 174.5t171.5 71.5q104 0 173 -77v168h-192v73h192v92h80v-92h93zM285 66q71 0 120 50t49 122q0 71 -49 121t-120 50q-68 0 -117 -50t-49 -121t49 -121.5t117 -50.5z" />
    <glyph glyph-name="Emacron" unicode="&#x112;" horiz-adv-x="574" 
d="M162 942h319v-73h-319v73zM95 0v740h436v-82h-351v-231h293v-82h-293v-263h351v-82h-436z" />
    <glyph glyph-name="emacron" unicode="&#x113;" horiz-adv-x="551" 
d="M443 670v-73h-319v73h319zM278 484q105 0 172.5 -70.5t67.5 -176.5q0 -17 -1 -26h-400q8 -66 54.5 -108t115.5 -42q95 0 145 68l55 -43q-70 -97 -198 -97q-112 0 -182 73t-70 176q0 101 69.5 173.5t171.5 72.5zM118 273h320q-8 63 -50.5 100.5t-108.5 37.5
q-61 0 -106 -38t-55 -100z" />
    <glyph glyph-name="Edotaccent" unicode="&#x116;" horiz-adv-x="574" 
d="M321 845q-27 0 -45 17.5t-18 44.5q0 26 18 44t45 18t45 -18t18 -44q0 -27 -18 -44.5t-45 -17.5zM95 0v740h436v-82h-351v-231h293v-82h-293v-263h351v-82h-436z" />
    <glyph glyph-name="edotaccent" unicode="&#x117;" horiz-adv-x="551" 
d="M286 582q-23 0 -39 16t-16 40q0 23 16 38.5t39 15.5t39 -15.5t16 -38.5q0 -24 -16 -40t-39 -16zM278 484q105 0 172.5 -70.5t67.5 -176.5q0 -17 -1 -26h-400q8 -66 54.5 -108t115.5 -42q95 0 145 68l55 -43q-70 -97 -198 -97q-112 0 -182 73t-70 176q0 101 69.5 173.5
t171.5 72.5zM118 273h320q-8 63 -50.5 100.5t-108.5 37.5q-61 0 -106 -38t-55 -100z" />
    <glyph glyph-name="Eogonek" unicode="&#x118;" horiz-adv-x="574" 
d="M531 658h-351v-231h293v-82h-293v-263h351v-82h-13q-59 -42 -59 -98q0 -47 46 -47q13 0 24 4v-56q-18 -6 -43 -6q-41 0 -66.5 22t-25.5 62q0 35 18.5 67.5t48.5 51.5h-366v740h436v-82z" />
    <glyph glyph-name="eogonek" unicode="&#x119;" horiz-adv-x="551" 
d="M278 484q105 0 172.5 -70.5t67.5 -176.5q0 -17 -1 -26h-400q8 -66 54.5 -108t115.5 -42q95 0 145 68l55 -43q-41 -57 -108 -82q-58 -41 -58 -97q0 -46 45 -46q13 0 25 3v-55q-21 -7 -43 -7q-41 0 -66.5 22t-25.5 62q0 60 46 103h-13q-112 0 -182 73t-70 176
q0 101 69.5 173.5t171.5 72.5zM118 273h320q-8 63 -50.5 100.5t-108.5 37.5q-61 0 -106 -38t-55 -100z" />
    <glyph glyph-name="Ecaron" unicode="&#x11a;" horiz-adv-x="574" 
d="M334 815h-26l-164 123l40 58l137 -100l137 100l40 -58zM531 658h-351v-231h293v-82h-293v-263h351v-82h-436v740h436v-82z" />
    <glyph glyph-name="ecaron" unicode="&#x11b;" horiz-adv-x="551" 
d="M297 541h-27l-163 123l39 58l138 -100l137 100l39 -58zM278 484q105 0 172.5 -70.5t67.5 -176.5q0 -17 -1 -26h-400q8 -66 54.5 -108t115.5 -42q95 0 145 68l55 -43q-70 -97 -198 -97q-112 0 -182 73t-70 176q0 101 69.5 173.5t171.5 72.5zM118 273h320
q-8 63 -50.5 100.5t-108.5 37.5q-61 0 -106 -38t-55 -100z" />
    <glyph glyph-name="Gbreve" unicode="&#x11e;" horiz-adv-x="815" 
d="M424 815q-73 0 -119.5 49t-46.5 126h69q0 -48 26 -76t71 -28t71.5 27.5t26.5 76.5h69q0 -76 -47 -125.5t-120 -49.5zM430 -13q-166 0 -276.5 110t-110.5 271q0 160 111.5 272.5t274.5 112.5q170 0 284 -121l-53 -59q-88 101 -228 101q-130 0 -216.5 -90t-86.5 -216
q0 -127 85 -214.5t217 -87.5q118 0 189 71.5t71 191.5v4h-277v82h363v-58q0 -163 -92 -266.5t-255 -103.5z" />
    <glyph glyph-name="gbreve" unicode="&#x11f;" horiz-adv-x="606" 
d="M303 541q-73 0 -119.5 49t-46.5 126h68q0 -48 26.5 -76t71.5 -28t71 28t26 76h69q0 -77 -46.5 -126t-119.5 -49zM454 475h80v-473q0 -60 -14.5 -106.5t-38.5 -76t-56.5 -48.5t-66 -26.5t-69.5 -7.5q-75 0 -131.5 31.5t-88.5 87.5l72 32q50 -75 148 -75q76 0 120.5 44
t44.5 132v79q-69 -77 -173 -77q-99 0 -171.5 72t-72.5 175t72.5 174.5t171.5 71.5q104 0 173 -77v68zM285 66q71 0 120 50t49 122q0 71 -49 121t-120 50q-68 0 -117 -50t-49 -121t49 -121.5t117 -50.5z" />
    <glyph glyph-name="Gdotaccent" unicode="&#x120;" horiz-adv-x="815" 
d="M427 845q-26 0 -44 17.5t-18 44.5q0 26 18 44t44 18q27 0 45 -18t18 -44q0 -27 -18 -44.5t-45 -17.5zM430 -13q-166 0 -276.5 110t-110.5 271q0 160 111.5 272.5t274.5 112.5q170 0 284 -121l-53 -59q-88 101 -228 101q-130 0 -216.5 -90t-86.5 -216q0 -127 85 -214.5
t217 -87.5q118 0 189 71.5t71 191.5v4h-277v82h363v-58q0 -163 -92 -266.5t-255 -103.5z" />
    <glyph glyph-name="gdotaccent" unicode="&#x121;" horiz-adv-x="606" 
d="M305 582q-23 0 -39 16t-16 40q0 23 16 38.5t39 15.5t39 -15.5t16 -38.5q0 -24 -16 -40t-39 -16zM454 475h80v-473q0 -60 -14.5 -106.5t-38.5 -76t-56.5 -48.5t-66 -26.5t-69.5 -7.5q-75 0 -131.5 31.5t-88.5 87.5l72 32q50 -75 148 -75q76 0 120.5 44t44.5 132v79
q-69 -77 -173 -77q-99 0 -171.5 72t-72.5 175t72.5 174.5t171.5 71.5q104 0 173 -77v68zM285 66q71 0 120 50t49 122q0 71 -49 121t-120 50q-68 0 -117 -50t-49 -121t49 -121.5t117 -50.5z" />
    <glyph glyph-name="uni0122" unicode="&#x122;" horiz-adv-x="815" 
d="M430 -13q-166 0 -276.5 110t-110.5 271q0 160 111.5 272.5t274.5 112.5q170 0 284 -121l-53 -59q-88 101 -228 101q-130 0 -216.5 -90t-86.5 -216q0 -127 85 -214.5t217 -87.5q118 0 189 71.5t71 191.5v4h-277v82h363v-58q0 -163 -92 -266.5t-255 -103.5zM368 -227
q56 28 56 72q-6 -2 -15 -2q-18 0 -31 13.5t-13 32.5q0 20 15.5 34.5t37.5 14.5q25 0 40 -18t15 -50q0 -77 -85 -125z" />
    <glyph glyph-name="uni0123" unicode="&#x123;" horiz-adv-x="606" 
d="M304 547q-25 0 -40 18t-15 50q0 77 85 125l20 -29q-56 -27 -56 -72q6 2 15 2q18 0 31 -13t13 -32q0 -20 -15.5 -34.5t-37.5 -14.5zM454 475h80v-473q0 -60 -14.5 -106.5t-38.5 -76t-56.5 -48.5t-66 -26.5t-69.5 -7.5q-75 0 -131.5 31.5t-88.5 87.5l72 32q50 -75 148 -75
q76 0 120.5 44t44.5 132v79q-69 -77 -173 -77q-99 0 -171.5 72t-72.5 175t72.5 174.5t171.5 71.5q104 0 173 -77v68zM285 66q71 0 120 50t49 122q0 71 -49 121t-120 50q-68 0 -117 -50t-49 -121t49 -121.5t117 -50.5z" />
    <glyph glyph-name="Hbar" unicode="&#x126;" horiz-adv-x="801" 
d="M782 629v-73h-82v-556h-85v347h-427v-347h-85v556h-84v73h84v111h85v-111h427v111h85v-111h82zM615 429v127h-427v-127h427z" />
    <glyph glyph-name="hbar" unicode="&#x127;" horiz-adv-x="571" 
d="M311 484q86 0 140 -52.5t54 -164.5v-267h-80v260q0 74 -34.5 111t-95.5 37q-140 0 -140 -162v-246h-80v575h-85v73h85v92h80v-92h200v-73h-200v-162q52 71 156 71z" />
    <glyph glyph-name="Itilde" unicode="&#x128;" horiz-adv-x="286" 
d="M-39 849q0 55 28.5 87.5t78.5 32.5q36 0 82.5 -27t65.5 -27q47 0 47 51h62q0 -54 -28.5 -86.5t-76.5 -32.5q-37 0 -83.5 27t-64.5 27q-49 0 -49 -52h-62zM101 0v740h85v-740h-85z" />
    <glyph glyph-name="itilde" unicode="&#x129;" horiz-adv-x="240" 
d="M-61 574q0 55 28 87t79 32q36 0 82.5 -27t65.5 -27q47 0 47 52h61q0 -54 -28 -86.5t-76 -32.5q-38 0 -84.5 27t-64.5 27q-48 0 -48 -52h-62zM74 475h80v-475h-80v475z" />
    <glyph glyph-name="Imacron" unicode="&#x12a;" horiz-adv-x="275" 
d="M-22 942h319v-73h-319v73zM96 0v740h85v-740h-85z" />
    <glyph glyph-name="imacron" unicode="&#x12b;" horiz-adv-x="229" 
d="M-44 670h319v-73h-319v73zM69 475h80v-475h-80v475z" />
    <glyph glyph-name="Iogonek" unicode="&#x12e;" horiz-adv-x="277" 
d="M169 0q-59 -42 -59 -98q0 -47 45 -47q14 0 25 4v-56q-18 -6 -43 -6q-41 0 -66.5 22t-25.5 62q0 35 18.5 67.5t48.5 51.5h-15v740h85v-740h-13z" />
    <glyph glyph-name="iogonek" unicode="&#x12f;" horiz-adv-x="228" 
d="M112 582q-23 0 -39 16t-16 40q0 23 16 38.5t39 15.5t39 -15.5t16 -38.5q0 -24 -16 -40t-39 -16zM85 -98q0 -47 46 -47q13 0 24 4v-56q-16 -6 -43 -6q-41 0 -66.5 22t-25.5 62q0 35 18.5 67.5t48.5 51.5h-17v475h80v-475h-6q-59 -42 -59 -98z" />
    <glyph glyph-name="Idotaccent" unicode="&#x130;" horiz-adv-x="277" 
d="M138 845q-27 0 -45 17.5t-18 44.5q0 26 18 44t45 18q26 0 44.5 -18t18.5 -44q0 -27 -18 -44.5t-45 -17.5zM96 0v740h86v-740h-86z" />
    <glyph glyph-name="dotlessi" unicode="&#x131;" horiz-adv-x="226" 
d="M73 475h80v-475h-80v475z" />
    <glyph glyph-name="IJ" unicode="&#x132;" horiz-adv-x="533" 
d="M95 0v740h85v-740h-85zM226 -218v78q72 11 100 55.5t28 149.5v675h85v-675q0 -138 -47 -204t-166 -79z" />
    <glyph glyph-name="ij" unicode="&#x133;" horiz-adv-x="468" 
d="M114 582q-23 0 -39 16t-16 40q0 23 16 38.5t39 15.5t39 -15.5t16 -38.5q0 -24 -16 -40t-39 -16zM350 582q-23 0 -39 16t-16 40q0 23 16 38.5t39 15.5t39 -15.5t16 -38.5q0 -24 -16 -40t-39 -16zM73 475h80v-475h-80v475zM309 475h80v-728h-80v728z" />
    <glyph glyph-name="uni0136" unicode="&#x136;" horiz-adv-x="619" 
d="M261 369l371 -369h-114l-338 336v-336h-85v740h85v-340l317 340h109zM321 -62q25 0 40 -18t15 -50q0 -77 -84 -125l-21 28q56 28 56 72q-6 -2 -15 -2q-18 0 -31 13.5t-13 32.5q0 20 15.5 34.5t37.5 14.5z" />
    <glyph glyph-name="uni0137" unicode="&#x137;" horiz-adv-x="482" 
d="M233 255l256 -255h-109l-227 225v-225h-80v740h80v-457l211 192h109zM256 -62q25 0 40 -18t15 -50q0 -77 -85 -125l-21 28q57 28 57 72q-6 -2 -15 -2q-18 0 -31 13.5t-13 32.5q0 20 15.5 34.5t37.5 14.5z" />
    <glyph glyph-name="kgreenlandic" unicode="&#x138;" horiz-adv-x="482" 
d="M489 0h-109l-227 207v-207h-80v475h80v-210l211 210h109l-240 -238z" />
    <glyph glyph-name="Lacute" unicode="&#x139;" horiz-adv-x="561" 
d="M43 815l-31 63l219 118l33 -70zM97 0v740h85v-658h367v-82h-452z" />
    <glyph glyph-name="lacute" unicode="&#x13a;" horiz-adv-x="260" 
d="M17 815l-31 63l219 118l33 -70zM185 -11q-123 0 -123 137v614h80v-596q0 -42 13.5 -61t48.5 -19q18 0 34 6v-72q-26 -9 -53 -9z" />
    <glyph glyph-name="uni013B" unicode="&#x13b;" horiz-adv-x="560" 
d="M95 0v740h85v-658h368v-82h-453zM258 -227q56 28 56 72q-6 -2 -15 -2q-18 0 -30.5 13.5t-12.5 32.5q0 20 15 34.5t37 14.5q25 0 40 -18t15 -50q0 -77 -84 -125z" />
    <glyph glyph-name="uni013C" unicode="&#x13c;" horiz-adv-x="254" 
d="M195 -11q-123 0 -123 137v614h80v-596q0 -43 13 -61.5t49 -18.5q18 0 34 6v-72q-26 -9 -53 -9zM121 -227q56 28 56 72q-6 -2 -15 -2q-18 0 -30.5 13.5t-12.5 32.5q0 20 15 34.5t37 14.5q25 0 40.5 -18t15.5 -50q0 -77 -85 -125z" />
    <glyph glyph-name="Lcaron" unicode="&#x13d;" horiz-adv-x="560" 
d="M95 0v740h85v-658h368v-82h-453zM365 509l30 231h74l-35 -231h-69z" />
    <glyph glyph-name="lcaron" unicode="&#x13e;" horiz-adv-x="280" 
d="M195 -11q-123 0 -123 137v614h80v-596q0 -43 13 -61.5t49 -18.5q18 0 34 6v-72q-26 -9 -53 -9zM217 509l30 231h74l-35 -231h-69z" />
    <glyph glyph-name="Ldot" unicode="&#x13f;" horiz-adv-x="560" 
d="M95 0v740h85v-658h368v-82h-453zM385 322q-25 0 -42 17t-17 43q0 25 17 41.5t42 16.5t42 -16.5t17 -41.5q0 -26 -17 -43t-42 -17z" />
    <glyph glyph-name="ldot" unicode="&#x140;" horiz-adv-x="329" 
d="M195 -11q-123 0 -123 137v614h80v-596q0 -43 13 -61.5t49 -18.5q18 0 34 6v-72q-26 -9 -53 -9zM257 299q-25 0 -42 16.5t-17 42.5t17 42.5t42 16.5t42 -17t17 -42t-17 -42t-42 -17z" />
    <glyph glyph-name="Lslash" unicode="&#x141;" horiz-adv-x="592" 
d="M212 82h367v-82h-452v302l-74 -34l-31 65l105 49v358h85v-318l107 50l31 -66l-138 -64v-260z" />
    <glyph glyph-name="lslash" unicode="&#x142;" horiz-adv-x="356" 
d="M187 144q0 -43 13 -61.5t49 -18.5q18 0 34 6v-72q-27 -9 -53 -9q-123 0 -123 137v194l-75 -20l-18 66l93 25v349h80v-327l121 33l18 -66l-139 -38v-198z" />
    <glyph glyph-name="Nacute" unicode="&#x143;" horiz-adv-x="830" 
d="M564 926l-221 -111l-31 63l219 118zM650 740h84v-740h-92l-462 634v-634h-85v740h111l444 -608v608z" />
    <glyph glyph-name="nacute" unicode="&#x144;" horiz-adv-x="569" 
d="M428 653l-222 -112l-30 64l218 117zM309 484q86 0 140 -52.5t54 -164.5v-267h-80v260q0 74 -34.5 111t-95.5 37q-140 0 -140 -162v-246h-80v475h80v-63q51 72 156 72z" />
    <glyph glyph-name="uni0145" unicode="&#x145;" horiz-adv-x="830" 
d="M650 740h84v-740h-92l-462 634v-634h-85v740h111l444 -608v608zM413 -62q25 0 40.5 -18t15.5 -50q0 -77 -85 -125l-21 28q56 28 56 72q-6 -2 -15 -2q-18 0 -30.5 13.5t-12.5 32.5q0 20 15 34.5t37 14.5z" />
    <glyph glyph-name="uni0146" unicode="&#x146;" horiz-adv-x="569" 
d="M309 484q86 0 140 -52.5t54 -164.5v-267h-80v260q0 74 -34.5 111t-95.5 37q-140 0 -140 -162v-246h-80v475h80v-63q51 72 156 72zM294 -62q25 0 40.5 -18t15.5 -50q0 -77 -85 -125l-21 28q56 28 56 72q-6 -2 -14 -2q-19 0 -31.5 13t-12.5 33t15 34.5t37 14.5z" />
    <glyph glyph-name="Ncaron" unicode="&#x147;" horiz-adv-x="830" 
d="M452 815h-27l-163 123l39 58l138 -100l137 100l39 -58zM650 740h84v-740h-92l-462 634v-634h-85v740h111l444 -608v608z" />
    <glyph glyph-name="ncaron" unicode="&#x148;" horiz-adv-x="569" 
d="M316 541h-27l-163 123l39 58l138 -100l137 100l39 -58zM309 484q86 0 140 -52.5t54 -164.5v-267h-80v260q0 74 -34.5 111t-95.5 37q-140 0 -140 -162v-246h-80v475h80v-63q51 72 156 72z" />
    <glyph glyph-name="Eng" unicode="&#x14a;" horiz-adv-x="830" 
d="M650 740h84v-694q0 -138 -47 -204t-166 -79v78q64 10 93 45.5t34 115.5l-468 632v-634h-85v740h111l444 -600v600z" />
    <glyph glyph-name="eng" unicode="&#x14b;" horiz-adv-x="569" 
d="M309 484q86 0 140 -52.5t54 -164.5v-353q0 -137 -123 -137q-22 0 -53 9v72q19 -6 34 -6q36 0 49 18.5t13 61.5v328q0 74 -34.5 111t-95.5 37q-140 0 -140 -162v-246h-80v475h80v-63q51 72 156 72z" />
    <glyph glyph-name="Omacron" unicode="&#x14c;" horiz-adv-x="859" 
d="M267 942h319v-73h-319v73zM429 -13q-161 0 -273.5 111t-112.5 271q0 159 111.5 271.5t274.5 112.5q164 0 275.5 -112t111.5 -272t-112.5 -271t-274.5 -111zM429 66q127 0 214 89t87 213q0 125 -86.5 215.5t-214.5 90.5q-127 0 -213.5 -90.5t-86.5 -215.5q0 -124 87 -213
t213 -89z" />
    <glyph glyph-name="omacron" unicode="&#x14d;" horiz-adv-x="574" 
d="M129 670h319v-73h-319v73zM287 -11q-105 0 -177.5 73t-72.5 175t72 174.5t178 72.5t178 -72.5t72 -174.5t-72.5 -175t-177.5 -73zM287 65q73 0 120.5 50.5t47.5 121.5t-47.5 121t-120.5 50t-120.5 -50t-47.5 -121t47.5 -121.5t120.5 -50.5z" />
    <glyph glyph-name="Ohungarumlaut" unicode="&#x150;" horiz-adv-x="859" 
d="M347 815l-55 43l109 138l60 -49zM515 815l-56 43l110 138l59 -49zM429 -13q-161 0 -273.5 111t-112.5 271q0 159 111.5 271.5t274.5 112.5q164 0 275.5 -112t111.5 -272t-112.5 -271t-274.5 -111zM429 66q127 0 214 89t87 213q0 125 -86.5 215.5t-214.5 90.5
q-127 0 -213.5 -90.5t-86.5 -215.5q0 -124 87 -213t213 -89z" />
    <glyph glyph-name="ohungarumlaut" unicode="&#x151;" horiz-adv-x="574" 
d="M155 585l109 137l60 -49l-114 -132zM322 585l110 137l59 -49l-113 -132zM287 -11q-105 0 -177.5 73t-72.5 175t72 174.5t178 72.5t178 -72.5t72 -174.5t-72.5 -175t-177.5 -73zM287 65q73 0 120.5 50.5t47.5 121.5t-47.5 121t-120.5 50t-120.5 -50t-47.5 -121
t47.5 -121.5t120.5 -50.5z" />
    <glyph glyph-name="OE" unicode="&#x152;" horiz-adv-x="1208" 
d="M1166 658h-351v-231h293v-82h-293v-4v-259h351v-82h-436v127q-54 -66 -132.5 -103t-168.5 -37q-161 0 -273.5 111t-112.5 271q0 159 111.5 271.5t274.5 112.5q91 0 169 -37.5t132 -103.5v128h436v-82zM429 66q127 0 214 89t87 213q0 125 -86.5 215.5t-214.5 90.5
q-127 0 -213.5 -90.5t-86.5 -215.5q0 -124 87 -213t213 -89z" />
    <glyph glyph-name="oe" unicode="&#x153;" horiz-adv-x="971" 
d="M697 484q105 0 172.5 -70.5t67.5 -176.5q0 -17 -1 -26h-400q8 -66 54.5 -108t115.5 -42q95 0 145 68l55 -43q-70 -97 -198 -97q-70 0 -124.5 30t-87.5 81q-34 -51 -89 -81t-120 -30q-105 0 -177.5 73t-72.5 175t72 174.5t178 72.5q66 0 120.5 -30t88.5 -81q32 51 85 81
t116 30zM537 273h321q-8 63 -51 100.5t-109 37.5q-61 0 -106 -38t-55 -100zM287 65q73 0 120.5 50.5t47.5 121.5t-47.5 121t-120.5 50t-120.5 -50t-47.5 -121t47.5 -121.5t120.5 -50.5z" />
    <glyph glyph-name="Racute" unicode="&#x154;" horiz-adv-x="662" 
d="M460 926l-221 -111l-31 63l218 118zM626 0h-98l-190 325h-158v-325h-85v740h261q255 0 255 -207q0 -174 -180 -202zM180 658v-252h182q164 0 164 126t-164 126h-182z" />
    <glyph glyph-name="racute" unicode="&#x155;" horiz-adv-x="345" 
d="M332 653l-221 -112l-31 64l219 117zM316 484h25v-77h-19q-83 0 -126 -37t-43 -107v-263h-80v475h80v-71q44 80 163 80z" />
    <glyph glyph-name="uni0156" unicode="&#x156;" horiz-adv-x="662" 
d="M431 331l195 -331h-98l-190 325h-158v-325h-85v740h261q255 0 255 -207q0 -174 -180 -202zM180 658v-252h182q164 0 164 126t-164 126h-182zM336 -62q25 0 40.5 -18t15.5 -50q0 -77 -85 -125l-21 28q56 28 56 72q-6 -2 -14 -2q-19 0 -31.5 13t-12.5 33t15 34.5t37 14.5z
" />
    <glyph glyph-name="uni0157" unicode="&#x157;" horiz-adv-x="345" 
d="M316 484h25v-77h-19q-83 0 -126 -37t-43 -107v-263h-80v475h80v-71q44 80 163 80zM117 -62q25 0 40.5 -18t15.5 -50q0 -77 -85 -125l-21 28q56 28 56 72q-6 -2 -15 -2q-18 0 -30.5 13.5t-12.5 32.5q0 20 15 34.5t37 14.5z" />
    <glyph glyph-name="Rcaron" unicode="&#x158;" horiz-adv-x="662" 
d="M347 815h-26l-164 123l40 58l137 -100l137 100l40 -58zM626 0h-98l-190 325h-158v-325h-85v740h261q255 0 255 -207q0 -174 -180 -202zM180 658v-252h182q164 0 164 126t-164 126h-182z" />
    <glyph glyph-name="rcaron" unicode="&#x159;" horiz-adv-x="345" 
d="M218 541h-26l-164 123l39 58l138 -100l137 100l40 -58zM153 404q44 80 163 80h25v-77h-19q-83 0 -126 -37t-43 -107v-263h-80v475h80v-71z" />
    <glyph glyph-name="Sacute" unicode="&#x15a;" horiz-adv-x="557" 
d="M191 815l-31 63l219 118l33 -70zM86 170q77 -104 193 -104q67 0 106.5 33.5t39.5 93.5q0 43 -26 74t-65 48t-84.5 38t-84.5 42.5t-65 63t-26 97.5q0 92 63.5 144.5t164.5 52.5q108 0 196 -70l-46 -67q-59 58 -154 58q-61 0 -99.5 -29t-38.5 -82q0 -36 19.5 -62.5
t50.5 -43t68 -31.5t74.5 -33t68.5 -41.5t50.5 -62.5t19.5 -91q0 -99 -62 -155t-171 -56q-157 0 -245 126z" />
    <glyph glyph-name="sacute" unicode="&#x15b;" horiz-adv-x="425" 
d="M92 605l218 117l34 -69l-222 -112zM73 116q65 -54 143 -54q45 0 68 18t23 45q0 30 -26.5 48t-63.5 28.5t-74.5 23.5t-64 44t-26.5 79q0 59 43 97.5t120 38.5q100 0 167 -55l-42 -58q-54 40 -126 40q-43 0 -63.5 -16t-20.5 -41q0 -29 26 -46.5t63.5 -29t75 -25.5t63.5 -46
t26 -80q0 -61 -45 -99.5t-127 -38.5q-96 0 -182 65z" />
    <glyph glyph-name="Scedilla" unicode="&#x15e;" horiz-adv-x="557" 
d="M511 198q0 -98 -61.5 -154t-168.5 -57l-12 -36h15q42 0 69.5 -27t27.5 -70q0 -45 -31.5 -73.5t-85.5 -28.5q-64 0 -102 45l38 42q20 -33 62 -33q55 0 55 46q0 22 -14 35t-39 13h-69l32 91q-121 18 -194 122l53 57q77 -104 193 -104q67 0 106.5 33.5t39.5 93.5
q0 43 -26 74t-65 48t-84.5 38t-84.5 42.5t-65 63t-26 97.5q0 92 63.5 144.5t164.5 52.5q108 0 196 -70l-46 -67q-59 58 -154 58q-61 0 -99.5 -29t-38.5 -82q0 -36 19.5 -62.5t50.5 -43t68 -31.5t74.5 -33t68.5 -41.5t50.5 -62.5t19.5 -91z" />
    <glyph glyph-name="scedilla" unicode="&#x15f;" horiz-adv-x="425" 
d="M384 127q0 -60 -42.5 -98t-119.5 -40l-14 -38h15q42 0 70 -27.5t28 -69.5q0 -44 -32 -73t-85 -29q-64 0 -103 45l38 42q20 -33 63 -33q54 0 54 46q0 21 -14 34.5t-38 13.5h-69l32 92q-67 10 -137 62l43 62q65 -54 143 -54q45 0 68 18t23 45q0 30 -26.5 48t-63.5 28.5
t-74.5 23.5t-64 44t-26.5 79q0 59 43 97.5t120 38.5q100 0 167 -55l-42 -58q-54 40 -126 40q-43 0 -63.5 -16t-20.5 -41q0 -29 26 -46.5t63.5 -29t75 -25.5t63.5 -46t26 -80z" />
    <glyph glyph-name="Scaron" unicode="&#x160;" horiz-adv-x="557" 
d="M319 815h-27l-163 123l39 58l138 -100l137 100l39 -58zM160 563q0 -36 19.5 -62.5t50.5 -43t68 -31.5t74.5 -33t68.5 -41.5t50.5 -62.5t19.5 -91q0 -99 -62 -155t-171 -56q-157 0 -245 126l53 57q77 -104 193 -104q67 0 106.5 33.5t39.5 93.5q0 43 -26 74t-65 48
t-84.5 38t-84.5 42.5t-65 63t-26 97.5q0 92 63.5 144.5t164.5 52.5q108 0 196 -70l-46 -67q-59 58 -154 58q-61 0 -99.5 -29t-38.5 -82z" />
    <glyph glyph-name="scaron" unicode="&#x161;" horiz-adv-x="425" 
d="M229 541h-26l-164 123l40 58l138 -100l137 100l39 -58zM130 354q0 -29 26 -46.5t63.5 -29t75 -25.5t63.5 -46t26 -80q0 -61 -45 -99.5t-127 -38.5q-96 0 -182 65l43 62q65 -54 143 -54q45 0 68 18t23 45q0 30 -26.5 48t-63.5 28.5t-74.5 23.5t-64 44t-26.5 79
q0 59 43 97.5t120 38.5q100 0 167 -55l-42 -58q-54 40 -126 40q-43 0 -63.5 -16t-20.5 -41z" />
    <glyph glyph-name="uni0162" unicode="&#x162;" horiz-adv-x="601" 
d="M344 0h-13l-18 -49h15q42 0 69.5 -27t27.5 -70q0 -44 -31.5 -73t-84.5 -29q-64 0 -103 45l38 42q20 -33 62 -33q55 0 55 46q0 22 -14 35t-39 13h-69l36 100h-16v658h-247v82h577v-82h-245v-658z" />
    <glyph glyph-name="uni0163" unicode="&#x163;" horiz-adv-x="333" 
d="M317 399h-140v-256q0 -41 16 -60t54 -19q39 0 60 8v-72q-29 -11 -79 -11h-14l-14 -38h16q42 0 69.5 -27t27.5 -70q0 -45 -31.5 -73.5t-85.5 -28.5q-64 0 -102 45l38 42q20 -33 62 -33q55 0 55 46q0 22 -14 35t-39 13h-69l35 101q-65 29 -65 127v271h-75v76h75v158h80
v-158h140v-76z" />
    <glyph glyph-name="Tcaron" unicode="&#x164;" horiz-adv-x="601" 
d="M321 815h-26l-164 123l40 58l137 -100l137 100l40 -58zM12 740h577v-82h-245v-658h-85v658h-247v82z" />
    <glyph glyph-name="tcaron" unicode="&#x165;" horiz-adv-x="339" 
d="M335 740l-35 -231h-69l30 231h74zM176 633v-158h140v-76h-140v-256q1 -42 16.5 -60.5t53.5 -18.5q41 0 60 8v-72q-26 -11 -79 -11q-131 0 -131 139v271h-75v76h75v158h80z" />
    <glyph glyph-name="Tbar" unicode="&#x166;" horiz-adv-x="616" 
d="M596 658h-245v-258h146v-73h-146v-327h-86v327h-133v73h133v258h-246v82h577v-82z" />
    <glyph glyph-name="tbar" unicode="&#x167;" horiz-adv-x="341" 
d="M319 399h-140v-114h136v-73h-136v-69q0 -41 16 -60t54 -19q39 0 60 8v-72q-29 -11 -80 -11q-130 0 -130 139v84h-74v73h74v114h-75v76h75v158h80v-158h140v-76z" />
    <glyph glyph-name="Utilde" unicode="&#x168;" horiz-adv-x="767" 
d="M207 849q0 55 28.5 87.5t78.5 32.5q36 0 82.5 -27t65.5 -27q47 0 47 51h61q0 -54 -28 -86.5t-76 -32.5q-38 0 -84.5 27t-64.5 27q-48 0 -48 -52h-62zM384 -13q-141 0 -220.5 87t-79.5 258v408h85v-384q0 -149 52.5 -219.5t162.5 -70.5q109 0 162 70.5t53 219.5v384h85
v-408q0 -170 -80 -257.5t-220 -87.5z" />
    <glyph glyph-name="utilde" unicode="&#x169;" horiz-adv-x="562" 
d="M105 574q0 55 28 87t78 32q37 0 83 -27t65 -27q47 0 47 52h62q0 -54 -28 -86.5t-76 -32.5q-38 0 -84.5 27t-64.5 27q-49 0 -49 -52h-61zM281 -11q-97 0 -156.5 54t-59.5 161v271h80v-256q0 -154 136 -154t136 154v256h80v-271q0 -107 -59.5 -161t-156.5 -54z" />
    <glyph glyph-name="Umacron" unicode="&#x16a;" horiz-adv-x="767" 
d="M226 942h319v-73h-319v73zM384 -13q-141 0 -220.5 87t-79.5 258v408h85v-384q0 -149 52.5 -219.5t162.5 -70.5q109 0 162 70.5t53 219.5v384h85v-408q0 -170 -80 -257.5t-220 -87.5z" />
    <glyph glyph-name="umacron" unicode="&#x16b;" horiz-adv-x="562" 
d="M121 670h319v-73h-319v73zM281 -11q-97 0 -156.5 54t-59.5 161v271h80v-256q0 -154 136 -154t136 154v256h80v-271q0 -107 -59.5 -161t-156.5 -54z" />
    <glyph glyph-name="Uring" unicode="&#x16e;" horiz-adv-x="767" 
d="M385 781q-49 0 -80.5 31t-31.5 76t31.5 76.5t80.5 31.5q48 0 80 -31.5t32 -76.5t-32 -76t-80 -31zM385 834q24 0 40 16t16 38q0 23 -16 39t-40 16q-25 0 -40.5 -16t-15.5 -39q0 -22 15.5 -38t40.5 -16zM384 -13q-141 0 -220.5 87t-79.5 258v408h85v-384
q0 -149 52.5 -219.5t162.5 -70.5q109 0 162 70.5t53 219.5v384h85v-408q0 -170 -80 -257.5t-220 -87.5z" />
    <glyph glyph-name="uring" unicode="&#x16f;" horiz-adv-x="562" 
d="M281 507q-49 0 -80.5 31t-31.5 77q0 45 31.5 76t80.5 31q48 0 80 -31t32 -76t-32 -76.5t-80 -31.5zM281 560q24 0 39.5 16t15.5 38q0 23 -15.5 39t-39.5 16q-25 0 -40.5 -16t-15.5 -39q0 -22 15.5 -38t40.5 -16zM281 -11q-97 0 -156.5 54t-59.5 161v271h80v-256
q0 -154 136 -154t136 154v256h80v-271q0 -107 -59.5 -161t-156.5 -54z" />
    <glyph glyph-name="Uhungarumlaut" unicode="&#x170;" horiz-adv-x="767" 
d="M315 815l-56 43l109 138l60 -49zM482 815l-56 43l110 138l59 -49zM384 -13q-141 0 -220.5 87t-79.5 258v408h85v-384q0 -149 52.5 -219.5t162.5 -70.5q109 0 162 70.5t53 219.5v384h85v-408q0 -170 -80 -257.5t-220 -87.5z" />
    <glyph glyph-name="uhungarumlaut" unicode="&#x171;" horiz-adv-x="562" 
d="M143 585l109 137l60 -49l-114 -132zM310 585l109 137l60 -49l-113 -132zM281 -11q-97 0 -156.5 54t-59.5 161v271h80v-256q0 -154 136 -154t136 154v256h80v-271q0 -107 -59.5 -161t-156.5 -54z" />
    <glyph glyph-name="Uogonek" unicode="&#x172;" horiz-adv-x="767" 
d="M599 740h85v-408q0 -136 -51 -219.5t-145 -111.5q-53 -39 -53 -94q0 -46 45 -46q12 0 24 3v-55q-19 -7 -42 -7q-41 0 -66.5 22t-25.5 62q0 60 45 102q-10 -1 -31 -1q-141 0 -220.5 87t-79.5 258v408h85v-384q0 -149 52.5 -219.5t162.5 -70.5q109 0 162 70.5t53 219.5v384
z" />
    <glyph glyph-name="uogonek" unicode="&#x173;" horiz-adv-x="562" 
d="M417 475h80v-271q0 -152 -120 -199q-57 -40 -57 -97q0 -46 45 -46q13 0 25 3v-55q-21 -7 -43 -7q-41 0 -66.5 22t-25.5 62q0 58 45 103q-6 -1 -19 -1q-97 0 -156.5 54t-59.5 161v271h80v-256q0 -154 136 -154t136 154v256z" />
    <glyph glyph-name="Wcircumflex" unicode="&#x174;" horiz-adv-x="1027" 
d="M515 914l-138 -99l-39 57l163 124h27l163 -124l-39 -57zM922 740h92l-239 -740h-83l-179 601l-179 -601h-82l-239 740h92l187 -606l179 606h85l178 -608z" />
    <glyph glyph-name="wcircumflex" unicode="&#x175;" horiz-adv-x="805" 
d="M404 641l-138 -100l-40 58l164 123h26l164 -123l-39 -58zM705 475h87l-175 -475h-87l-127 376l-128 -376h-86l-176 475h87l132 -380l128 380h85l128 -379z" />
    <glyph glyph-name="Ycircumflex" unicode="&#x176;" horiz-adv-x="669" 
d="M330 914l-137 -99l-40 57l164 124h26l164 -124l-40 -57zM552 740h99l-274 -409v-331h-85v331l-273 409h99l217 -328z" />
    <glyph glyph-name="ycircumflex" unicode="&#x177;" horiz-adv-x="514" 
d="M258 641l-138 -100l-39 58l163 123h27l163 -123l-39 -58zM413 475h87l-307 -728h-80l102 246l-202 482h87l156 -381z" />
    <glyph glyph-name="Ydieresis" unicode="&#x178;" horiz-adv-x="669" 
d="M223 846q-25 0 -43 18t-18 43t17.5 42.5t43.5 17.5t43.5 -17t17.5 -43t-17.5 -43.5t-43.5 -17.5zM436 846q-26 0 -43.5 18t-17.5 43t17.5 42.5t43.5 17.5t43.5 -17t17.5 -43t-17.5 -43.5t-43.5 -17.5zM552 740h99l-274 -409v-331h-85v331l-273 409h99l217 -328z" />
    <glyph glyph-name="Zacute" unicode="&#x179;" horiz-adv-x="627" 
d="M444 926l-221 -111l-31 63l218 118zM599 740v-75l-461 -583h460v-82h-575v75l462 583h-451v82h565z" />
    <glyph glyph-name="zacute" unicode="&#x17a;" horiz-adv-x="440" 
d="M355 653l-221 -112l-31 64l219 117zM408 475v-74l-272 -325h272v-76h-376v74l272 325h-272v76h376z" />
    <glyph glyph-name="Zdotaccent" unicode="&#x17b;" horiz-adv-x="627" 
d="M318 845q-27 0 -45 17.5t-18 44.5q0 26 18 44t45 18t45 -18t18 -44q0 -27 -18 -44.5t-45 -17.5zM599 740v-75l-461 -583h460v-82h-575v75l462 583h-451v82h565z" />
    <glyph glyph-name="zdotaccent" unicode="&#x17c;" horiz-adv-x="440" 
d="M220 582q-23 0 -39 16t-16 40q0 23 16 38.5t39 15.5t39 -15.5t16 -38.5q0 -24 -16 -40t-39 -16zM408 475v-74l-272 -325h272v-76h-376v74l272 325h-272v76h376z" />
    <glyph glyph-name="Zcaron" unicode="&#x17d;" horiz-adv-x="627" 
d="M331 815h-26l-164 123l40 58l137 -100l137 100l40 -58zM599 740v-75l-461 -583h460v-82h-575v75l462 583h-451v82h565z" />
    <glyph glyph-name="zcaron" unicode="&#x17e;" horiz-adv-x="440" 
d="M233 541h-26l-163 123l39 58l138 -100l137 100l39 -58zM408 475v-74l-272 -325h272v-76h-376v74l272 325h-272v76h376z" />
    <glyph glyph-name="florin" unicode="&#x192;" horiz-adv-x="377" 
d="M281 674q-39 0 -56.5 -21t-17.5 -73v-105h117v-76h-117v-426q0 -82 -36.5 -121.5t-117.5 -39.5v76q39 0 56.5 21t17.5 73v417h-62v76h62v114q0 161 134 161q45 0 73 -12v-71q-21 7 -53 7z" />
    <glyph glyph-name="uni01EA" unicode="&#x1ea;" horiz-adv-x="859" 
d="M529 0q-51 -38 -51 -93q0 -46 45 -46q12 0 24 3v-55q-19 -7 -42 -7q-41 0 -66.5 22t-25.5 62q0 60 45 102q-10 -1 -29 -1q-161 0 -273.5 111t-112.5 271q0 159 111.5 271.5t274.5 112.5q164 0 275.5 -112t111.5 -272q0 -134 -80 -235.5t-207 -133.5zM129 368
q0 -124 87 -213t213 -89q127 0 214 89t87 213q0 125 -86.5 215.5t-214.5 90.5q-127 0 -213.5 -90.5t-86.5 -215.5z" />
    <glyph glyph-name="uni01EB" unicode="&#x1eb;" horiz-adv-x="574" 
d="M375 5q-54 -42 -54 -96q0 -46 46 -46q12 0 24 3v-55q-19 -7 -43 -7q-41 0 -66.5 22.5t-25.5 61.5q0 59 44 101h-13q-105 0 -177.5 73t-72.5 175t72 174.5t178 72.5t178 -72.5t72 -174.5q0 -78 -45 -142t-117 -90zM119 237q0 -71 47.5 -121.5t120.5 -50.5t120.5 50.5
t47.5 121.5t-47.5 121t-120.5 50t-120.5 -50t-47.5 -121z" />
    <glyph glyph-name="Aringacute" unicode="&#x1fa;" horiz-adv-x="715" 
d="M354 781q-48 0 -80 31t-32 76t32 76.5t80 31.5q49 0 80.5 -31.5t31.5 -76.5v-3l96 52l29 -59l-176 -81q-27 -16 -61 -16zM354 943q-24 0 -39.5 -16t-15.5 -39q0 -22 15.5 -38t39.5 -16q25 0 40.5 16t15.5 38q0 23 -15.5 39t-40.5 16zM614 0l-75 189h-363l-75 -189h-91
l302 740h91l303 -740h-92zM358 636l-149 -366h297z" />
    <glyph glyph-name="aringacute" unicode="&#x1fb;" horiz-adv-x="622" 
d="M287 507q-49 0 -80.5 31t-31.5 77q0 45 31.5 76t80.5 31q48 0 80 -31t32 -76v-3l96 51l28 -59l-174 -80q-28 -17 -62 -17zM287 669q-25 0 -40.5 -16t-15.5 -39q0 -22 15.5 -38t40.5 -16t40.5 16t15.5 38q0 23 -15.5 39t-40.5 16zM454 475h80v-475h-80v68
q-69 -77 -173 -77q-99 0 -171.5 72t-72.5 175t72.5 174.5t171.5 71.5q104 0 173 -77v68zM285 66q71 0 120 50t49 122q0 71 -49 121t-120 50q-68 0 -117 -50t-49 -121t49 -121.5t117 -50.5z" />
    <glyph glyph-name="AEacute" unicode="&#x1fc;" horiz-adv-x="974" 
d="M781 926l-221 -111l-31 63l218 118zM931 658h-350v-231h292v-82h-292v-263h350v-82h-435v193h-292l-120 -193h-96l461 740h482v-82zM254 274h242v392z" />
    <glyph glyph-name="aeacute" unicode="&#x1fd;" horiz-adv-x="971" 
d="M617 653l-221 -112l-31 64l218 117zM697 484q103 0 172 -71t69 -176q0 -3 -0.5 -12t-0.5 -14h-401q8 -66 54.5 -108t115.5 -42q96 0 145 68l56 -43q-71 -97 -199 -97q-111 0 -182 74v-63h-72v68q-69 -77 -173 -77q-99 0 -171.5 72t-72.5 175t72.5 174.5t171.5 71.5
q104 0 173 -77v68h72v-65q69 74 171 74zM537 273h321q-8 62 -52 100t-107 38q-61 0 -106 -38t-56 -100zM285 66q71 0 120 50t49 122q0 71 -49 121t-120 50q-68 0 -117 -50t-49 -121t49 -121.5t117 -50.5z" />
    <glyph glyph-name="Oslashacute" unicode="&#x1fe;" horiz-adv-x="877" 
d="M554 926l-221 -111l-31 63l219 118zM741 615q88 -107 88 -246q0 -160 -112.5 -271t-274.5 -111q-138 0 -244 85l-83 -83l-57 58l82 82q-84 103 -84 240q0 160 111 272t275 112q136 0 241 -81l79 79l57 -58zM142 368q0 -101 58 -179l424 424q-80 61 -182 61
q-128 0 -214 -90.5t-86 -215.5zM442 66q127 0 213.5 89t86.5 213q0 103 -62 186l-424 -424q82 -64 186 -64z" />
    <glyph glyph-name="oslashacute" unicode="&#x1ff;" 
d="M424 653l-221 -112l-31 64l219 117zM560 449l-63 -63q50 -66 50 -149q0 -102 -72.5 -175t-177.5 -73q-83 0 -149 48l-62 -62l-50 51l62 62q-50 66 -50 149q0 102 72 174.5t177 72.5q83 0 149 -48l64 64zM129 237q0 -51 25 -93l237 237q-43 27 -94 27q-72 0 -120 -50.5
t-48 -120.5zM466 237q0 51 -26 92l-236 -236q40 -28 93 -28q73 0 121 50.5t48 121.5z" />
    <glyph glyph-name="uni0218" unicode="&#x218;" horiz-adv-x="557" 
d="M86 170q77 -104 193 -104q67 0 106.5 33.5t39.5 93.5q0 43 -26 74t-65 48t-84.5 38t-84.5 42.5t-65 63t-26 97.5q0 92 63.5 144.5t164.5 52.5q108 0 196 -70l-46 -67q-59 58 -154 58q-61 0 -99.5 -29t-38.5 -82q0 -36 19.5 -62.5t50.5 -43t68 -31.5t74.5 -33t68.5 -41.5
t50.5 -62.5t19.5 -91q0 -99 -62 -155t-171 -56q-157 0 -245 126zM227 -227q56 28 56 72q-6 -2 -15 -2q-18 0 -30.5 13.5t-12.5 32.5q0 20 15 34.5t37 14.5q25 0 40.5 -18t15.5 -50q0 -77 -85 -125z" />
    <glyph glyph-name="uni0219" unicode="&#x219;" horiz-adv-x="425" 
d="M73 116q65 -54 143 -54q45 0 68 18t23 45q0 30 -26.5 48t-63.5 28.5t-74.5 23.5t-64 44t-26.5 79q0 59 43 97.5t120 38.5q100 0 167 -55l-42 -58q-54 40 -126 40q-43 0 -63.5 -16t-20.5 -41q0 -29 26 -46.5t63.5 -29t75 -25.5t63.5 -46t26 -80q0 -61 -45 -99.5
t-127 -38.5q-96 0 -182 65zM166 -227q56 28 56 72q-6 -2 -14 -2q-19 0 -31.5 13t-12.5 33t15 34.5t37 14.5q25 0 40.5 -18t15.5 -50q0 -77 -85 -125z" />
    <glyph glyph-name="uni021A" unicode="&#x21a;" horiz-adv-x="601" 
d="M259 0v658h-247v82h577v-82h-245v-658h-85zM258 -227q56 28 56 72q-6 -2 -14 -2q-19 0 -31.5 13t-12.5 33t15 34.5t37 14.5q25 0 40.5 -18t15.5 -50q0 -77 -85 -125z" />
    <glyph glyph-name="uni021B" unicode="&#x21b;" horiz-adv-x="332" 
d="M316 399h-140v-256q1 -42 16.5 -60.5t53.5 -18.5q41 0 60 8v-72q-26 -11 -79 -11q-131 0 -131 139v271h-75v76h75v158h80v-158h140v-76zM208 -62q25 0 40.5 -18t15.5 -50q0 -77 -85 -125l-21 28q56 28 56 72q-6 -2 -14 -2q-19 0 -31.5 13t-12.5 33t15 34.5t37 14.5z" />
    <glyph glyph-name="uni0237" unicode="&#x237;" horiz-adv-x="226" 
d="M73 475h80v-728h-80v728z" />
    <glyph glyph-name="circumflex" unicode="&#x2c6;" horiz-adv-x="474" 
d="M414 599l-40 -58l-137 100l-138 -100l-39 58l164 123h26z" />
    <glyph glyph-name="caron" unicode="&#x2c7;" horiz-adv-x="474" 
d="M374 722l40 -58l-164 -123h-26l-164 123l39 58l138 -100z" />
    <glyph glyph-name="breve" unicode="&#x2d8;" horiz-adv-x="453" 
d="M226 541q-73 0 -119.5 49t-46.5 126h69q0 -48 26.5 -76t70.5 -28q45 0 71.5 28t26.5 76h69q0 -76 -47 -125.5t-120 -49.5z" />
    <glyph glyph-name="dotaccent" unicode="&#x2d9;" horiz-adv-x="241" 
d="M121 582q-23 0 -39 16t-16 40q0 23 16 38.5t39 15.5t39 -15.5t16 -38.5q0 -24 -16 -40t-39 -16z" />
    <glyph glyph-name="ring" unicode="&#x2da;" horiz-adv-x="344" 
d="M172 507q-48 0 -80 31.5t-32 76.5t32 76t80 31q49 0 80.5 -31t31.5 -76q0 -46 -31.5 -77t-80.5 -31zM172 560q25 0 40.5 16t15.5 38q0 23 -15.5 39t-40.5 16q-24 0 -40 -16t-16 -39q0 -22 16 -38t40 -16z" />
    <glyph glyph-name="ogonek" unicode="&#x2db;" horiz-adv-x="251" 
d="M191 -197q-17 -6 -42 -6q-41 0 -66.5 22t-25.5 62q0 35 18 67.5t48 51.5h57q-58 -41 -58 -98q0 -47 45 -47q13 0 24 4v-56z" />
    <glyph glyph-name="tilde" unicode="&#x2dc;" horiz-adv-x="483" 
d="M60 574q0 55 28 87t78 32q36 0 83 -27t66 -27q46 0 46 52h62q0 -54 -28 -86.5t-76 -32.5q-38 0 -84.5 27t-64.5 27q-48 0 -48 -52h-62z" />
    <glyph glyph-name="hungarumlaut" unicode="&#x2dd;" horiz-adv-x="456" 
d="M60 585l109 137l60 -49l-114 -132zM227 585l110 137l59 -49l-113 -132z" />
    <glyph glyph-name="gravecomb" unicode="&#x300;" horiz-adv-x="0" 
d="M-312 652l33 69l219 -117l-31 -63z" />
    <glyph glyph-name="acutecomb" unicode="&#x301;" horiz-adv-x="0" 
d="M-312 605l219 117l33 -69l-221 -112z" />
    <glyph glyph-name="uni0302" unicode="&#x302;" horiz-adv-x="0" 
d="M-60 599l-40 -58l-137 100l-138 -100l-39 58l164 123h26z" />
    <glyph glyph-name="tildecomb" unicode="&#x303;" horiz-adv-x="0" 
d="M-423 574q0 55 28 87t78 32q36 0 83 -27t66 -27q46 0 46 52h62q0 -54 -28 -86.5t-76 -32.5q-38 0 -84.5 27t-64.5 27q-48 0 -48 -52h-62z" />
    <glyph glyph-name="uni0304" unicode="&#x304;" horiz-adv-x="0" 
d="M-379 670h319v-73h-319v73z" />
    <glyph glyph-name="uni0306" unicode="&#x306;" horiz-adv-x="0" 
d="M-227 541q-73 0 -119.5 49t-46.5 126h69q0 -48 26.5 -76t70.5 -28q45 0 71.5 28t26.5 76h69q0 -76 -47 -125.5t-120 -49.5z" />
    <glyph glyph-name="uni0307" unicode="&#x307;" horiz-adv-x="0" 
d="M-120 582q-23 0 -39 16t-16 40q0 23 16 38.5t39 15.5t39 -15.5t16 -38.5q0 -24 -16 -40t-39 -16z" />
    <glyph glyph-name="uni0308" unicode="&#x308;" horiz-adv-x="0" 
d="M-321 578q-24 0 -40 16t-16 40q0 23 16 39t40 16t40 -16t16 -39q0 -24 -16 -40t-40 -16zM-119 578q-24 0 -40 16t-16 40q0 23 16 39t40 16q23 0 39 -16t16 -39q0 -24 -16 -40t-39 -16z" />
    <glyph glyph-name="uni030A" unicode="&#x30a;" horiz-adv-x="0" 
d="M-172 507q-48 0 -80 31.5t-32 76.5t32 76t80 31q49 0 80.5 -31t31.5 -76q0 -46 -31.5 -77t-80.5 -31zM-172 560q25 0 40.5 16t15.5 38q0 23 -15.5 39t-40.5 16q-24 0 -40 -16t-16 -39q0 -22 16 -38t40 -16z" />
    <glyph glyph-name="uni030B" unicode="&#x30b;" horiz-adv-x="0" 
d="M-396 585l109 137l60 -49l-114 -132zM-229 585l110 137l59 -49l-113 -132z" />
    <glyph glyph-name="uni030C" unicode="&#x30c;" horiz-adv-x="0" 
d="M-100 722l40 -58l-164 -123h-26l-164 123l39 58l138 -100z" />
    <glyph glyph-name="uni0312" unicode="&#x312;" horiz-adv-x="0" 
d="M-69 711q-56 -27 -56 -72q6 2 15 2q18 0 30.5 -13t12.5 -32q0 -20 -15 -34.5t-37 -14.5q-25 0 -40.5 18t-15.5 50q0 76 85 125z" />
    <glyph glyph-name="uni0326" unicode="&#x326;" horiz-adv-x="0" 
d="M-174 -227q56 28 56 72q-6 -2 -15 -2q-18 0 -30.5 13.5t-12.5 32.5q0 20 15 34.5t37 14.5q25 0 40.5 -18t15.5 -50q0 -77 -85 -125z" />
    <glyph glyph-name="uni0327" unicode="&#x327;" horiz-adv-x="0" 
d="M-176 -248q-64 0 -103 45l38 42q20 -33 62 -33q55 0 55 46q0 21 -14 34.5t-38 13.5h-69l39 112h56l-22 -61h15q42 0 69.5 -27t27.5 -70q0 -44 -31.5 -73t-84.5 -29z" />
    <glyph glyph-name="uni0328" unicode="&#x328;" horiz-adv-x="0" 
d="M-60 -197q-16 -6 -42 -6q-41 0 -66.5 22t-25.5 62q0 35 18 67.5t48 51.5h57q-58 -41 -58 -98q0 -47 45 -47q13 0 24 4v-56z" />
    <glyph glyph-name="uni0335" unicode="&#x335;" horiz-adv-x="0" 
d="M-425 335v73h365v-73h-365z" />
    <glyph glyph-name="uni0336" unicode="&#x336;" horiz-adv-x="0" 
d="M-824 545v73h764v-73h-764z" />
    <glyph glyph-name="uni0337" unicode="&#x337;" horiz-adv-x="0" 
d="M-368 365l294 79l17 -66l-294 -79z" />
    <glyph glyph-name="uni0338" unicode="&#x338;" horiz-adv-x="0" 
d="M-584 24l474 474l50 -51l-474 -474z" />
    <glyph glyph-name="uni0374" unicode="&#x374;" horiz-adv-x="230" 
d="M119 740h97l-116 -291h-65z" />
    <glyph glyph-name="uni0375" unicode="&#x375;" horiz-adv-x="230" 
d="M111 -130h-97l116 291h65z" />
    <glyph glyph-name="uni037E" unicode="&#x37e;" horiz-adv-x="228" 
d="M113 353q-23 0 -38.5 15.5t-15.5 38.5t15.5 38t38.5 15t38.5 -15.5t15.5 -37.5q0 -23 -15.5 -38.5t-38.5 -15.5zM113 101q27 0 42.5 -20t15.5 -54q0 -57 -33 -99t-75 -44v41q22 0 40 19t22 54q-4 -2 -14 -2q-22 0 -36 14t-14 37t14.5 38.5t37.5 15.5z" />
    <glyph glyph-name="tonos" unicode="&#x384;" horiz-adv-x="249" 
d="M60 587l51 207h78l-60 -222z" />
    <glyph glyph-name="dieresistonos" unicode="&#x385;" horiz-adv-x="504" 
d="M204 588l50 202h78l-58 -217zM119 578q-24 0 -40 16t-16 40q0 23 16 39t40 16t40 -16t16 -39q0 -24 -16 -40t-40 -16zM385 578q-24 0 -40 16t-16 40q0 23 16 39t40 16t40 -16t16 -39q0 -24 -16 -40t-40 -16z" />
    <glyph glyph-name="Alphatonos" unicode="&#x386;" horiz-adv-x="738" 
d="M191 741l-64 -240l-69 15l55 225h78zM636 0l-75 189h-363l-75 -189h-91l303 740h90l303 -740h-92zM380 636l-149 -366h297z" />
    <glyph glyph-name="anoteleia" unicode="&#x387;" horiz-adv-x="219" 
d="M110 201q-23 0 -38.5 15t-15.5 39q0 23 15.5 38t38.5 15q22 0 37.5 -15t15.5 -38q0 -24 -15 -39t-38 -15z" />
    <glyph glyph-name="Epsilontonos" unicode="&#x388;" horiz-adv-x="684" 
d="M4 516l55 225h79l-65 -240zM205 0v740h436v-82h-351v-231h293v-82h-293v-263h351v-82h-436z" />
    <glyph glyph-name="Etatonos" unicode="&#x389;" horiz-adv-x="897" 
d="M4 516l55 225h79l-65 -240zM717 740h85v-740h-85v347h-427v-347h-85v740h85v-311h427v311z" />
    <glyph glyph-name="Iotatonos" unicode="&#x38a;" horiz-adv-x="386" 
d="M4 516l55 225h79l-65 -240zM205 0v740h85v-740h-85z" />
    <glyph glyph-name="Omicrontonos" unicode="&#x38c;" horiz-adv-x="976" 
d="M546 -13q-162 0 -274.5 111t-112.5 271t111.5 272t275.5 112t275 -112t111 -272t-112.5 -271t-273.5 -111zM27 516l55 225h79l-65 -240zM546 66q126 0 213 89t87 213q0 125 -86 215.5t-214 90.5t-214 -90.5t-86 -215.5q0 -124 86.5 -213t213.5 -89z" />
    <glyph glyph-name="Upsilontonos" unicode="&#x38e;" horiz-adv-x="842" 
d="M30 516l55 225h78l-64 -240zM723 740h100l-274 -409v-331h-85v331l-274 409h100l216 -327z" />
    <glyph glyph-name="Omegatonos" unicode="&#x38f;" horiz-adv-x="936" 
d="M885 388q0 -103 -46.5 -185.5t-128.5 -131.5h169v-71h-316v71q100 24 168 111t68 202q0 126 -79.5 208t-198.5 82t-199 -82t-80 -208q0 -115 68.5 -202t167.5 -111v-71h-316v71h169q-82 49 -128.5 131.5t-46.5 185.5q0 157 105.5 261t259.5 104t259 -104t105 -261z
M80 741h78l-64 -240l-70 15z" />
    <glyph glyph-name="iotadieresistonos" unicode="&#x390;" horiz-adv-x="282" 
d="M71 588l49 202h78l-58 -217zM-15 578q-23 0 -39 16t-16 40q0 23 16 39t39 16q24 0 40 -16t16 -39q0 -24 -16 -40t-40 -16zM251 578q-23 0 -39 16t-16 40q0 23 16 39t39 16q24 0 40 -16t16 -39q0 -24 -16 -40t-40 -16zM187 -11q-54 0 -84.5 30t-30.5 88v368h80v-353
q0 -58 54 -58q21 0 35 6v-72q-24 -9 -54 -9z" />
    <glyph glyph-name="Alpha" unicode="&#x391;" horiz-adv-x="715" 
d="M614 0l-75 189h-363l-75 -189h-91l302 740h91l303 -740h-92zM358 636l-149 -366h297z" />
    <glyph glyph-name="Beta" unicode="&#x392;" horiz-adv-x="624" 
d="M95 0v740h188q261 0 261 -190q0 -59 -30 -102.5t-90 -60.5q74 -15 111.5 -63.5t37.5 -120.5q0 -102 -75 -152.5t-215 -50.5h-188zM180 427h150q62 0 96 28t34 84q0 120 -161 120h-119v-232zM180 81h120q94 0 141.5 35.5t47.5 98.5q0 62 -43 96.5t-122 34.5h-144v-265z
" />
    <glyph glyph-name="Gamma" unicode="&#x393;" horiz-adv-x="544" 
d="M95 740h437v-82h-352v-658h-85v740z" />
    <glyph glyph-name="uni0394" unicode="&#x394;" horiz-adv-x="683" 
d="M385 740l287 -740h-661l288 740h86zM133 80h416l-208 544z" />
    <glyph glyph-name="Epsilon" unicode="&#x395;" horiz-adv-x="574" 
d="M95 0v740h436v-82h-351v-231h293v-82h-293v-263h351v-82h-436z" />
    <glyph glyph-name="Zeta" unicode="&#x396;" horiz-adv-x="627" 
d="M599 740v-75l-461 -583h460v-82h-575v75l462 583h-451v82h565z" />
    <glyph glyph-name="Eta" unicode="&#x397;" horiz-adv-x="787" 
d="M607 740h85v-740h-85v347h-427v-347h-85v740h85v-311h427v311z" />
    <glyph glyph-name="Theta" unicode="&#x398;" horiz-adv-x="859" 
d="M429 -13q-161 0 -273.5 111t-112.5 271q0 159 111.5 271.5t274.5 112.5q164 0 275.5 -112t111.5 -272t-112.5 -271t-274.5 -111zM429 66q127 0 214 89t87 213q0 125 -86.5 215.5t-214.5 90.5q-127 0 -213.5 -90.5t-86.5 -215.5q0 -124 87 -213t213 -89zM246 406h367v-74
h-367v74z" />
    <glyph glyph-name="Iota" unicode="&#x399;" horiz-adv-x="276" 
d="M95 0v740h85v-740h-85z" />
    <glyph glyph-name="Kappa" unicode="&#x39a;" horiz-adv-x="619" 
d="M261 369l371 -369h-114l-338 336v-336h-85v740h85v-340l317 340h109z" />
    <glyph glyph-name="Lambda" unicode="&#x39b;" horiz-adv-x="681" 
d="M672 0h-92l-239 624l-239 -624h-92l288 740h86z" />
    <glyph glyph-name="Mu" unicode="&#x39c;" horiz-adv-x="924" 
d="M715 740h114v-740h-86v630l-240 -344h-84l-239 345v-631h-85v740h114l253 -366z" />
    <glyph glyph-name="Nu" unicode="&#x39d;" horiz-adv-x="830" 
d="M650 740h84v-740h-92l-462 634v-634h-85v740h111l444 -608v608z" />
    <glyph glyph-name="Xi" unicode="&#x39e;" horiz-adv-x="557" 
d="M517 740v-82h-478v82h478zM457 417v-82h-358v82h358zM517 82v-82h-478v82h478z" />
    <glyph glyph-name="Omicron" unicode="&#x39f;" horiz-adv-x="859" 
d="M429 -13q-161 0 -273.5 111t-112.5 271q0 159 111.5 271.5t274.5 112.5q164 0 275.5 -112t111.5 -272t-112.5 -271t-274.5 -111zM429 66q127 0 214 89t87 213q0 125 -86.5 215.5t-214.5 90.5q-127 0 -213.5 -90.5t-86.5 -215.5q0 -124 87 -213t213 -89z" />
    <glyph glyph-name="Pi" unicode="&#x3a0;" horiz-adv-x="767" 
d="M672 740v-740h-85v658h-407v-658h-85v740h577z" />
    <glyph glyph-name="Rho" unicode="&#x3a1;" horiz-adv-x="615" 
d="M95 0v740h214q138 0 208 -63t70 -172q0 -108 -70.5 -171.5t-207.5 -63.5h-129v-270h-85zM180 352h129q96 0 144.5 40.5t48.5 112.5t-48.5 112.5t-144.5 40.5h-129v-306z" />
    <glyph glyph-name="Sigma" unicode="&#x3a3;" horiz-adv-x="525" 
d="M496 740v-82h-354l195 -285v-8l-194 -283h353v-82h-461v72l203 297l-203 299v72h461z" />
    <glyph glyph-name="Tau" unicode="&#x3a4;" horiz-adv-x="601" 
d="M259 0v658h-247v82h577v-82h-245v-658h-85z" />
    <glyph glyph-name="Upsilon" unicode="&#x3a5;" horiz-adv-x="669" 
d="M552 740h99l-274 -409v-331h-85v331l-273 409h99l217 -328z" />
    <glyph glyph-name="Phi" unicode="&#x3a6;" horiz-adv-x="821" 
d="M782 369q0 -130 -92 -224.5t-239 -107.5v-72h-85v72q-145 14 -236 108.5t-91 223.5t90.5 224.5t236.5 109.5v72h85v-72q148 -12 239.5 -108t91.5 -226zM451 115q111 12 178 84.5t67 168.5q0 97 -66.5 171t-178.5 86v-510zM125 368q0 -95 66 -167t175 -85v508
q-110 -14 -175.5 -87t-65.5 -169z" />
    <glyph glyph-name="Chi" unicode="&#x3a7;" horiz-adv-x="633" 
d="M628 0h-102l-212 304l-211 -304h-102l262 377l-253 363h102l206 -296l206 296h101l-255 -369z" />
    <glyph glyph-name="Psi" unicode="&#x3a8;" horiz-adv-x="769" 
d="M648 740h85l-1 -168q-1 -147 -81 -230t-223 -94v-248h-86v248q-143 11 -224 94t-80 230v168h85v-144q-1 -118 53 -187.5t166 -81.5l1 413h85v-413q217 23 219 269z" />
    <glyph glyph-name="uni03A9" unicode="&#x3a9;" horiz-adv-x="831" 
d="M780 388q0 -103 -46.5 -185.5t-128.5 -131.5h169v-71h-316v71q100 24 168 111t68 202q0 126 -79.5 208t-198.5 82t-199 -82t-80 -208q0 -115 68.5 -202t167.5 -111v-71h-316v71h169q-81 49 -127.5 131.5t-46.5 185.5q0 157 105 261t259 104t259 -104t105 -261z" />
    <glyph glyph-name="Iotadieresis" unicode="&#x3aa;" horiz-adv-x="280" 
d="M33 846q-26 0 -43.5 17.5t-17.5 43.5t17.5 43t43.5 17t43.5 -17t17.5 -43t-17.5 -43.5t-43.5 -17.5zM246 846q-26 0 -43.5 17.5t-17.5 43.5t17.5 43t43.5 17t43.5 -17.5t17.5 -42.5t-17.5 -43t-43.5 -18zM98 0v740h85v-740h-85z" />
    <glyph glyph-name="Upsilondieresis" unicode="&#x3ab;" horiz-adv-x="669" 
d="M223 846q-25 0 -43 18t-18 43t17.5 42.5t43.5 17.5t43.5 -17t17.5 -43t-17.5 -43.5t-43.5 -17.5zM436 846q-26 0 -43.5 18t-17.5 43t17.5 42.5t43.5 17.5t43.5 -17t17.5 -43t-17.5 -43.5t-43.5 -17.5zM552 740h99l-274 -409v-331h-85v331l-273 409h99l217 -328z" />
    <glyph glyph-name="alphatonos" unicode="&#x3ac;" horiz-adv-x="624" 
d="M398 794l-61 -222l-69 15l51 207h79zM579 64q14 0 25 4v-72q-18 -7 -48 -7q-39 0 -65 21.5t-34 61.5q-66 -81 -176 -81q-99 0 -171.5 72t-72.5 175t72.5 174.5t171.5 71.5q104 0 173 -77v68h80v-352q0 -59 45 -59zM285 66q71 0 120 50t49 122q0 71 -49 121t-120 50
q-68 0 -117 -50t-49 -121t49 -121.5t117 -50.5z" />
    <glyph glyph-name="epsilontonos" unicode="&#x3ad;" horiz-adv-x="472" 
d="M332 794l-60 -222l-69 15l51 207h78zM388 124l68 -41q-55 -100 -209 -100q-92 0 -148.5 39.5t-56.5 109.5q0 44 23.5 75t63.5 43q-34 13 -54 42t-20 67q0 62 50.5 97.5t137.5 35.5q69 0 119 -24.5t74 -66.5l-66 -38q-37 60 -122 60q-52 0 -82 -19.5t-30 -52.5
q0 -32 23 -52t69 -20h86v-66h-89q-50 0 -76 -21.5t-26 -57.5q0 -38 34 -60t90 -22q52 0 88.5 20t52.5 52z" />
    <glyph glyph-name="etatonos" unicode="&#x3ae;" horiz-adv-x="579" 
d="M383 794l-61 -222l-69 15l51 207h79zM323 484q84 0 137 -52.5t53 -164.5v-520h-80v513q0 74 -33.5 111t-92.5 37q-137 0 -137 -162v-246h-80v340q0 60 -44 60q-8 0 -26 -4v71q17 8 48 8q76 0 96 -74q50 83 159 83z" />
    <glyph glyph-name="iotatonos" unicode="&#x3af;" horiz-adv-x="251" 
d="M78 587l50 207h79l-60 -222zM185 -11q-54 0 -84.5 30t-30.5 88v368h80v-353q0 -58 54 -58q21 0 35 6v-72q-25 -9 -54 -9z" />
    <glyph glyph-name="upsilondieresistonos" unicode="&#x3b0;" horiz-adv-x="586" 
d="M243 588l49 202h78l-58 -217zM157 578q-23 0 -39 16t-16 40q0 23 16 39t39 16q24 0 40 -16t16 -39q0 -24 -16 -40t-40 -16zM423 578q-23 0 -39 16t-16 40q0 23 16 39t39 16q24 0 40 -16t16 -39q0 -24 -16 -40t-40 -16zM287 -11q-97 0 -156.5 54t-59.5 161v271h80v-256
q0 -154 136 -154t136 154v256h80v-271q0 -107 -59.5 -161t-156.5 -54z" />
    <glyph glyph-name="alpha" unicode="&#x3b1;" horiz-adv-x="624" 
d="M579 64q14 0 25 4v-72q-18 -7 -48 -7q-39 0 -65 21.5t-34 61.5q-66 -81 -176 -81q-99 0 -171.5 72t-72.5 175t72.5 174.5t171.5 71.5q104 0 173 -77v68h80v-352q0 -59 45 -59zM285 66q71 0 120 50t49 122q0 71 -49 121t-120 50q-68 0 -117 -50t-49 -121t49 -121.5
t117 -50.5z" />
    <glyph glyph-name="beta" unicode="&#x3b2;" horiz-adv-x="574" 
d="M393 400q66 -19 105 -72.5t39 -127.5q0 -97 -62.5 -153t-158.5 -56q-103 0 -163 68v-312h-80v766q0 108 58.5 172.5t160.5 64.5q91 0 147 -51.5t56 -135.5q0 -60 -29 -102t-73 -61zM309 66q68 0 108 39.5t40 102.5q0 66 -45 108.5t-128 42.5h-47v73h47q59 0 95 34.5
t36 88.5q0 53 -34.5 86.5t-90.5 33.5q-63 0 -100 -43t-37 -119v-295q1 -67 44 -110t112 -42z" />
    <glyph glyph-name="gamma" unicode="&#x3b3;" horiz-adv-x="521" 
d="M421 475h87l-208 -500v-228h-80v228l-208 500h87l161 -403z" />
    <glyph glyph-name="delta" unicode="&#x3b4;" horiz-adv-x="574" 
d="M411 466q68 -61 97 -115.5t29 -113.5q0 -103 -72.5 -175.5t-177.5 -72.5t-177.5 72.5t-72.5 175.5q0 99 68.5 171t167.5 72h10l-206 186v74h400v-74h-287zM287 65q72 0 120 51t48 123q0 69 -48 120t-120 51q-73 0 -120.5 -49.5t-47.5 -121.5t48 -123t120 -51z" />
    <glyph glyph-name="epsilon" unicode="&#x3b5;" horiz-adv-x="472" 
d="M388 124l68 -41q-55 -100 -209 -100q-92 0 -148.5 39.5t-56.5 109.5q0 44 23.5 75t63.5 43q-34 13 -54 42t-20 67q0 62 50.5 97.5t137.5 35.5q69 0 119 -24.5t74 -66.5l-66 -38q-37 60 -122 60q-52 0 -82 -19.5t-30 -52.5q0 -32 23 -52t69 -20h86v-66h-89
q-50 0 -76 -21.5t-26 -57.5q0 -38 34 -60t90 -22q52 0 88.5 20t52.5 52z" />
    <glyph glyph-name="zeta" unicode="&#x3b6;" horiz-adv-x="451" 
d="M318 76l111 -1v-263h-80v188h-25q-144 0 -213.5 66.5t-69.5 174.5q0 94 44 168t134 160l99 97h-280v74h388v-75l-153 -149q-77 -73 -113.5 -134t-36.5 -138q0 -75 47.5 -121.5t147.5 -46.5z" />
    <glyph glyph-name="eta" unicode="&#x3b7;" horiz-adv-x="579" 
d="M323 484q84 0 137 -52.5t53 -164.5v-520h-80v513q0 74 -33.5 111t-92.5 37q-137 0 -137 -162v-246h-80v340q0 60 -44 60q-8 0 -26 -4v71q17 8 48 8q76 0 96 -74q50 83 159 83z" />
    <glyph glyph-name="theta" unicode="&#x3b8;" horiz-adv-x="597" 
d="M298 753q117 0 184.5 -99t67.5 -285t-68 -284t-184 -98t-184 97.5t-68 284.5q0 186 68 285t184 99zM298 677q-76 0 -120.5 -69t-49.5 -202h341q-6 134 -50.5 202.5t-120.5 68.5zM298 63q77 0 121.5 67.5t49.5 201.5h-341q5 -134 49 -201.5t121 -67.5z" />
    <glyph glyph-name="iota" unicode="&#x3b9;" horiz-adv-x="251" 
d="M185 -11q-54 0 -84.5 30t-30.5 88v368h80v-353q0 -58 54 -58q21 0 35 6v-72q-25 -9 -54 -9z" />
    <glyph glyph-name="kappa" unicode="&#x3ba;" horiz-adv-x="489" 
d="M390 0l-165 219l-73 -69v-150h-79v475h79v-228l174 172q30 30 57 43t68 13h13v-71h-7q-39 0 -83 -41l-93 -89l204 -274h-95z" />
    <glyph glyph-name="lambda" unicode="&#x3bb;" horiz-adv-x="516" 
d="M501 0h-87l-157 381l-156 -381h-87l201 480l-64 153q-18 43 -55 43q-14 0 -31 -5v71q26 8 50 8q70 0 100 -72z" />
    <glyph glyph-name="uni03BC" unicode="&#x3bc;" horiz-adv-x="593" 
d="M548 64q14 0 25 4v-72q-18 -7 -47 -7q-78 0 -98 75q-48 -75 -140 -75q-87 0 -135 69v-227h-80v644h80v-246q0 -80 35.5 -122.5t99.5 -42.5t99.5 42.5t35.5 122.5v246h80v-352q0 -59 45 -59z" />
    <glyph glyph-name="nu" unicode="&#x3bd;" horiz-adv-x="514" 
d="M413 475h87l-200 -475h-86l-200 475h87l156 -382z" />
    <glyph glyph-name="xi" unicode="&#x3be;" horiz-adv-x="448" 
d="M321 76l105 -1v-263h-80v188h-15q-148 0 -220.5 57.5t-72.5 150.5q0 63 34 108.5t94 68.5q-99 41 -99 144q0 88 82 137h-119v74h388v-74h-123q-68 0 -106.5 -35.5t-38.5 -89.5q0 -53 31.5 -86t98.5 -33h104v-77h-126q-65 0 -101.5 -38t-36.5 -91q0 -64 48.5 -102
t152.5 -38z" />
    <glyph glyph-name="omicron" unicode="&#x3bf;" horiz-adv-x="574" 
d="M287 -11q-105 0 -177.5 73t-72.5 175t72 174.5t178 72.5t178 -72.5t72 -174.5t-72.5 -175t-177.5 -73zM287 65q73 0 120.5 50.5t47.5 121.5t-47.5 121t-120.5 50t-120.5 -50t-47.5 -121t47.5 -121.5t120.5 -50.5z" />
    <glyph glyph-name="pi" unicode="&#x3c0;" horiz-adv-x="594" 
d="M562 401h-82v-282q0 -55 48 -55q12 0 34 5v-73q-24 -7 -47 -7q-55 0 -85 30.5t-30 89.5v292h-218v-401h-80v401h-88v74h548v-74z" />
    <glyph glyph-name="rho" unicode="&#x3c1;" horiz-adv-x="594" 
d="M306 484q104 0 176.5 -72t72.5 -176t-72 -175.5t-173 -71.5q-107 0 -171 81v-323h-80v490q0 104 72 175.5t175 71.5zM306 64q71 0 119.5 50t48.5 123q0 72 -49 122t-119 50t-118.5 -50t-48.5 -123t48.5 -122.5t118.5 -49.5z" />
    <glyph glyph-name="uni03C2" unicode="&#x3c2;" horiz-adv-x="505" 
d="M119 250q0 -76 62.5 -125t182.5 -49l96 -1v-263h-80v188h-16q-152 0 -239.5 71.5t-87.5 178.5q0 101 68.5 167.5t173.5 66.5q66 0 120.5 -29t88.5 -82l-67 -39q-49 74 -142 74q-72 0 -116 -44.5t-44 -113.5z" />
    <glyph glyph-name="sigma" unicode="&#x3c3;" horiz-adv-x="593" 
d="M566 475v-77h-114q79 -64 79 -166q0 -99 -72 -171t-175 -72t-175 72t-72 171t72 171t175 72h282zM284 65q73 0 119.5 48.5t46.5 118.5t-47 118.5t-119 48.5t-118.5 -48.5t-46.5 -118.5t46 -118.5t119 -48.5z" />
    <glyph glyph-name="tau" unicode="&#x3c4;" horiz-adv-x="500" 
d="M474 401h-219v-227q2 -110 121 -110q43 0 83 8v-72q-38 -11 -90 -11q-89 0 -141.5 47t-52.5 127v238h-164v74h463v-74z" />
    <glyph glyph-name="upsilon" unicode="&#x3c5;" horiz-adv-x="562" 
d="M281 -11q-97 0 -156.5 54t-59.5 161v271h80v-256q0 -154 136 -154t136 154v256h80v-271q0 -107 -59.5 -161t-156.5 -54z" />
    <glyph glyph-name="phi" unicode="&#x3c6;" horiz-adv-x="668" 
d="M630 227q0 -101 -71.5 -172.5t-182.5 -75.5v-232h-84v232q-111 4 -182.5 75.5t-71.5 172.5t71 172t183 75v169h84v-169q112 -4 183 -75t71 -172zM119 227q0 -69 47 -118t126 -53v342q-78 -4 -125.5 -53t-47.5 -118zM376 56q78 4 125.5 53t47.5 118t-47.5 118t-125.5 53
v-342z" />
    <glyph glyph-name="chi" unicode="&#x3c7;" horiz-adv-x="544" 
d="M521 -253h-92l-149 290l-147 -290h-94l197 377l-124 242q-22 44 -61 44q-16 0 -35 -7v72q28 8 50 8q41 0 69.5 -18.5t50.5 -61.5l97 -189l128 261h94l-179 -346z" />
    <glyph glyph-name="psi" unicode="&#x3c8;" horiz-adv-x="667" 
d="M526 475h80v-235q0 -107 -63.5 -172.5t-169.5 -76.5v-244h-80v244q-106 11 -169.5 76.5t-63.5 172.5v235h80v-220q0 -80 41 -128t112 -59v575h80v-575q71 11 112 59t41 128v220z" />
    <glyph glyph-name="omega" unicode="&#x3c9;" horiz-adv-x="732" 
d="M567 485q54 -27 89 -91t35 -161q0 -114 -51.5 -178.5t-133.5 -64.5q-57 0 -93.5 30.5t-46.5 75.5q-10 -46 -46.5 -76t-92.5 -30q-83 0 -134.5 64.5t-51.5 178.5q0 96 35 160.5t89 91.5l41 -68q-36 -16 -59.5 -65t-23.5 -126q0 -160 108 -160q42 1 68.5 31.5t26.5 85.5
v168h80v-168q0 -54 27 -85t69 -32q51 0 79.5 40t28.5 120q0 77 -23.5 126t-60.5 65z" />
    <glyph glyph-name="iotadieresis" unicode="&#x3ca;" horiz-adv-x="258" 
d="M5 578q-23 0 -39 16t-16 40q0 23 16 39t39 16q24 0 40 -16t16 -39q0 -24 -16 -40t-40 -16zM207 578q-23 0 -39 16t-16 40q0 23 16 39t39 16q24 0 40 -16t16 -39q0 -24 -16 -40t-40 -16zM175 -11q-54 0 -84.5 30t-30.5 88v368h80v-353q0 -58 54 -58q21 0 35 6v-72
q-25 -9 -54 -9z" />
    <glyph glyph-name="upsilondieresis" unicode="&#x3cb;" horiz-adv-x="562" 
d="M183 578q-24 0 -40 16t-16 40q0 23 16 39t40 16q23 0 39 -16t16 -39q0 -24 -16 -40t-39 -16zM384 578q-23 0 -39 16t-16 40q0 23 16 39t39 16q24 0 40 -16t16 -39q0 -24 -16 -40t-40 -16zM281 -11q-97 0 -156.5 54t-59.5 161v271h80v-256q0 -154 136 -154t136 154v256h80
v-271q0 -107 -59.5 -161t-156.5 -54z" />
    <glyph glyph-name="omicrontonos" unicode="&#x3cc;" horiz-adv-x="574" 
d="M248 587l51 207h78l-60 -222zM287 -11q-105 0 -177.5 73t-72.5 175t72 174.5t178 72.5t178 -72.5t72 -174.5t-72.5 -175t-177.5 -73zM287 65q73 0 120.5 50.5t47.5 121.5t-47.5 121t-120.5 50t-120.5 -50t-47.5 -121t47.5 -121.5t120.5 -50.5z" />
    <glyph glyph-name="upsilontonos" unicode="&#x3cd;" horiz-adv-x="562" 
d="M245 587l51 207h79l-60 -222zM281 -11q-97 0 -156.5 54t-59.5 161v271h80v-256q0 -154 136 -154t136 154v256h80v-271q0 -107 -59.5 -161t-156.5 -54z" />
    <glyph glyph-name="omegatonos" unicode="&#x3ce;" horiz-adv-x="732" 
d="M461 794l-60 -222l-69 15l51 207h78zM567 485q54 -27 89 -91t35 -161q0 -114 -51.5 -178.5t-133.5 -64.5q-57 0 -93.5 30.5t-46.5 75.5q-10 -46 -46.5 -76t-92.5 -30q-83 0 -134.5 64.5t-51.5 178.5q0 96 35 160.5t89 91.5l41 -68q-36 -16 -59.5 -65t-23.5 -126
q0 -160 108 -160q42 1 68.5 31.5t26.5 85.5v168h80v-168q0 -54 27 -85t69 -32q51 0 79.5 40t28.5 120q0 77 -23.5 126t-60.5 65z" />
    <glyph glyph-name="uni0401" unicode="&#x401;" horiz-adv-x="574" 
d="M214 846q-26 0 -43.5 18t-17.5 43t17.5 42.5t43.5 17.5t44 -17.5t18 -42.5q0 -26 -18 -43.5t-44 -17.5zM427 846q-25 0 -43 18t-18 43t17.5 42.5t43.5 17.5t43.5 -17t17.5 -43t-17.5 -43.5t-43.5 -17.5zM95 0v740h436v-82h-351v-231h293v-82h-293v-263h351v-82h-436z" />
    <glyph glyph-name="uni0402" unicode="&#x402;" horiz-adv-x="727" 
d="M449 435q114 0 181 -58t67 -167q0 -105 -61 -162.5t-153 -57.5q-43 0 -73 10v84q28 -11 73 -11q55 0 91.5 35t36.5 103q0 70 -44.5 106t-118.5 36h-164v-353h-85v658h-186v82h531v-82h-260v-223h165z" />
    <glyph glyph-name="uni0403" unicode="&#x403;" horiz-adv-x="544" 
d="M220 815l-31 63l219 118l33 -70zM95 740h437v-82h-352v-658h-85v740z" />
    <glyph glyph-name="uni0410" unicode="&#x410;" horiz-adv-x="715" 
d="M614 0l-75 189h-363l-75 -189h-91l302 740h91l303 -740h-92zM358 636l-149 -366h297z" />
    <glyph glyph-name="uni0411" unicode="&#x411;" horiz-adv-x="641" 
d="M356 415q126 0 190.5 -56t64.5 -152t-64.5 -151.5t-190.5 -55.5h-261v740h453v-82h-368v-243h176zM362 82q80 0 122 33.5t42 92.5t-42 92.5t-122 33.5h-182v-252h182z" />
    <glyph glyph-name="uni0412" unicode="&#x412;" horiz-adv-x="624" 
d="M95 0v740h188q261 0 261 -190q0 -59 -30 -102.5t-90 -60.5q74 -15 111.5 -63.5t37.5 -120.5q0 -102 -75 -152.5t-215 -50.5h-188zM180 427h150q62 0 96 28t34 84q0 120 -161 120h-119v-232zM180 81h120q94 0 141.5 35.5t47.5 98.5q0 62 -43 96.5t-122 34.5h-144v-265z
" />
    <glyph glyph-name="uni0413" unicode="&#x413;" horiz-adv-x="544" 
d="M95 740h437v-82h-352v-658h-85v740z" />
    <glyph glyph-name="uni0414" unicode="&#x414;" horiz-adv-x="773" 
d="M651 80h80v-263h-83v183h-554v-183h-82v263h97q74 312 74 660h468v-660zM194 80h372v578h-298q-9 -310 -74 -578z" />
    <glyph glyph-name="uni0415" unicode="&#x415;" horiz-adv-x="574" 
d="M95 0v740h436v-82h-351v-231h293v-82h-293v-263h351v-82h-436z" />
    <glyph glyph-name="uni0416" unicode="&#x416;" horiz-adv-x="840" 
d="M536 371l314 -371h-105l-283 336v-336h-83v336l-283 -336h-105l314 370l-288 370h100l262 -340v340h83v-340l262 340h100z" />
    <glyph glyph-name="uni0417" unicode="&#x417;" horiz-adv-x="563" 
d="M379 394q60 -24 93.5 -75t33.5 -120q0 -95 -65 -153.5t-166 -58.5q-107 0 -171.5 60.5t-69.5 166.5h82q5 -67 47.5 -108t109.5 -41q66 0 106.5 40.5t40.5 100.5t-37.5 104t-103.5 44h-44v78h42q62 0 94 35t32 87q0 50 -33 85.5t-91 35.5q-63 0 -100.5 -39.5t-38.5 -98.5
h-82q2 93 62 154.5t160 61.5q97 0 153 -54.5t56 -135.5q0 -55 -28.5 -100.5t-81.5 -68.5z" />
    <glyph glyph-name="uni0418" unicode="&#x418;" horiz-adv-x="797" 
d="M591 740h111v-740h-86v635l-429 -635h-92v740h85v-610z" />
    <glyph glyph-name="uni0419" unicode="&#x419;" horiz-adv-x="797" 
d="M398 806q-73 0 -120 49t-47 126h69q0 -48 26.5 -76t71.5 -28q44 0 70.5 28t26.5 76h69q0 -77 -46.5 -126t-119.5 -49zM591 740h111v-740h-86v635l-429 -635h-92v740h85v-610z" />
    <glyph glyph-name="uni041A" unicode="&#x41a;" horiz-adv-x="619" 
d="M261 369l371 -369h-114l-338 336v-336h-85v740h85v-340l317 340h109z" />
    <glyph glyph-name="uni041B" unicode="&#x41b;" horiz-adv-x="738" 
d="M643 740v-740h-86v658h-303q-12 -212 -30 -344t-48.5 -201.5t-65.5 -92.5t-90 -23v83q31 0 51 20.5t40 85.5t35.5 200.5t27.5 353.5h469z" />
    <glyph glyph-name="uni041C" unicode="&#x41c;" horiz-adv-x="924" 
d="M715 740h114v-740h-86v630l-240 -344h-84l-239 345v-631h-85v740h114l253 -366z" />
    <glyph glyph-name="uni041D" unicode="&#x41d;" horiz-adv-x="787" 
d="M607 740h85v-740h-85v347h-427v-347h-85v740h85v-311h427v311z" />
    <glyph glyph-name="uni041E" unicode="&#x41e;" horiz-adv-x="859" 
d="M429 -13q-161 0 -273.5 111t-112.5 271q0 159 111.5 271.5t274.5 112.5q164 0 275.5 -112t111.5 -272t-112.5 -271t-274.5 -111zM429 66q127 0 214 89t87 213q0 125 -86.5 215.5t-214.5 90.5q-127 0 -213.5 -90.5t-86.5 -215.5q0 -124 87 -213t213 -89z" />
    <glyph glyph-name="uni041F" unicode="&#x41f;" horiz-adv-x="774" 
d="M679 740v-740h-86v658h-413v-658h-85v740h584z" />
    <glyph glyph-name="uni0420" unicode="&#x420;" horiz-adv-x="615" 
d="M95 0v740h214q138 0 208 -63t70 -172q0 -108 -70.5 -171.5t-207.5 -63.5h-129v-270h-85zM180 352h129q96 0 144.5 40.5t48.5 112.5t-48.5 112.5t-144.5 40.5h-129v-306z" />
    <glyph glyph-name="uni0421" unicode="&#x421;" horiz-adv-x="723" 
d="M429 -13q-161 0 -273.5 111t-112.5 271q0 159 111.5 271.5t274.5 112.5t277 -117l-57 -58q-87 96 -220 96q-127 0 -213.5 -90.5t-86.5 -215.5q0 -124 87 -213t213 -89q124 0 214 88l53 -59q-113 -108 -267 -108z" />
    <glyph glyph-name="uni0422" unicode="&#x422;" horiz-adv-x="601" 
d="M259 0v658h-247v82h577v-82h-245v-658h-85z" />
    <glyph glyph-name="uni0423" unicode="&#x423;" horiz-adv-x="648" 
d="M545 740h100l-330 -577q-55 -97 -107.5 -136.5t-127.5 -39.5v79q46 0 82 24.5t69 81.5l53 92l-263 476h100l207 -390z" />
    <glyph glyph-name="uni0424" unicode="&#x424;" horiz-adv-x="832" 
d="M793 376q0 -129 -85.5 -204t-248.5 -80v-127h-85v127q-163 5 -249 80t-86 204t86 204t249 80v115h85v-115q163 -5 248.5 -80t85.5 -204zM124 376q0 -97 63.5 -148.5t186.5 -56.5v410q-123 -5 -186.5 -56.5t-63.5 -148.5zM459 171q122 5 185.5 56.5t63.5 148.5
q0 96 -63.5 147.5t-185.5 56.5v-409z" />
    <glyph glyph-name="uni0425" unicode="&#x425;" horiz-adv-x="633" 
d="M628 0h-102l-212 304l-211 -304h-102l262 377l-253 363h102l206 -296l206 296h101l-255 -369z" />
    <glyph glyph-name="uni0426" unicode="&#x426;" horiz-adv-x="801" 
d="M679 80h79v-263h-82v183h-581v740h85v-660h413v660h86v-660z" />
    <glyph glyph-name="uni0427" unicode="&#x427;" horiz-adv-x="712" 
d="M536 740h81v-740h-86l2 349q-36 -47 -96 -75.5t-137 -28.5q-116 0 -184.5 64t-68.5 191v240h86v-238q0 -90 49.5 -134t134.5 -44q88 0 152.5 48.5t64.5 126.5v-1z" />
    <glyph glyph-name="uni0428" unicode="&#x428;" horiz-adv-x="1037" 
d="M856 740h86v-740h-847v740h85v-660h296v660h85v-660h295v660z" />
    <glyph glyph-name="uni0429" unicode="&#x429;" horiz-adv-x="1063" 
d="M942 80h79v-263h-82v183h-844v740h85v-660h296v660h85v-660h295v660h86v-660z" />
    <glyph glyph-name="uni042A" unicode="&#x42a;" horiz-adv-x="776" 
d="M497 415q125 0 189.5 -56t64.5 -152q0 -95 -64.5 -151t-189.5 -56h-261v658h-224v82h309v-325h176zM503 82q80 0 122 33.5t42 92.5t-42 92.5t-122 33.5h-182v-252h182z" />
    <glyph glyph-name="uni042B" unicode="&#x42b;" horiz-adv-x="910" 
d="M180 740v-325h176q126 0 190.5 -56t64.5 -152t-64.5 -151.5t-190.5 -55.5h-261v740h85zM730 740h85v-740h-85v740zM180 82h182q80 0 122 33.5t42 92.5t-42 92.5t-122 33.5h-182v-252z" />
    <glyph glyph-name="uni042C" unicode="&#x42c;" horiz-adv-x="636" 
d="M180 740v-325h176q126 0 190.5 -56t64.5 -152t-64.5 -151.5t-190.5 -55.5h-261v740h85zM180 82h182q80 0 122 33.5t42 92.5t-42 92.5t-122 33.5h-182v-252z" />
    <glyph glyph-name="uni042D" unicode="&#x42d;" horiz-adv-x="724" 
d="M295 753q164 0 275 -112t111 -272t-112.5 -271t-273.5 -111q-154 0 -267 108l53 59q91 -88 214 -88q118 0 203 79t96 193h-352v78h349q-17 110 -99 184t-197 74q-133 0 -220 -96l-57 58q114 117 277 117z" />
    <glyph glyph-name="uni042E" unicode="&#x42e;" horiz-adv-x="1052" 
d="M671 753q148 0 241.5 -107.5t93.5 -276.5q0 -170 -94 -276t-241 -106q-142 0 -235.5 99.5t-100.5 260.5h-155v-347h-85v740h85v-311h158q17 146 108 235t225 89zM671 66q112 0 180.5 83t68.5 219q0 137 -68 221.5t-181 84.5t-181.5 -84.5t-68.5 -221.5q0 -136 69 -219
t181 -83z" />
    <glyph glyph-name="uni042F" unicode="&#x42f;" horiz-adv-x="662" 
d="M311 740h256v-740h-85v325h-159l-190 -325h-97l195 331q-89 16 -134.5 69t-45.5 133q0 96 64 151.5t196 55.5zM482 403v255h-182q-164 0 -164 -128q0 -127 164 -127h182z" />
    <glyph glyph-name="uni0430" unicode="&#x430;" horiz-adv-x="607" 
d="M454 475h80v-475h-80v68q-69 -77 -173 -77q-99 0 -171.5 72t-72.5 175t72.5 174.5t171.5 71.5q104 0 173 -77v68zM285 66q71 0 120 50t49 122q0 71 -49 121t-120 50q-68 0 -117 -50t-49 -121t49 -121.5t117 -50.5z" />
    <glyph glyph-name="uni0431" unicode="&#x431;" horiz-adv-x="581" 
d="M307 479q102 0 169 -71.5t67 -170.5q0 -104 -72 -176t-177 -72q-109 0 -181 79t-72 206q0 230 225 359l184 107l38 -66l-188 -108q-117 -66 -158 -162q61 75 165 75zM295 65q74 0 120.5 49.5t46.5 119.5q0 71 -47 122.5t-120 51.5q-56 0 -103 -31.5t-75 -92.5v-9
q0 -94 49 -152t129 -58z" />
    <glyph glyph-name="uni0432" unicode="&#x432;" horiz-adv-x="485" 
d="M73 475h172q88 0 132.5 -32.5t44.5 -88.5q0 -38 -20 -66.5t-60 -38.5q46 -10 73.5 -41t27.5 -76q0 -64 -50 -98t-141 -34h-179v475zM258 275q39 0 61 17.5t22 48.5q0 67 -91 67h-99v-133h107zM252 67q110 0 110 74q0 36 -28 54.5t-75 18.5h-108v-147h101z" />
    <glyph glyph-name="uni0433" unicode="&#x433;" horiz-adv-x="418" 
d="M406 475v-75h-253v-400h-80v475h333z" />
    <glyph glyph-name="uni0434" unicode="&#x434;" horiz-adv-x="564" 
d="M468 70h57v-189h-78v119h-354v-119h-78v189h67q44 184 44 405h342v-405zM162 70h226v335h-183q-8 -184 -43 -335z" />
    <glyph glyph-name="uni0435" unicode="&#x435;" horiz-adv-x="551" 
d="M278 484q105 0 172.5 -70.5t67.5 -176.5q0 -17 -1 -26h-400q8 -66 54.5 -108t115.5 -42q95 0 145 68l55 -43q-70 -97 -198 -97q-112 0 -182 73t-70 176q0 101 69.5 173.5t171.5 72.5zM118 273h320q-8 63 -50.5 100.5t-108.5 37.5q-61 0 -106 -38t-55 -100z" />
    <glyph glyph-name="uni0436" unicode="&#x436;" horiz-adv-x="644" 
d="M644 0h-97l-186 209v-209h-78v209l-186 -209h-97l217 244l-204 231h95l175 -203v203h78v-203l175 203h94l-203 -231z" />
    <glyph glyph-name="uni0437" unicode="&#x437;" horiz-adv-x="446" 
d="M318 251q85 -25 85 -117q0 -67 -53 -106t-137 -39q-85 0 -135.5 38.5t-54.5 112.5h73q3 -35 35 -57.5t81 -22.5q51 0 80.5 21t29.5 58q0 35 -24 55t-70 20h-46v67h42q42 0 63.5 18t21.5 48t-23.5 48t-66.5 18q-44 0 -71 -20.5t-29 -51.5h-72q2 64 51 103.5t127 39.5
q77 0 121 -34t44 -92q0 -37 -19.5 -65.5t-52.5 -41.5z" />
    <glyph glyph-name="uni0438" unicode="&#x438;" horiz-adv-x="576" 
d="M425 475h78v-475h-78v358l-274 -358h-78v475h78v-359z" />
    <glyph glyph-name="uni0439" unicode="&#x439;" horiz-adv-x="576" 
d="M295 541q-73 0 -120 49t-47 126h69q0 -48 26.5 -76t71.5 -28q44 0 70.5 28t26.5 76h69q0 -77 -46.5 -126t-119.5 -49zM425 475h78v-475h-78v358l-274 -358h-78v475h78v-359z" />
    <glyph glyph-name="uni043A" unicode="&#x43a;" horiz-adv-x="479" 
d="M486 0h-106l-227 211v-211h-80v475h80v-205l211 205h104l-239 -231z" />
    <glyph glyph-name="uni043B" unicode="&#x43b;" horiz-adv-x="557" 
d="M484 475v-475h-80v400h-203q-7 -130 -20.5 -210.5t-37.5 -123t-51.5 -56.5t-72.5 -14v76q31 0 49 24t33.5 114t24.5 265h358z" />
    <glyph glyph-name="uni043C" unicode="&#x43c;" horiz-adv-x="652" 
d="M480 475h98v-475h-78v379l-145 -211h-59l-145 211v-379h-78v475h98l155 -227z" />
    <glyph glyph-name="uni043D" unicode="&#x43d;" horiz-adv-x="576" 
d="M423 475h80v-475h-80v209h-270v-209h-80v475h80v-190h270v190z" />
    <glyph glyph-name="uni043E" unicode="&#x43e;" horiz-adv-x="574" 
d="M287 -11q-105 0 -177.5 73t-72.5 175t72 174.5t178 72.5t178 -72.5t72 -174.5t-72.5 -175t-177.5 -73zM287 65q73 0 120.5 50.5t47.5 121.5t-47.5 121t-120.5 50t-120.5 -50t-47.5 -121t47.5 -121.5t120.5 -50.5z" />
    <glyph glyph-name="uni043F" unicode="&#x43f;" horiz-adv-x="562" 
d="M489 475v-475h-80v400h-256v-400h-80v475h416z" />
    <glyph glyph-name="uni0440" unicode="&#x440;" horiz-adv-x="608" 
d="M326 484q99 0 171.5 -71.5t72.5 -174.5t-72.5 -175t-171.5 -72q-104 0 -173 77v-321h-80v728h80v-68q69 77 173 77zM322 66q68 0 117 50.5t49 121.5t-49 121t-117 50q-71 0 -120 -50t-49 -121q0 -72 49 -122t120 -50z" />
    <glyph glyph-name="uni0441" unicode="&#x441;" horiz-adv-x="522" 
d="M287 -11q-104 0 -177 72t-73 175t73 175.5t177 72.5q65 0 119.5 -29t89.5 -82l-67 -39q-50 74 -142 74q-72 0 -120 -50t-48 -122t48 -121.5t120 -49.5q93 0 145 77l66 -40q-35 -53 -90 -83t-121 -30z" />
    <glyph glyph-name="uni0442" unicode="&#x442;" horiz-adv-x="443" 
d="M432 475v-75h-170v-400h-80v400h-170v75h420z" />
    <glyph glyph-name="uni0443" unicode="&#x443;" horiz-adv-x="514" 
d="M413 475h87l-307 -728h-80l102 246l-202 482h87l156 -381z" />
    <glyph glyph-name="uni0444" unicode="&#x444;" horiz-adv-x="802" 
d="M558 484q89 0 147 -68.5t58 -177.5t-58.5 -178t-146.5 -69q-74 0 -117 39v-283h-79v283q-45 -39 -118 -39q-88 0 -146.5 69t-58.5 178t58 177.5t147 68.5q73 0 118 -39v295h79v-295q43 39 117 39zM252 66q71 0 110 49v245q-39 49 -110 49q-59 0 -96 -47.5t-37 -123.5
t37 -124t96 -48zM550 66q59 0 96 47.5t37 124.5q0 76 -37 123.5t-96 47.5q-71 0 -109 -49v-245q38 -49 109 -49z" />
    <glyph glyph-name="uni0445" unicode="&#x445;" horiz-adv-x="457" 
d="M450 0h-94l-128 184l-128 -184h-94l174 252l-155 223h94l113 -163l113 163h93l-159 -230z" />
    <glyph glyph-name="uni0446" unicode="&#x446;" horiz-adv-x="588" 
d="M484 75h78v-233h-78v158h-411v475h80v-400h251v400h80v-400z" />
    <glyph glyph-name="uni0447" unicode="&#x447;" horiz-adv-x="536" 
d="M383 475h80v-475h-80v220q-57 -66 -159 -66q-82 0 -135 46t-53 135v140h80v-128q0 -118 126 -118q61 0 101 31t40 82v133z" />
    <glyph glyph-name="uni0448" unicode="&#x448;" horiz-adv-x="746" 
d="M593 475h80v-475h-600v475h80v-400h180v400h80v-400h180v400z" />
    <glyph glyph-name="uni0449" unicode="&#x449;" horiz-adv-x="779" 
d="M673 75h78v-233h-78v158h-600v475h80v-400h180v400h80v-400h180v400h80v-400z" />
    <glyph glyph-name="uni044A" unicode="&#x44a;" horiz-adv-x="566" 
d="M363 285q89 0 134 -38.5t45 -104.5t-45.5 -104t-133.5 -38h-204v405h-147v70h225v-190h126zM371 70q45 0 68 20.5t23 52.5q0 31 -23.5 51t-67.5 20h-134v-144h134z" />
    <glyph glyph-name="uni044B" unicode="&#x44b;" horiz-adv-x="724" 
d="M151 475v-190h126q89 0 133.5 -38.5t44.5 -104.5t-45 -104t-133 -38h-204v475h78zM651 475v-475h-80v475h80zM151 70h134q45 0 67.5 20t22.5 53q0 32 -23 51.5t-67 19.5h-134v-144z" />
    <glyph glyph-name="uni044C" unicode="&#x44c;" horiz-adv-x="480" 
d="M151 475v-190h126q89 0 133.5 -38.5t44.5 -104.5t-45 -104t-133 -38h-204v475h78zM151 70h134q45 0 67.5 20t22.5 53q0 32 -23 51.5t-67 19.5h-134v-144z" />
    <glyph glyph-name="uni044D" unicode="&#x44d;" horiz-adv-x="523" 
d="M237 484q104 0 176.5 -72.5t72.5 -175.5t-72.5 -175t-176.5 -72q-66 0 -121.5 29.5t-90.5 83.5l67 40q50 -77 145 -77q62 0 108 38.5t57 98.5h-179v73h178q-13 59 -58 96t-106 37q-92 0 -142 -74l-67 39q34 53 89 82t120 29z" />
    <glyph glyph-name="uni044E" unicode="&#x44e;" horiz-adv-x="733" 
d="M470 484q100 0 162.5 -69t62.5 -178t-62.5 -178.5t-162.5 -69.5q-92 0 -153.5 61t-69.5 159h-94v-209h-80v475h80v-190h97q13 90 72.5 144.5t147.5 54.5zM470 65q67 0 105.5 47.5t38.5 124.5t-39 124t-105 47t-104.5 -47t-38.5 -124q0 -78 38.5 -125t104.5 -47z" />
    <glyph glyph-name="uni044F" unicode="&#x44f;" horiz-adv-x="499" 
d="M222 475h204v-475h-79v193h-102l-124 -193h-89l132 198q-60 12 -90.5 48t-30.5 89q0 64 45.5 102t133.5 38zM347 258v152h-123q-51 0 -76 -21t-25 -56q0 -34 25.5 -54.5t75.5 -20.5h123z" />
    <glyph glyph-name="uni0451" unicode="&#x451;" horiz-adv-x="551" 
d="M180 578q-23 0 -39 16t-16 40q0 23 16 39t39 16q24 0 40 -16t16 -39q0 -24 -16 -40t-40 -16zM382 578q-23 0 -39 16t-16 40q0 23 16 39t39 16q24 0 40 -16t16 -39q0 -24 -16 -40t-40 -16zM278 484q105 0 172.5 -70.5t67.5 -176.5q0 -17 -1 -26h-400q8 -66 54.5 -108
t115.5 -42q95 0 145 68l55 -43q-70 -97 -198 -97q-112 0 -182 73t-70 176q0 101 69.5 173.5t171.5 72.5zM118 273h320q-8 63 -50.5 100.5t-108.5 37.5q-61 0 -106 -38t-55 -100z" />
    <glyph glyph-name="uni0452" unicode="&#x452;" horiz-adv-x="577" 
d="M317 484q86 0 140 -52.5t54 -164.5v-349q0 -141 -122 -141q-22 0 -53 9v72q18 -6 33 -6q36 0 49 17.5t13 59.5v331q0 75 -34 111.5t-96 36.5q-140 0 -140 -162v-246h-80v575h-91v73h91v92h80v-92h194v-73h-194v-163q51 72 156 72z" />
    <glyph glyph-name="uni0453" unicode="&#x453;" horiz-adv-x="418" 
d="M368 653l-221 -112l-31 64l218 117zM406 475v-75h-253v-400h-80v475h333z" />
    <glyph glyph-name="uni04EE" unicode="&#x4ee;" horiz-adv-x="648" 
d="M520 942v-73h-319v73h319zM545 740h100l-330 -577q-55 -97 -107.5 -136.5t-127.5 -39.5v79q46 0 82 24.5t69 81.5l53 92l-263 476h100l207 -390z" />
    <glyph glyph-name="uni04EF" unicode="&#x4ef;" horiz-adv-x="514" 
d="M418 670v-73h-319v73h319zM413 475h87l-307 -728h-80l102 246l-202 482h87l156 -381z" />
    <glyph glyph-name="Wgrave" unicode="&#x1e80;" horiz-adv-x="1027" 
d="M640 878l-31 -63l-221 111l34 70zM922 740h92l-239 -740h-83l-179 601l-179 -601h-82l-239 740h92l187 -606l179 606h85l178 -608z" />
    <glyph glyph-name="wgrave" unicode="&#x1e81;" horiz-adv-x="805" 
d="M529 604l-31 -63l-221 111l33 69zM705 475h87l-175 -475h-87l-127 376l-128 -376h-86l-176 475h87l132 -380l128 380h85l128 -379z" />
    <glyph glyph-name="Wacute" unicode="&#x1e82;" horiz-adv-x="1027" 
d="M640 926l-221 -111l-31 63l219 118zM922 740h92l-239 -740h-83l-179 601l-179 -601h-82l-239 740h92l187 -606l179 606h85l178 -608z" />
    <glyph glyph-name="wacute" unicode="&#x1e83;" horiz-adv-x="805" 
d="M528 653l-221 -112l-31 64l219 117zM705 475h87l-175 -475h-87l-127 376l-128 -376h-86l-176 475h87l132 -380l128 380h85l128 -379z" />
    <glyph glyph-name="Wdieresis" unicode="&#x1e84;" horiz-adv-x="1027" 
d="M408 846q-26 0 -43.5 17.5t-17.5 43.5t17.5 43t43.5 17t43.5 -17t17.5 -43t-17.5 -43.5t-43.5 -17.5zM621 846q-26 0 -43.5 17.5t-17.5 43.5t17.5 43t43.5 17t43.5 -17.5t17.5 -42.5t-18 -43t-43 -18zM922 740h92l-239 -740h-83l-179 601l-179 -601h-82l-239 740h92
l187 -606l179 606h85l178 -608z" />
    <glyph glyph-name="wdieresis" unicode="&#x1e85;" horiz-adv-x="805" 
d="M300 578q-24 0 -40 16t-16 40q0 23 16 39t40 16q23 0 39 -16t16 -39q0 -24 -16 -40t-39 -16zM502 578q-24 0 -40 16t-16 40q0 23 16 39t40 16q23 0 39 -16t16 -39q0 -24 -16 -40t-39 -16zM705 475h87l-175 -475h-87l-127 376l-128 -376h-86l-176 475h87l132 -380l128 380
h85l128 -379z" />
    <glyph glyph-name="uni1E9E" unicode="&#x1e9e;" horiz-adv-x="699" 
d="M456 431q104 -42 154 -94.5t50 -138.5q0 -101 -61.5 -156t-166.5 -55q-120 0 -200 73l43 66q68 -60 158 -60q62 0 101.5 32t39.5 91q0 17 -2 31.5t-9.5 27.5t-12.5 23t-19.5 21t-21.5 17.5t-28.5 16.5t-30.5 14.5t-36 15t-37.5 14t-42.5 15.5v7l170 266h-324v-658h-85
v740h519v-65z" />
    <glyph glyph-name="Ygrave" unicode="&#x1ef2;" horiz-adv-x="669" 
d="M456 878l-31 -63l-221 111l33 70zM552 740h99l-274 -409v-331h-85v331l-273 409h99l217 -328z" />
    <glyph glyph-name="ygrave" unicode="&#x1ef3;" horiz-adv-x="514" 
d="M383 604l-31 -63l-221 111l34 69zM413 475h87l-307 -728h-80l102 246l-202 482h87l156 -381z" />
    <glyph glyph-name="uni1EF8" unicode="&#x1ef8;" horiz-adv-x="669" 
d="M258 901q-48 0 -48 -52h-62q0 55 28.5 87.5t78.5 32.5q36 0 82.5 -27t65.5 -27q47 0 47 51h61q0 -54 -28 -86.5t-76 -32.5q-38 0 -84.5 27t-64.5 27zM552 740h99l-274 -409v-331h-85v331l-273 409h99l217 -328z" />
    <glyph glyph-name="uni1EF9" unicode="&#x1ef9;" horiz-adv-x="514" 
d="M186 626q-48 0 -48 -52h-62q0 55 28 87t78 32q36 0 83 -27t65 -27q47 0 47 52h62q0 -54 -28 -86.5t-76 -32.5q-38 0 -84.5 27t-64.5 27zM413 475h87l-307 -728h-80l102 246l-202 482h87l156 -381z" />
    <glyph glyph-name="endash" unicode="&#x2013;" horiz-adv-x="668" 
d="M61 310h546v-77h-546v77z" />
    <glyph glyph-name="emdash" unicode="&#x2014;" horiz-adv-x="1113" 
d="M61 310h991v-77h-991v77z" />
    <glyph glyph-name="quoteleft" unicode="&#x2018;" horiz-adv-x="197" 
d="M102 639q20 0 33.5 -13.5t13.5 -35.5q0 -21 -14.5 -36t-35.5 -15q-26 0 -39.5 19t-13.5 51q0 52 29.5 91t64.5 41v-38q-17 0 -32.5 -17.5t-19.5 -48.5q8 2 14 2z" />
    <glyph glyph-name="quoteright" unicode="&#x2019;" horiz-adv-x="197" 
d="M103 747q25 0 39 -19t14 -51q0 -52 -29.5 -91.5t-64.5 -40.5v38q17 0 32.5 17.5t19.5 48.5q-8 -2 -14 -2q-20 0 -33.5 13.5t-13.5 35.5q0 21 14.5 36t35.5 15z" />
    <glyph glyph-name="quotesinglbase" unicode="&#x201a;" horiz-adv-x="205" 
d="M101 91q26 0 40 -19t14 -51q0 -53 -29.5 -92t-65.5 -40v38q17 0 32.5 17.5t19.5 48.5q-8 -2 -14 -2q-20 0 -33 13.5t-13 35.5q0 21 14 36t35 15z" />
    <glyph glyph-name="quotedblleft" unicode="&#x201c;" horiz-adv-x="356" 
d="M102 639q20 0 33.5 -13.5t13.5 -35.5q0 -21 -14.5 -36t-35.5 -15q-26 0 -39.5 19t-13.5 51q0 52 29.5 91t64.5 41v-38q-17 0 -32.5 -17.5t-19.5 -48.5q8 2 14 2zM261 639q20 0 33.5 -13.5t13.5 -35.5q0 -21 -14.5 -36t-35.5 -15q-25 0 -39 19t-14 51q0 52 29.5 91
t64.5 41v-38q-17 0 -32.5 -17.5t-19.5 -48.5q8 2 14 2z" />
    <glyph glyph-name="quotedblright" unicode="&#x201d;" horiz-adv-x="356" 
d="M103 747q25 0 39 -19t14 -51q0 -52 -29.5 -91.5t-64.5 -40.5v38q17 0 32.5 17.5t19.5 48.5q-8 -2 -14 -2q-20 0 -33.5 13.5t-13.5 35.5q0 21 14.5 36t35.5 15zM262 747q26 0 39.5 -19t13.5 -51q0 -52 -29.5 -91.5t-64.5 -40.5v38q17 0 32.5 17.5t19.5 48.5q-8 -2 -14 -2
q-20 0 -33.5 13.5t-13.5 35.5q0 21 14.5 36t35.5 15z" />
    <glyph glyph-name="quotedblbase" unicode="&#x201e;" horiz-adv-x="365" 
d="M101 91q26 0 40 -19t14 -51q0 -53 -29.5 -92t-65.5 -40v38q17 0 32.5 17.5t19.5 48.5q-8 -2 -14 -2q-20 0 -33 13.5t-13 35.5q0 21 14 36t35 15zM260 91q26 0 40 -19t14 -51q0 -53 -29.5 -92t-65.5 -40v38q17 0 32.5 17.5t19.5 48.5q-8 -2 -14 -2q-20 0 -33 13.5
t-13 35.5q0 21 14 36t35 15z" />
    <glyph glyph-name="dagger" unicode="&#x2020;" horiz-adv-x="512" 
d="M215 440h-187v73h187v227h82v-227h188v-73h-188v-693h-82v693z" />
    <glyph glyph-name="daggerdbl" unicode="&#x2021;" horiz-adv-x="551" 
d="M234 21h-186v72h186v377h-186v72h186v198h83v-198h187v-72h-187v-377h187v-72h-187v-274h-83v274z" />
    <glyph glyph-name="bullet" unicode="&#x2022;" horiz-adv-x="372" 
d="M185 271q-44 0 -74.5 30.5t-29.5 75.5q0 44 30.5 75t74.5 31t74.5 -31t31.5 -75q0 -45 -30.5 -76t-76.5 -30z" />
    <glyph glyph-name="ellipsis" unicode="&#x2026;" horiz-adv-x="683" 
d="M109 -6q-23 0 -38.5 15t-15.5 39q0 22 15.5 37.5t38.5 15.5t38.5 -15.5t15.5 -37.5q0 -24 -15.5 -39t-38.5 -15zM342 -6q-23 0 -38.5 15t-15.5 39q0 23 15.5 38t38.5 15t38.5 -15.5t15.5 -37.5q0 -24 -15.5 -39t-38.5 -15zM575 -6q-23 0 -38.5 15t-15.5 39q0 23 15.5 38
t38.5 15t38.5 -15.5t15.5 -37.5q0 -24 -15.5 -39t-38.5 -15z" />
    <glyph glyph-name="perthousand" unicode="&#x2030;" horiz-adv-x="1277" 
d="M409 570q0 -77 -56 -132t-133 -55t-133 55t-56 132t56 132t133 55t133 -55t56 -132zM599 740h72l-406 -740h-72zM220 455q49 0 82 33.5t33 81.5t-33 81.5t-82 33.5q-48 0 -81 -33.5t-33 -81.5t33 -81.5t81 -33.5zM830 173q0 -77 -56 -132t-133 -55t-133 55t-56 132
t56 132t133 55t133 -55t56 -132zM1246 173q0 -77 -56 -132t-133 -55t-133 55t-56 132t56 132t133 55t133 -55t56 -132zM641 57q48 0 81 34t33 82t-33 81.5t-81 33.5q-49 0 -82 -33.5t-33 -81.5t33.5 -82t81.5 -34zM1057 57q48 0 81 34t33 82t-33 81.5t-81 33.5
q-49 0 -82 -33.5t-33 -81.5t33.5 -82t81.5 -34z" />
    <glyph glyph-name="guilsinglleft" unicode="&#x2039;" horiz-adv-x="304" 
d="M41 242l127 187h86l-124 -187l126 -189h-88z" />
    <glyph glyph-name="guilsinglright" unicode="&#x203a;" horiz-adv-x="304" 
d="M174 242l-124 187h86l127 -187l-127 -189h-88z" />
    <glyph glyph-name="fraction" unicode="&#x2044;" horiz-adv-x="436" 
d="M389 740h66l-406 -740h-66z" />
    <glyph glyph-name="Euro" unicode="&#x20ac;" horiz-adv-x="638" 
d="M361 65q52 0 92.5 29t55.5 85h84q-16 -90 -79.5 -141t-152.5 -51q-104 0 -171 69.5t-67 182.5v23h-89l21 63h68v85h-74l21 64h53v27q0 113 67 182.5t171 69.5q89 0 152.5 -51t79.5 -140h-84q-15 55 -55.5 84t-92.5 29q-66 0 -110.5 -47t-44.5 -133v-21h298l-21 -64h-277
v-85h260l-21 -63h-239v-17q0 -86 44.5 -133t110.5 -47z" />
    <glyph glyph-name="uni20B4" unicode="&#x20b4;" horiz-adv-x="640" 
d="M607 477l-21 -63h-553l21 63h322q76 43 76 105q0 49 -36.5 72.5t-93.5 23.5q-95 0 -163 -55l-45 65q100 66 210 66q93 0 153 -43.5t60 -118.5q0 -69 -53 -115h123zM33 266l21 63h553l-21 -63h-322q-76 -43 -76 -105q0 -49 36.5 -72.5t93.5 -23.5q95 0 163 55l46 -65
q-101 -66 -211 -66q-93 0 -153 43.5t-60 118.5q0 69 53 115h-123z" />
    <glyph glyph-name="uni20B9" unicode="&#x20b9;" horiz-adv-x="734" 
d="M451 677q53 -40 62 -112h150l-21 -63h-129q-18 -177 -252 -177h-44l362 -325h-121l-362 325h-1v76h172q143 0 162 101h-334v63h333q-19 99 -161 99h-172v76h568l-21 -63h-191z" />
    <glyph glyph-name="uni20BA" unicode="&#x20ba;" horiz-adv-x="635" 
d="M487 365h84v-113q0 -116 -67.5 -184t-170.5 -68h-238v271l-90 -53v73l90 53v63l-90 -53v74l90 53v259h83v-210l191 113v-73l-191 -113v-63l191 113v-74l-191 -113v-242h155q66 0 110 47.5t44 132.5v107z" />
    <glyph glyph-name="uni20BD" unicode="&#x20bd;" horiz-adv-x="658" 
d="M218 281v-99h201v-63h-201v-119h-86v119h-86v63h86v99h-86v64h86v395h214q137 0 207.5 -62t70.5 -167t-70.5 -167.5t-207.5 -62.5h-128zM218 658v-301h128q96 0 145 40.5t49 110.5t-49 110t-145 40h-128z" />
    <glyph glyph-name="trademark" unicode="&#x2122;" horiz-adv-x="791" 
d="M141 684h-108v56h279v-56h-107v-297h-64v297zM367 740h66l106 -128l105 128h66v-353h-64v262l-95 -112h-25l-95 112v-262h-64v353z" />
    <glyph glyph-name="oneeighth" unicode="&#x215b;" horiz-adv-x="805" 
d="M125 296v385h-95v59h160v-444h-65zM526 740h67l-406 -740h-67zM714 265q58 -44 58 -120q0 -63 -44 -108t-114 -45t-114.5 45t-44.5 108q0 75 60 121q-19 29 -19 67q0 49 33 84t84 35q52 0 85 -34.5t33 -84.5q0 -37 -17 -68zM613 394q-29 0 -48 -20.5t-19 -47.5
q0 -22 11 -39q31 12 56 12q30 0 56 -13q12 18 12 40q0 28 -19.5 48t-48.5 20zM614 43q42 0 69.5 30.5t27.5 71.5q0 43 -28 73t-69 30q-42 0 -70.5 -31t-28.5 -72t29 -71.5t70 -30.5z" />
    <glyph glyph-name="threeeighths" unicode="&#x215c;" horiz-adv-x="905" 
d="M342 419q0 -58 -43 -96.5t-108 -38.5q-71 0 -114 42.5t-44 112.5h63q0 -43 25.5 -68.5t66.5 -25.5q40 0 63 22t23 59t-24.5 58.5t-66.5 21.5h-14v55h14q35 0 57.5 19.5t22.5 49.5q0 27 -18.5 44t-47.5 17q-31 0 -49.5 -18t-18.5 -48h-64q0 55 37 88.5t97 33.5
q58 0 94 -31t36 -81q0 -36 -20 -63.5t-54 -38.5q41 -11 64 -41.5t23 -72.5zM632 740h67l-406 -740h-67zM820 265q58 -44 58 -120q0 -63 -44 -108t-114 -45t-114.5 45t-44.5 108q0 75 60 121q-19 29 -19 67q0 49 33 84t84 35q52 0 85 -34.5t33 -84.5q0 -37 -17 -68zM719 394
q-29 0 -48 -20.5t-19 -47.5q0 -22 11 -39q31 12 56 12q30 0 56 -13q12 18 12 40q0 28 -19.5 48t-48.5 20zM720 43q42 0 69.5 30.5t27.5 71.5q0 43 -28 73t-69 30q-42 0 -70.5 -31t-28.5 -72t29 -71.5t70 -30.5z" />
    <glyph glyph-name="fiveeighths" unicode="&#x215d;" horiz-adv-x="905" 
d="M340 438q0 -67 -42.5 -108.5t-110.5 -41.5q-64 0 -103.5 36.5t-48.5 103.5h58q15 -85 95 -85q39 0 66 27.5t27 67.5q0 39 -24.5 67t-62.5 28q-51 0 -93 -31l-40 23l36 215h206l2 -51h-158l-20 -116q33 15 73 15q60 0 100 -43t40 -107zM632 740h67l-406 -740h-67zM820 265
q58 -44 58 -120q0 -63 -44 -108t-114 -45t-114.5 45t-44.5 108q0 75 60 121q-19 29 -19 67q0 49 33 84t84 35q52 0 85 -34.5t33 -84.5q0 -37 -17 -68zM719 394q-29 0 -48 -20.5t-19 -47.5q0 -22 11 -39q31 12 56 12q30 0 56 -13q12 18 12 40q0 28 -19.5 48t-48.5 20zM720 43
q42 0 69.5 30.5t27.5 71.5q0 43 -28 73t-69 30q-42 0 -70.5 -31t-28.5 -72t29 -71.5t70 -30.5z" />
    <glyph glyph-name="seveneighths" unicode="&#x215e;" horiz-adv-x="825" 
d="M284 740v-46l-174 -398h-63l173 394h-207v50h271zM552 740h67l-406 -740h-67zM740 265q58 -44 58 -120q0 -63 -44 -108t-114 -45t-114.5 45t-44.5 108q0 75 60 121q-19 29 -19 67q0 49 33 84t84 35q52 0 85 -34.5t33 -84.5q0 -37 -17 -68zM639 394q-29 0 -48 -20.5
t-19 -47.5q0 -22 11 -39q31 12 56 12q30 0 56 -13q12 18 12 40q0 28 -19.5 48t-48.5 20zM640 43q42 0 69.5 30.5t27.5 71.5q0 43 -28 73t-69 30q-42 0 -70.5 -31t-28.5 -72t29 -71.5t70 -30.5z" />
    <glyph glyph-name="arrowleft" unicode="&#x2190;" horiz-adv-x="819" 
d="M769 408v-76h-574l202 -202h-107l-240 240l240 240h108l-203 -202h574z" />
    <glyph glyph-name="arrowup" unicode="&#x2191;" horiz-adv-x="580" 
d="M530 488v-106l-202 202v-574h-76v574l-202 -203v107l240 240z" />
    <glyph glyph-name="arrowright" unicode="&#x2192;" horiz-adv-x="819" 
d="M529 610l240 -240l-240 -240h-107l202 202h-574v76h574l-203 202h108z" />
    <glyph glyph-name="arrowdown" unicode="&#x2193;" horiz-adv-x="580" 
d="M328 155l202 202v-107l-240 -240l-240 240v108l202 -203v573h76v-573z" />
    <glyph glyph-name="uni2196" unicode="&#x2196;" horiz-adv-x="635" 
d="M585 154l-54 -54l-406 407l1 -287l-76 76v339h340l76 -76l-287 1z" />
    <glyph glyph-name="uni2197" unicode="&#x2197;" horiz-adv-x="635" 
d="M245 635h340v-339l-76 -76v286l-405 -406l-54 54l406 406l-287 -1z" />
    <glyph glyph-name="uni2198" unicode="&#x2198;" horiz-adv-x="635" 
d="M509 515l76 -75v-340h-340l-76 76l288 -1l-407 406l54 54l405 -406v286z" />
    <glyph glyph-name="uni2199" unicode="&#x2199;" horiz-adv-x="635" 
d="M585 581l-407 -406l288 1l-76 -76h-340v340l76 75v-286l405 406z" />
    <glyph glyph-name="minus" unicode="&#x2212;" horiz-adv-x="668" 
d="M68 385h532v-78h-532v78z" />
    <glyph glyph-name="approxequal" unicode="&#x2248;" horiz-adv-x="658" 
d="M88 392q0 67 36.5 104t101.5 37q49 0 111 -26t92 -26q74 0 74 70h68q0 -66 -37 -103.5t-100 -37.5q-50 0 -111.5 26t-91.5 26q-75 0 -75 -70h-68zM88 139q0 67 36.5 104.5t101.5 37.5q49 0 111 -26.5t92 -26.5q74 0 74 70h68q0 -66 -37 -103.5t-100 -37.5
q-50 0 -111.5 26t-91.5 26q-75 0 -75 -70h-68z" />
    <glyph glyph-name="notequal" unicode="&#x2260;" horiz-adv-x="656" 
d="M588 432h-190l-67 -172h257v-77h-286l-45 -116h-80l45 116h-154v77h184l66 172h-250v77h280l45 116h79l-45 -116h161v-77z" />
    <glyph glyph-name="uniF8FF" unicode="&#xf8ff;" horiz-adv-x="894" 
d="M611 717v-120h-246v-189q40 -14 95.5 -43.5t97.5 -53.5t96.5 -43t102.5 -19l47 4q-2 -4 -8 -9t-30.5 -14t-58.5 -9q-125 0 -342 113v-334h-126v386q-24 10 -52 10q-34 0 -56 -14.5t-22 -42.5q0 -19 10 -35t27 -22q-26 1 -41 18t-15 45q0 40 33.5 65t92.5 25q14 0 23 -2
v284h372z" />
    <glyph glyph-name="uni00A40301" horiz-adv-x="277" 
d="M36 815l-31 63l218 118l34 -70zM-35 -218v78q72 11 100 55.5t28 149.5v675h85v-675q0 -138 -47 -204t-166 -79z" />
    <glyph glyph-name="W.ss01" horiz-adv-x="993" 
d="M892 740h92l-294 -740h-81l-113 282l-113 -282h-81l-295 740h92l246 -626l103 261l-145 365h92l102 -261l102 261h92l-146 -368l101 -258z" />
    <glyph glyph-name="Wacute.ss01" horiz-adv-x="993" 
d="M626 926l-221 -111l-31 63l218 118zM892 740h92l-294 -740h-81l-113 282l-113 -282h-81l-295 740h92l246 -626l103 261l-145 365h92l102 -261l102 261h92l-146 -368l101 -258z" />
    <glyph glyph-name="Wcircumflex.ss01" horiz-adv-x="993" 
d="M500 914l-137 -99l-40 57l164 124h26l164 -124l-40 -57zM892 740h92l-294 -740h-81l-113 282l-113 -282h-81l-295 740h92l246 -626l103 261l-145 365h92l102 -261l102 261h92l-146 -368l101 -258z" />
    <glyph glyph-name="Wdieresis.ss01" horiz-adv-x="993" 
d="M393 846q-25 0 -43 18t-18 43t17.5 42.5t43.5 17.5t43.5 -17t17.5 -43t-17.5 -43.5t-43.5 -17.5zM606 846q-26 0 -43.5 18t-17.5 43t17.5 42.5t43.5 17.5t43.5 -17t17.5 -43t-17.5 -43.5t-43.5 -17.5zM892 740h92l-294 -740h-81l-113 282l-113 -282h-81l-295 740h92
l246 -626l103 261l-145 365h92l102 -261l102 261h92l-146 -368l101 -258z" />
    <glyph glyph-name="Wgrave.ss01" horiz-adv-x="993" 
d="M626 878l-31 -63l-221 111l33 70zM892 740h92l-294 -740h-81l-113 282l-113 -282h-81l-295 740h92l246 -626l103 261l-145 365h92l102 -261l102 261h92l-146 -368l101 -258z" />
    <glyph glyph-name="i.loclTRK" horiz-adv-x="226" 
d="M117 582q-23 0 -39 16t-16 40q0 23 16 38.5t39 15.5t38.5 -16t15.5 -38q0 -24 -15.5 -40t-38.5 -16zM67 475h80v-475h-80v475z" />
    <glyph glyph-name="uni006A0301" horiz-adv-x="230" 
d="M-12 605l219 117l33 -69l-221 -112zM68 475h80v-728h-80v728z" />
    <glyph glyph-name="g.ss01" horiz-adv-x="524" 
d="M489 475v-63h-69q53 -59 53 -142q0 -63 -32.5 -115.5t-88.5 -78.5q55 -21 87 -62t32 -96q0 -79 -59.5 -129t-156.5 -50q-96 0 -155.5 50t-59.5 129q0 55 32 96t87 62q-56 26 -88.5 78.5t-32.5 115.5q0 88 62 151t155 63q35 0 65 -9h169zM255 128q61 0 100 41.5t39 99.5
t-39 98.5t-100 40.5q-60 0 -99 -40.5t-39 -98.5t38.5 -99.5t99.5 -41.5zM385 -80q0 46 -36.5 75.5t-93.5 29.5q-56 0 -92.5 -29.5t-36.5 -75.5t35 -75.5t94 -29.5t94.5 29.5t35.5 75.5z" />
    <glyph glyph-name="gbreve.ss01" horiz-adv-x="524" 
d="M261 541q-73 0 -120 49t-47 126h69q0 -48 26.5 -76t71.5 -28q44 0 70.5 28t26.5 76h69q0 -77 -46.5 -126t-119.5 -49zM489 475v-63h-69q53 -59 53 -142q0 -63 -32.5 -115.5t-88.5 -78.5q55 -21 87 -62t32 -96q0 -79 -59.5 -129t-156.5 -50q-96 0 -155.5 50t-59.5 129
q0 55 32 96t87 62q-56 26 -88.5 78.5t-32.5 115.5q0 88 62 151t155 63q35 0 65 -9h169zM255 128q61 0 100 41.5t39 99.5t-39 98.5t-100 40.5q-60 0 -99 -40.5t-39 -98.5t38.5 -99.5t99.5 -41.5zM385 -80q0 46 -36.5 75.5t-93.5 29.5q-56 0 -92.5 -29.5t-36.5 -75.5t35 -75.5
t94 -29.5t94.5 29.5t35.5 75.5z" />
    <glyph glyph-name="uni0123.ss01" horiz-adv-x="524" 
d="M258 547q-25 0 -40 18t-15 50q0 77 85 125l20 -29q-56 -27 -56 -72q6 2 15 2q18 0 31 -13t13 -32q0 -20 -15.5 -34.5t-37.5 -14.5zM489 475v-63h-69q53 -59 53 -142q0 -63 -32.5 -115.5t-88.5 -78.5q55 -21 87 -62t32 -96q0 -79 -59.5 -129t-156.5 -50q-96 0 -155.5 50
t-59.5 129q0 55 32 96t87 62q-56 26 -88.5 78.5t-32.5 115.5q0 88 62 151t155 63q35 0 65 -9h169zM255 128q61 0 100 41.5t39 99.5t-39 98.5t-100 40.5q-60 0 -99 -40.5t-39 -98.5t38.5 -99.5t99.5 -41.5zM385 -80q0 46 -36.5 75.5t-93.5 29.5q-56 0 -92.5 -29.5
t-36.5 -75.5t35 -75.5t94 -29.5t94.5 29.5t35.5 75.5z" />
    <glyph glyph-name="gdotaccent.ss01" horiz-adv-x="524" 
d="M259 582q-23 0 -39 16t-16 40q0 23 16 38.5t39 15.5t39 -15.5t16 -38.5q0 -24 -16 -40t-39 -16zM489 475v-63h-69q53 -59 53 -142q0 -63 -32.5 -115.5t-88.5 -78.5q55 -21 87 -62t32 -96q0 -79 -59.5 -129t-156.5 -50q-96 0 -155.5 50t-59.5 129q0 55 32 96t87 62
q-56 26 -88.5 78.5t-32.5 115.5q0 88 62 151t155 63q35 0 65 -9h169zM255 128q61 0 100 41.5t39 99.5t-39 98.5t-100 40.5q-60 0 -99 -40.5t-39 -98.5t38.5 -99.5t99.5 -41.5zM385 -80q0 46 -36.5 75.5t-93.5 29.5q-56 0 -92.5 -29.5t-36.5 -75.5t35 -75.5t94 -29.5
t94.5 29.5t35.5 75.5z" />
    <glyph glyph-name="g.ss02" horiz-adv-x="505" 
d="M479 475v-63h-68q47 -55 47 -130q0 -83 -58.5 -142.5t-147.5 -59.5q-48 0 -87 18q-27 -13 -27 -41q0 -32 27 -43q42 16 91 16q85 0 137 -41.5t52 -101.5q0 -62 -50.5 -103t-138.5 -41t-138.5 41t-50.5 103q0 52 39 91q-39 31 -39 75q0 51 42 83q-62 59 -62 146
q0 83 58.5 142.5t146.5 59.5q33 0 63 -9h164zM252 152q57 0 93.5 38t36.5 93q0 54 -36.5 91.5t-93.5 37.5t-93 -37.5t-36 -91.5q0 -55 36 -93t93 -38zM368 -113q0 33 -28.5 54.5t-83.5 21.5t-83.5 -21.5t-28.5 -54.5q0 -34 28.5 -55.5t83.5 -21.5t83.5 21.5t28.5 55.5z" />
    <glyph glyph-name="gbreve.ss.ss02" horiz-adv-x="505" 
d="M255 541q-73 0 -119.5 49t-46.5 126h69q0 -48 26 -76t71 -28t71.5 28t26.5 76h69q0 -76 -47 -125.5t-120 -49.5zM479 475v-63h-68q47 -55 47 -130q0 -83 -58.5 -142.5t-147.5 -59.5q-48 0 -87 18q-27 -13 -27 -41q0 -32 27 -43q42 16 91 16q85 0 137 -41.5t52 -101.5
q0 -62 -50.5 -103t-138.5 -41t-138.5 41t-50.5 103q0 52 39 91q-39 31 -39 75q0 51 42 83q-62 59 -62 146q0 83 58.5 142.5t146.5 59.5q33 0 63 -9h164zM252 152q57 0 93.5 38t36.5 93q0 54 -36.5 91.5t-93.5 37.5t-93 -37.5t-36 -91.5q0 -55 36 -93t93 -38zM368 -113
q0 33 -28.5 54.5t-83.5 21.5t-83.5 -21.5t-28.5 -54.5q0 -34 28.5 -55.5t83.5 -21.5t83.5 21.5t28.5 55.5z" />
    <glyph glyph-name="uni0123.ss.ss02" horiz-adv-x="505" 
d="M257 547q-25 0 -40.5 18t-15.5 50q0 77 85 125l21 -29q-56 -27 -56 -72q6 2 14 2q19 0 31.5 -13t12.5 -32q0 -20 -15 -34.5t-37 -14.5zM479 475v-63h-68q47 -55 47 -130q0 -83 -58.5 -142.5t-147.5 -59.5q-48 0 -87 18q-27 -13 -27 -41q0 -32 27 -43q42 16 91 16
q85 0 137 -41.5t52 -101.5q0 -62 -50.5 -103t-138.5 -41t-138.5 41t-50.5 103q0 52 39 91q-39 31 -39 75q0 51 42 83q-62 59 -62 146q0 83 58.5 142.5t146.5 59.5q33 0 63 -9h164zM252 152q57 0 93.5 38t36.5 93q0 54 -36.5 91.5t-93.5 37.5t-93 -37.5t-36 -91.5
q0 -55 36 -93t93 -38zM368 -113q0 33 -28.5 54.5t-83.5 21.5t-83.5 -21.5t-28.5 -54.5q0 -34 28.5 -55.5t83.5 -21.5t83.5 21.5t28.5 55.5z" />
    <glyph glyph-name="gdotaccent.ss.ss02" horiz-adv-x="505" 
d="M257 582q-23 0 -39 16t-16 40q0 23 16 38.5t39 15.5t39 -15.5t16 -38.5q0 -24 -16 -40t-39 -16zM479 475v-63h-68q47 -55 47 -130q0 -83 -58.5 -142.5t-147.5 -59.5q-48 0 -87 18q-27 -13 -27 -41q0 -32 27 -43q42 16 91 16q85 0 137 -41.5t52 -101.5q0 -62 -50.5 -103
t-138.5 -41t-138.5 41t-50.5 103q0 52 39 91q-39 31 -39 75q0 51 42 83q-62 59 -62 146q0 83 58.5 142.5t146.5 59.5q33 0 63 -9h164zM252 152q57 0 93.5 38t36.5 93q0 54 -36.5 91.5t-93.5 37.5t-93 -37.5t-36 -91.5q0 -55 36 -93t93 -38zM368 -113q0 33 -28.5 54.5
t-83.5 21.5t-83.5 -21.5t-28.5 -54.5q0 -34 28.5 -55.5t83.5 -21.5t83.5 21.5t28.5 55.5z" />
    <glyph glyph-name="zero.osf" horiz-adv-x="589" 
d="M294 -13q-103 0 -176.5 73t-73.5 175t73 175.5t177 73.5q103 0 177 -73t74 -175q0 -103 -73.5 -176t-177.5 -73zM295 63q71 0 121 52t50 121q0 70 -50.5 121t-121.5 51q-72 0 -121.5 -52t-49.5 -121q0 -70 50.5 -121t121.5 -51z" />
    <glyph glyph-name="one.osf" horiz-adv-x="314" 
d="M151 400h-128v75h208v-475h-80v400z" />
    <glyph glyph-name="two.osf" horiz-adv-x="439" 
d="M135 66l255 4v-70h-342v75q68 34 122.5 71t97 87t42.5 96q0 40 -25 61.5t-63 21.5q-39 0 -67.5 -25t-33.5 -76h-73q5 79 51 126t125 47q73 0 117 -40.5t44 -108.5q0 -82 -71.5 -155t-178.5 -114z" />
    <glyph glyph-name="three.osf" horiz-adv-x="489" 
d="M344 177q100 -41 100 -155q0 -92 -60 -146t-150 -54q-89 0 -144.5 56t-60.5 140h79q5 -53 39.5 -87.5t89.5 -34.5q59 0 93 34.5t34 89.5q0 48 -28 82.5t-79 34.5h-44v75h44q44 0 68 30t24 67q0 44 -26.5 73.5t-75.5 29.5q-50 0 -80.5 -33t-30.5 -82h-78q2 83 51.5 135
t134.5 52q86 0 135 -49t49 -124q0 -94 -84 -134z" />
    <glyph glyph-name="four.osf" horiz-adv-x="501" 
d="M465 75v-75h-77v-167h-80v167h-282v77l276 399h86v-401h77zM114 75h194v289z" />
    <glyph glyph-name="five.osf" horiz-adv-x="516" 
d="M276 283q95 0 151 -66t56 -157q0 -97 -63.5 -167.5t-162.5 -70.5q-93 0 -159.5 62.5t-71.5 154.5h71q6 -62 46 -102t105 -40q70 0 113 44.5t43 112.5q0 66 -41.5 109.5t-106.5 43.5q-76 0 -124 -52l-56 33l49 287h293v-75h-218l-30 -150q44 33 106 33z" />
    <glyph glyph-name="six.osf" horiz-adv-x="521" 
d="M273 426q89 0 152.5 -63t63.5 -154q0 -92 -64.5 -157t-158.5 -65t-158 65t-64 157q0 64 47 154l161 299h87l-135 -250q31 14 69 14zM267 63q62 0 103.5 42.5t41.5 103.5q0 60 -41.5 102.5t-103.5 42.5t-103.5 -42.5t-41.5 -102.5t42 -103t103 -43z" />
    <glyph glyph-name="seven.osf" horiz-adv-x="442" 
d="M16 475h404v-73l-261 -570h-82l260 568h-321v75z" />
    <glyph glyph-name="eight.osf" horiz-adv-x="553" 
d="M413 403q96 -70 96 -186q0 -95 -68.5 -162.5t-163.5 -67.5q-96 0 -164.5 67.5t-68.5 162.5q0 56 26 105.5t70 81.5q-35 43 -35 99q0 70 50 120.5t121 50.5q72 0 122.5 -50t50.5 -121q0 -58 -36 -100zM277 600q-40 0 -68 -29t-28 -68q0 -40 30 -68q31 13 65 13t66 -13
q31 28 31 68t-28 68.5t-68 28.5zM277 63q64 0 108.5 46.5t44.5 107.5q0 63 -45 109t-108 46q-64 0 -109 -46.5t-45 -108.5t45 -108t109 -46z" />
    <glyph glyph-name="nine.osf" horiz-adv-x="525" 
d="M264 484q94 0 158 -65t64 -157q0 -64 -47 -154l-161 -299h-87l135 250q-31 -14 -69 -14q-90 0 -153.5 63t-63.5 154q0 92 65 157t159 65zM263 117q61 0 103 42.5t42 102.5t-42 103t-103 43q-62 0 -103.5 -42.5t-41.5 -103.5q0 -60 41.5 -102.5t103.5 -42.5z" />
    <glyph glyph-name="zero.tf" 
d="M300 -13q-104 0 -171 69.5t-67 182.5v262q0 113 67 182.5t171 69.5q103 0 170.5 -68t67.5 -184v-262q0 -116 -67.5 -184t-170.5 -68zM300 65q66 0 110.5 47.5t44.5 132.5v250q0 85 -44.5 132.5t-110.5 47.5t-110.5 -47t-44.5 -133v-250q0 -86 44.5 -133t110.5 -47z" />
    <glyph glyph-name="one.tf" 
d="M289 659h-143v81h228v-740h-85v659z" />
    <glyph glyph-name="two.tf" 
d="M398 297l-216 -216h337v-81h-450v82l242 242q68 68 98 118.5t30 98.5q0 60 -37 97t-98 37q-58 0 -98.5 -34.5t-50.5 -103.5h-82q14 109 77.5 162.5t156.5 53.5q94 0 156 -57t62 -153q0 -122 -127 -246z" />
    <glyph glyph-name="three.tf" 
d="M408 398q119 -50 119 -188q0 -98 -66 -160.5t-167 -62.5q-103 0 -168 63t-70 164h82q5 -66 48 -107.5t108 -41.5q67 0 107.5 42.5t40.5 106.5q0 59 -36 102t-96 43h-48v79h46q55 0 85.5 34.5t30.5 85.5t-31 84t-88 33q-62 0 -97 -39t-37 -99h-82q2 96 60 156t157 60
q95 0 149.5 -54.5t54.5 -137.5q0 -117 -102 -163z" />
    <glyph glyph-name="four.tf" 
d="M550 215v-76h-85v-139h-83v139h-350v73l349 528h84v-525h85zM125 215h257v390z" />
    <glyph glyph-name="five.tf" 
d="M314 495q101 0 168 -71.5t67 -181.5q0 -109 -71.5 -182t-180.5 -73q-104 0 -172 64t-81 164h82q10 -63 52.5 -106.5t117.5 -43.5q76 0 123 50.5t47 126.5q0 80 -48 129t-117 49q-83 0 -149 -54l-58 45l56 329h350l-5 -78h-276l-36 -202q57 35 131 35z" />
    <glyph glyph-name="six.tf" 
d="M313 467q100 0 169.5 -70t69.5 -168q0 -99 -70.5 -170.5t-175.5 -71.5t-175.5 71.5t-70.5 170.5q0 63 42 143l194 368h93l-154 -289q36 16 78 16zM306 64q72 0 119 49t47 116t-47 116t-119 49t-119 -49t-47 -116t47 -116t119 -49z" />
    <glyph glyph-name="seven.tf" 
d="M71 740h458v-81l-315 -659h-92l317 659h-368v81z" />
    <glyph glyph-name="eight.tf" 
d="M452 452q49 -36 78 -91t29 -117q0 -107 -75 -182t-185 -75q-108 0 -183 75t-75 182q0 62 28.5 117t77.5 91q-39 46 -39 110q0 80 54 135.5t137 55.5q84 0 138.5 -55.5t54.5 -135.5q0 -64 -40 -110zM299 676q-48 0 -79.5 -34t-31.5 -80q0 -44 31 -77q38 16 80 16
q41 0 81 -16q32 34 32 77q0 47 -32.5 80.5t-80.5 33.5zM299 64q76 0 128 54t52 126q0 73 -53 126.5t-127 53.5t-126 -54t-52 -126q0 -73 52 -126.5t126 -53.5z" />
    <glyph glyph-name="nine.tf" 
d="M294 753q105 0 175.5 -71.5t70.5 -170.5q0 -63 -42 -143l-194 -368h-93l154 289q-36 -16 -78 -16q-100 0 -169.5 70t-69.5 168q0 99 70.5 170.5t175.5 71.5zM294 346q72 0 119 49t47 116t-47 116t-119 49t-119 -49t-47 -116t47 -116t119 -49z" />
    <glyph glyph-name="zero.tosf" 
d="M299 -13q-103 0 -176 73t-73 175q0 103 72.5 176t176.5 73t177.5 -73t73.5 -175q0 -103 -73.5 -176t-177.5 -73zM300 63q72 0 121.5 52t49.5 121q0 70 -50.5 121t-121.5 51t-120.5 -52t-49.5 -121q0 -70 50 -121t121 -51z" />
    <glyph glyph-name="one.tosf" 
d="M294 400h-128v75h208v-475h-80v400z" />
    <glyph glyph-name="two.tosf" 
d="M215 66l256 4v-70h-343v75q68 34 122.5 70.5t97.5 87t43 96.5q0 40 -25 61.5t-64 21.5t-67.5 -25t-32.5 -76h-73q5 79 51 126t125 47q73 0 117 -40.5t44 -108.5q0 -82 -71.5 -155t-179.5 -114z" />
    <glyph glyph-name="three.tosf" 
d="M399 177q100 -41 100 -155q0 -92 -60 -146t-150 -54q-89 0 -144.5 56t-60.5 140h79q5 -53 39.5 -87.5t89.5 -34.5q59 0 93 34.5t34 89.5q0 48 -28 82.5t-79 34.5h-44v75h44q44 0 68 30t24 67q0 44 -26.5 73.5t-75.5 29.5q-50 0 -80.5 -33t-30.5 -82h-78q2 83 51.5 135
t134.5 52q86 0 135 -49t49 -124q0 -94 -84 -134z" />
    <glyph glyph-name="four.tosf" 
d="M514 75v-75h-77v-167h-80v167h-281v77l276 399h85v-401h77zM164 75h193v289z" />
    <glyph glyph-name="five.tosf" 
d="M318 283q95 0 151 -66t56 -157q0 -97 -63.5 -167.5t-162.5 -70.5q-94 0 -160 62.5t-71 154.5h71q5 -62 45.5 -102t105.5 -40q70 0 113 44.5t43 112.5q0 66 -41.5 109.5t-106.5 43.5q-76 0 -124 -52l-56 33l49 287h293v-75h-218l-30 -150q44 33 106 33z" />
    <glyph glyph-name="six.tosf" 
d="M312 426q90 0 153.5 -63t63.5 -154q0 -92 -65 -157t-159 -65t-158 65t-64 157q0 66 47 154l161 299h87l-135 -250q31 14 69 14zM306 63q62 0 103.5 42.5t41.5 103.5q0 60 -41.5 102.5t-103.5 42.5q-61 0 -103 -42.5t-42 -102.5t42 -103t103 -43z" />
    <glyph glyph-name="seven.tosf" 
d="M95 475h405v-73l-261 -570h-83l260 568h-321v75z" />
    <glyph glyph-name="eight.tosf" 
d="M436 403q44 -32 70 -81t26 -105q0 -95 -68 -162.5t-164 -67.5t-164 67.5t-68 162.5q0 56 25.5 105.5t69.5 81.5q-35 43 -35 99q0 70 50.5 120.5t121.5 50.5t121.5 -50t50.5 -121q0 -58 -36 -100zM300 600q-40 0 -67.5 -29t-27.5 -68q0 -41 29 -68q33 13 66 13
q32 0 66 -13q30 27 30 68q0 40 -28 68.5t-68 28.5zM300 63q64 0 109 46.5t45 107.5q0 63 -45.5 109t-108.5 46q-64 0 -108.5 -46.5t-44.5 -108.5t45 -108t108 -46z" />
    <glyph glyph-name="nine.tosf" 
d="M301 484q94 0 158.5 -65t64.5 -157q0 -67 -48 -154l-161 -299h-86l134 250q-31 -14 -68 -14q-90 0 -153.5 63t-63.5 154q0 92 64.5 157t158.5 65zM301 117q61 0 102.5 42.5t41.5 102.5t-41.5 103t-102.5 43q-62 0 -103.5 -42.5t-41.5 -103.5q0 -60 41.5 -102.5
t103.5 -42.5z" />
    <glyph glyph-name="zero.numr" horiz-adv-x="370" 
d="M185 288q-61 0 -103.5 39t-42.5 106v170q0 67 42.5 106t103.5 39q63 0 105 -39.5t42 -105.5v-170q0 -66 -42 -105.5t-105 -39.5zM186 344q33 0 59.5 22.5t26.5 67.5v168q0 45 -26.5 67.5t-59.5 22.5q-34 0 -60.5 -23t-26.5 -67v-168q0 -44 26.5 -67t60.5 -23z" />
    <glyph glyph-name="one.numr" horiz-adv-x="213" 
d="M98 687h-85v53h145v-444h-60v391z" />
    <glyph glyph-name="two.numr" horiz-adv-x="350" 
d="M26 350l166 157q60 56 60 108q0 31 -19.5 53t-57.5 22q-39 0 -61 -24t-23 -63h-64q0 65 41.5 104.5t108.5 39.5q64 0 103 -36.5t39 -92.5q0 -72 -80 -148l-122 -116h202v-58h-293v54z" />
    <glyph glyph-name="three.numr" horiz-adv-x="345" 
d="M250 530q64 -32 64 -107q0 -63 -40.5 -99t-104.5 -36q-61 0 -102.5 36.5t-44.5 103.5h60q1 -36 26 -60t63 -24q36 0 60.5 21t24.5 58q0 35 -20.5 56.5t-57.5 21.5h-38v52h32q37 0 56.5 19.5t19.5 50.5t-20 50t-53 19t-54.5 -20.5t-22.5 -56.5h-61q4 63 42 98t98 35
q56 0 93 -30.5t37 -85.5q0 -71 -57 -102z" />
    <glyph glyph-name="four.numr" horiz-adv-x="354" 
d="M331 430v-50h-52v-84h-57v84h-210v49l197 311h70v-310h52zM71 430h151v234z" />
    <glyph glyph-name="five.numr" horiz-adv-x="348" 
d="M184 588q60 0 100 -43t40 -107q0 -67 -42.5 -108.5t-110.5 -41.5q-64 0 -103.5 36.5t-48.5 103.5h58q15 -85 95 -85q40 0 66.5 26.5t26.5 68.5q0 40 -24.5 67.5t-62.5 27.5q-51 0 -93 -31l-40 23l36 215h217l-5 -51h-162l-19 -116q33 15 72 15z" />
    <glyph glyph-name="six.numr" horiz-adv-x="354" 
d="M187 582q64 0 105.5 -41.5t41.5 -103.5q0 -61 -43.5 -104t-110.5 -43q-68 0 -111 41.5t-43 101.5q0 43 29 98l112 209h67l-88 -164q18 6 41 6zM180 340q42 0 70 29t28 69t-28 68.5t-70 28.5t-70 -28.5t-28 -68.5q0 -41 27.5 -69.5t70.5 -28.5z" />
    <glyph glyph-name="seven.numr" horiz-adv-x="298" 
d="M13 740h271v-46l-174 -398h-63l173 394h-207v50z" />
    <glyph glyph-name="eight.numr" horiz-adv-x="370" 
d="M286 561q58 -45 58 -120q0 -63 -44 -108t-115 -45q-70 0 -114 45t-44 108q0 76 60 121q-19 29 -19 67q0 49 32.5 84t84.5 35t85 -34.5t33 -84.5q0 -37 -17 -68zM185 690q-30 0 -48.5 -20.5t-18.5 -47.5q0 -22 11 -39q29 12 56 12q30 0 56 -13q11 16 11 40q0 28 -19 48
t-48 20zM185 339q43 0 70.5 30.5t27.5 71.5q0 43 -28 73t-70 30t-70 -30.5t-28 -72.5q0 -41 28.5 -71.5t69.5 -30.5z" />
    <glyph glyph-name="nine.numr" horiz-adv-x="353" 
d="M174 748q67 0 110.5 -42t43.5 -101q0 -44 -31 -99l-118 -210h-67l95 169q-18 -6 -40 -6q-64 0 -105.5 41t-41.5 101t43 103.5t111 43.5zM174 503q42 0 70 28.5t28 68.5q0 41 -27.5 69t-70.5 28q-42 0 -70 -28.5t-28 -68.5t28 -68.5t70 -28.5z" />
    <glyph glyph-name="period.tf" horiz-adv-x="300" 
d="M150 -6q-23 0 -38 15t-15 39q0 22 15.5 37.5t37.5 15.5q23 0 38.5 -15.5t15.5 -37.5q0 -24 -15.5 -39t-38.5 -15z" />
    <glyph glyph-name="comma.tf" horiz-adv-x="300" 
d="M151 101q27 0 42 -20t15 -54q0 -57 -33 -99t-75 -44v41q22 0 40 19t22 54q-4 -2 -14 -2q-22 0 -36 14.5t-14 36.5q0 23 15 38.5t38 15.5z" />
    <glyph glyph-name="colon.tf" horiz-adv-x="300" 
d="M150 353q-23 0 -38 15.5t-15 38.5t15.5 38t37.5 15q23 0 38.5 -15.5t15.5 -37.5q0 -23 -15.5 -38.5t-38.5 -15.5zM150 -6q-23 0 -38 15t-15 39q0 22 15.5 37.5t37.5 15.5q23 0 38.5 -15.5t15.5 -37.5q0 -24 -15.5 -39t-38.5 -15z" />
    <glyph glyph-name="semicolon.tf" horiz-adv-x="300" 
d="M148 353q-23 0 -38 15.5t-15 38.5t15.5 38t37.5 15q23 0 38.5 -15.5t15.5 -37.5q0 -23 -15.5 -38.5t-38.5 -15.5zM149 101q27 0 42 -20t15 -54q0 -57 -33 -99t-75 -44v41q22 0 40 19t22 54q-4 -2 -14 -2q-22 0 -36 14.5t-14 36.5q0 23 15 38.5t38 15.5z" />
    <glyph glyph-name="slash.tf" horiz-adv-x="300" 
d="M216 740h81l-212 -740h-81z" />
    <glyph glyph-name="backslash.tf" horiz-adv-x="300" 
d="M85 740l212 -740h-81l-212 740h81z" />
    <glyph glyph-name="parenleft.case" horiz-adv-x="344" 
d="M304 -103q-117 69 -190.5 192.5t-73.5 283.5q0 161 73 284t191 191l37 -60q-95 -61 -155 -172t-60 -243q0 -131 60 -242t155 -174z" />
    <glyph glyph-name="parenright.case" horiz-adv-x="345" 
d="M4 -43q94 63 154.5 174t60.5 242q0 132 -60 243t-155 172l36 60q118 -68 191 -191t73 -284q0 -160 -73.5 -283.5t-190.5 -192.5z" />
    <glyph glyph-name="braceleft.case" horiz-adv-x="345" 
d="M18 402q59 2 86.5 31t27.5 88v192q0 59 28.5 90.5t81.5 31.5h77v-72h-46q-30 0 -42.5 -18.5t-12.5 -56.5v-178q0 -120 -113 -146q113 -26 113 -145v-179q0 -38 12.5 -56.5t42.5 -18.5h46v-72h-77q-53 0 -81.5 32t-28.5 91v192q0 59 -27.5 87.5t-86.5 30.5v76z" />
    <glyph glyph-name="braceright.case" horiz-adv-x="345" 
d="M327 326q-59 -2 -87 -30.5t-28 -87.5v-192q0 -59 -28 -91t-81 -32h-78v72h46q31 0 43.5 18.5t12.5 56.5v179q0 119 113 145q-113 26 -113 146v178q0 38 -12.5 56.5t-43.5 18.5h-46v72h78q53 0 81 -31.5t28 -90.5v-192q0 -59 28 -88t87 -31v-76z" />
    <glyph glyph-name="bracketleft.case" horiz-adv-x="341" 
d="M90 836h235v-72h-149v-798h149v-72h-235v942z" />
    <glyph glyph-name="bracketright.case" horiz-adv-x="341" 
d="M15 -34h150v798h-150v72h235v-942h-235v72z" />
    <glyph glyph-name="parenleft.tf" 
d="M432 -199q-117 69 -190.5 192.5t-73.5 283.5q0 161 73.5 284t190.5 191l37 -60q-95 -61 -155 -172t-60 -243q0 -131 60 -242t155 -174z" />
    <glyph glyph-name="parenright.tf" 
d="M131 -139q95 63 155 174t60 242q0 132 -60 243t-155 172l37 60q117 -68 190.5 -191t73.5 -284q0 -160 -73.5 -283.5t-190.5 -192.5z" />
    <glyph glyph-name="braceleft.tf" 
d="M146 306q59 2 86.5 31t27.5 88v192q0 59 28 90.5t81 31.5h78v-72h-46q-30 0 -42.5 -18.5t-12.5 -56.5v-178q0 -120 -114 -146q114 -26 114 -145v-179q0 -38 12.5 -56.5t42.5 -18.5h46v-72h-78q-53 0 -81 32t-28 91v192q0 59 -27.5 87.5t-86.5 30.5v76z" />
    <glyph glyph-name="braceright.tf" 
d="M454 230q-59 -2 -86.5 -30.5t-27.5 -87.5v-192q0 -59 -28 -91t-81 -32h-78v72h46q30 0 42.5 18.5t12.5 56.5v179q0 119 114 145q-114 26 -114 146v178q0 38 -12.5 56.5t-42.5 18.5h-46v72h78q53 0 81 -31.5t28 -90.5v-192q0 -59 27.5 -88t86.5 -31v-76z" />
    <glyph glyph-name="bracketleft.tf" 
d="M220 740h235v-72h-149v-798h149v-72h-235v942z" />
    <glyph glyph-name="bracketright.tf" 
d="M145 -130h150v798h-150v72h235v-942h-235v72z" />
    <glyph glyph-name="hyphen.case" horiz-adv-x="411" 
d="M61 406h289v-77h-289v77z" />
    <glyph glyph-name="endash.case" horiz-adv-x="668" 
d="M61 406h546v-77h-546v77z" />
    <glyph glyph-name="emdash.case" horiz-adv-x="1113" 
d="M61 406h991v-77h-991v77z" />
    <glyph glyph-name="hyphen.tf" 
d="M156 310h288v-77h-288v77z" />
    <glyph glyph-name="endash.tf" 
d="M28 310h544v-77h-544v77z" />
    <glyph glyph-name="emdash.tf" 
d="M0 310h600v-77h-600v77z" />
    <glyph glyph-name="guillemotleft.case" horiz-adv-x="491" 
d="M41 338l127 187h86l-124 -187l126 -189h-88zM228 338l127 187h86l-124 -187l126 -189h-88z" />
    <glyph glyph-name="guillemotright.case" horiz-adv-x="491" 
d="M174 338l-124 187h86l127 -187l-127 -189h-88zM361 338l-124 187h86l127 -187l-127 -189h-88z" />
    <glyph glyph-name="guilsinglleft.case" horiz-adv-x="304" 
d="M41 338l127 187h86l-124 -187l126 -189h-88z" />
    <glyph glyph-name="guilsinglright.case" horiz-adv-x="304" 
d="M174 338l-124 187h86l127 -187l-127 -189h-88z" />
    <glyph glyph-name="space.tf" horiz-adv-x="300" 
 />
    <glyph glyph-name="plus.tf" 
d="M259 307h-225v78h225v238h80v-238h227v-78h-227v-238h-80v238z" />
    <glyph glyph-name="minus.tf" 
d="M34 385h532v-78h-532v78z" />
    <glyph glyph-name="multiply.tf" horiz-adv-x="593" 
d="M66 170l176 176l-176 175l55 55l175 -176l176 176l55 -54l-176 -176l175 -175l-54 -55l-176 176l-176 -176z" />
    <glyph glyph-name="divide.tf" 
d="M300 511q-23 0 -38 15.5t-15 38.5t15 38.5t38 15.5t38.5 -15.5t15.5 -38.5t-15.5 -38.5t-38.5 -15.5zM34 385h532v-78h-532v78zM300 73q-23 0 -38 15t-15 39q0 23 15.5 38t37.5 15q23 0 38.5 -15.5t15.5 -37.5q0 -24 -15.5 -39t-38.5 -15z" />
    <glyph glyph-name="equal.tf" 
d="M40 432v77h520v-77h-520zM40 183v77h520v-77h-520z" />
    <glyph glyph-name="notequal.tf" 
d="M560 432h-190l-67 -172h257v-77h-286l-45 -116h-80l45 116h-154v77h184l66 172h-250v77h280l45 116h79l-45 -116h161v-77z" />
    <glyph glyph-name="greater.tf" 
d="M133 106l241 240l-240 240l54 54l289 -294l-289 -295z" />
    <glyph glyph-name="less.tf" 
d="M123 346l289 294l54 -54l-240 -240l241 -240l-55 -55z" />
    <glyph glyph-name="plusminus.tf" 
d="M259 375h-225v77h225v205h80v-205h227v-77h-227v-205h-80v205zM34 112h532v-77h-532v77z" />
    <glyph glyph-name="approxequal.tf" 
d="M59 392q0 67 36.5 104t101.5 37q49 0 111 -26t92 -26q74 0 74 70h68q0 -66 -37 -103.5t-100 -37.5q-50 0 -111.5 26t-91.5 26q-75 0 -75 -70h-68zM59 139q0 67 36.5 104.5t101.5 37.5q49 0 111 -26.5t92 -26.5q74 0 74 70h68q0 -66 -37 -103.5t-100 -37.5
q-50 0 -111.5 26t-91.5 26q-75 0 -75 -70h-68z" />
    <glyph glyph-name="percent.tf" horiz-adv-x="900" 
d="M429 570q0 -77 -56 -132t-133 -55t-133 55t-56 132t56 132t133 55t133 -55t56 -132zM619 740h71l-406 -740h-71zM240 455q48 0 81 33.5t33 81.5t-33 81.5t-81 33.5q-49 0 -82 -33.5t-33 -81.5t33 -81.5t82 -33.5zM849 173q0 -77 -56 -132t-133 -55t-133 55t-56 132
t56 132t133 55t133 -55t56 -132zM660 57q48 0 81.5 34t33.5 82t-33 81.5t-82 33.5q-48 0 -81 -33.5t-33 -81.5t33 -82t81 -34z" />
    <glyph glyph-name="perthousand.tf" horiz-adv-x="1200" 
d="M371 570q0 -77 -56 -132t-133 -55t-133 55t-56 132t56 132t133 55t133 -55t56 -132zM561 740h71l-406 -740h-71zM182 455q48 0 81 33.5t33 81.5t-33 81.5t-81 33.5q-49 0 -82 -33.5t-33 -81.5t33 -81.5t82 -33.5zM791 173q0 -77 -56 -132t-133 -55t-133 55t-56 132
t56 132t133 55t133 -55t56 -132zM1207 173q0 -77 -56 -132t-133 -55t-133 55t-56 132t56 132t133 55t133 -55t56 -132zM602 57q48 0 81.5 34t33.5 82t-33 81.5t-82 33.5q-48 0 -81 -33.5t-33 -81.5t33 -82t81 -34zM1018 57q48 0 81.5 34t33.5 82t-33 81.5t-82 33.5
q-48 0 -81 -33.5t-33 -81.5t33 -82t81 -34z" />
    <glyph glyph-name="ampersand.ss01" horiz-adv-x="610" 
d="M595 437v-78h-85v-150q-1 -100 -65.5 -161t-167.5 -61q-97 0 -161 59t-64 153q0 71 33 122.5t90 76.5q-105 48 -105 167q0 81 54 134.5t150 53.5q90 0 146 -51l-53 -60q-36 33 -92 33q-57 0 -88 -33.5t-31 -84.5q0 -50 31.5 -85t87.5 -35h155v118h80v-118h85zM430 209
v150h-157q-60 0 -97.5 -45t-37.5 -105q0 -64 37.5 -104t101.5 -40q67 0 109.5 38t43.5 106z" />
    <glyph glyph-name="ampersand.ss02" horiz-adv-x="591" 
d="M524 375q37 -63 37 -136q0 -106 -74.5 -179t-184.5 -73q-111 0 -185 74.5t-74 182.5q0 61 28 115.5t76 90.5q-37 51 -37 114q0 79 55 134t136 55q106 0 161 -84l-66 -45q-34 52 -94 52q-48 0 -80 -33t-32 -79t31.5 -78.5t80.5 -32.5q61 0 94 51l66 -45q-57 -84 -161 -84
q-50 0 -92 22q-39 -24 -62.5 -65.5t-23.5 -87.5q0 -73 51.5 -126.5t127.5 -53.5q77 0 128 50.5t51 124.5q0 53 -24 94z" />
    <glyph glyph-name="uni030C.alt" horiz-adv-x="0" 
d="M-164 509l30 231h74l-35 -231h-69z" />
    <glyph glyph-name="caron.alt" horiz-adv-x="224" 
d="M164 740l-35 -231h-69l30 231h74z" />
    <glyph glyph-name="uni0308.case" horiz-adv-x="0" 
d="M-334 846q-26 0 -43.5 18t-17.5 43t17.5 42.5t43.5 17.5t43.5 -17t17.5 -43t-17.5 -43.5t-43.5 -17.5zM-121 846q-26 0 -43.5 17.5t-17.5 43.5t17.5 43t43.5 17t43.5 -17t17.5 -43t-17.5 -43.5t-43.5 -17.5z" />
    <glyph glyph-name="uni0307.case" horiz-adv-x="0" 
d="M-123 845q-27 0 -45 17.5t-18 44.5q0 26 18 44t45 18q26 0 44.5 -18t18.5 -44q0 -27 -18 -44.5t-45 -17.5z" />
    <glyph glyph-name="gravecomb.case" horiz-adv-x="0" 
d="M-312 926l33 70l219 -118l-31 -63z" />
    <glyph glyph-name="acutecomb.case" horiz-adv-x="0" 
d="M-281 815l-31 63l219 118l33 -70z" />
    <glyph glyph-name="uni030B.case" horiz-adv-x="0" 
d="M-341 815l-55 43l109 138l60 -49zM-173 815l-56 43l110 138l59 -49z" />
    <glyph glyph-name="uni0302.case" horiz-adv-x="0" 
d="M-60 872l-40 -57l-137 99l-138 -99l-39 57l164 124h26z" />
    <glyph glyph-name="uni030C.case" horiz-adv-x="0" 
d="M-100 996l40 -58l-164 -123h-26l-164 123l39 58l138 -100z" />
    <glyph glyph-name="uni0306.case" horiz-adv-x="0" 
d="M-223 815q-73 0 -119.5 49t-46.5 126h69q0 -49 26 -76.5t71 -27.5t71.5 27.5t26.5 76.5h68q0 -77 -46.5 -126t-119.5 -49z" />
    <glyph glyph-name="uni030A.case" horiz-adv-x="0" 
d="M-172 781q-48 0 -80 31t-32 76t32 76.5t80 31.5q49 0 80.5 -31.5t31.5 -76.5t-31.5 -76t-80.5 -31zM-172 834q25 0 40.5 16t15.5 38q0 23 -15.5 39t-40.5 16q-24 0 -40 -16t-16 -39q0 -22 16 -38t40 -16z" />
    <glyph glyph-name="tildecomb.case" horiz-adv-x="0" 
d="M-423 849q0 55 28 87.5t78 32.5q36 0 83 -27t66 -27q46 0 46 51h62q0 -54 -28 -86.5t-76 -32.5q-38 0 -84.5 27t-64.5 27q-48 0 -48 -52h-62z" />
    <glyph glyph-name="uni0304.case" horiz-adv-x="0" 
d="M-379 942h319v-73h-319v73z" />
    <glyph glyph-name="uni0337.case" horiz-adv-x="0" 
d="M-357 256l-31 65l297 139l31 -66z" />
    <glyph glyph-name="uni0338.case" horiz-adv-x="0" 
d="M-821 48l704 704l57 -58l-704 -704z" />
    <glyph glyph-name="dieresis.case" horiz-adv-x="607" 
d="M121 846q-25 0 -43 18t-18 43t17.5 42.5t43.5 17.5t43.5 -17t17.5 -43t-17.5 -43.5t-43.5 -17.5zM334 846q-26 0 -43.5 17.5t-17.5 43.5t17.5 43t43.5 17t43.5 -17t17.5 -43t-17.5 -43.5t-43.5 -17.5z" />
    <glyph glyph-name="dotaccent.case" horiz-adv-x="604" 
d="M123 845q-27 0 -45 17.5t-18 44.5q0 26 18 44t45 18q26 0 44.5 -18t18.5 -44q0 -27 -18 -44.5t-45 -17.5z" />
    <glyph glyph-name="grave.case" horiz-adv-x="604" 
d="M60 926l33 70l219 -118l-31 -63z" />
    <glyph glyph-name="acute.case" horiz-adv-x="604" 
d="M91 815l-31 63l219 118l33 -70z" />
    <glyph glyph-name="hungarumlaut.case" horiz-adv-x="599" 
d="M115 815l-55 43l109 138l60 -49zM283 815l-56 43l110 138l59 -49z" />
    <glyph glyph-name="circumflex.case" horiz-adv-x="603" 
d="M414 872l-40 -57l-137 99l-138 -99l-39 57l164 124h26z" />
    <glyph glyph-name="caron.case" horiz-adv-x="603" 
d="M374 996l40 -58l-164 -123h-26l-164 123l39 58l138 -100z" />
    <glyph glyph-name="breve.case" horiz-adv-x="611" 
d="M223 815q-73 0 -119.5 49t-46.5 126h69q0 -49 26 -76.5t71 -27.5t71.5 27.5t26.5 76.5h68q0 -77 -46.5 -126t-119.5 -49z" />
    <glyph glyph-name="ring.case" horiz-adv-x="616" 
d="M172 781q-48 0 -80 31t-32 76t32 76.5t80 31.5q49 0 80.5 -31.5t31.5 -76.5t-31.5 -76t-80.5 -31zM172 834q25 0 40.5 16t15.5 38q0 23 -15.5 39t-40.5 16q-24 0 -40 -16t-16 -39q0 -22 16 -38t40 -16z" />
    <glyph glyph-name="tilde.case" horiz-adv-x="613" 
d="M60 849q0 55 28 87.5t78 32.5q36 0 83 -27t66 -27q46 0 46 51h62q0 -54 -28 -86.5t-76 -32.5q-38 0 -84.5 27t-64.5 27q-48 0 -48 -52h-62z" />
    <glyph glyph-name="macron.case" horiz-adv-x="602" 
d="M60 942h319v-73h-319v73z" />
    <glyph glyph-name="tonos.case" horiz-adv-x="254" 
d="M60 515l55 225h79l-65 -240z" />
    <glyph glyph-name="brevecombcy" horiz-adv-x="0" 
d="M-227 541q-73 0 -119.5 49t-46.5 126h69q0 -48 26.5 -76t70.5 -28q45 0 71.5 28t26.5 76h69q0 -76 -47 -125.5t-120 -49.5z" />
    <glyph glyph-name="dieresistonoscomb" horiz-adv-x="497" 
d="M201 588l49 202h79l-59 -217zM115 578q-23 0 -39 16t-16 40q0 23 16 39t39 16q24 0 40 -16t16 -39q0 -24 -16 -40t-40 -16zM381 578q-23 0 -39 16t-16 40q0 23 16 39t39 16q24 0 40 -16t16 -39q0 -24 -16 -40t-40 -16z" />
    </font>
</defs>
</svg>
